<?xml version="1.0" encoding="UTF-8" standalone="no"?>
<svg
   viewBox="0 0 32 32"
   version="1.1"
   id="svg1"
   sodipodi:docname="any.svg"
   inkscape:version="1.3.2 (091e20e, 2023-11-25, custom)"
   xmlns:inkscape="http://www.inkscape.org/namespaces/inkscape"
   xmlns:sodipodi="http://sodipodi.sourceforge.net/DTD/sodipodi-0.dtd"
   xmlns="http://www.w3.org/2000/svg"
   xmlns:svg="http://www.w3.org/2000/svg">
  <defs
     id="defs1">
    <rect
       x="3.5625"
       y="3.59375"
       width="25"
       height="24.875"
       id="rect3" />
    <rect
       x="3.5625"
       y="3.59375"
       width="25"
       height="24.875"
       id="rect3-1" />
    <filter
       style="color-interpolation-filters:sRGB;"
       inkscape:label="Drop Shadow"
       id="filter40"
       x="-0.055555643"
       y="-0.03380287"
       width="1.1777781"
       height="1.1081692">
      <feFlood
         result="flood"
         in="SourceGraphic"
         flood-opacity="0.498039"
         flood-color="rgb(0,0,0)"
         id="feFlood39" />
      <feGaussianBlur
         result="blur"
         in="SourceGraphic"
         stdDeviation="0.000000"
         id="feGaussianBlur39" />
      <feOffset
         result="offset"
         in="blur"
         dx="0.600000"
         dy="0.600000"
         id="feOffset39" />
      <feComposite
         result="comp1"
         operator="in"
         in="flood"
         in2="offset"
         id="feComposite39" />
      <feComposite
         result="comp2"
         operator="over"
         in="SourceGraphic"
         in2="comp1"
         id="feComposite40" />
    </filter>
    <filter
       style="color-interpolation-filters:sRGB;"
       inkscape:label="Drop Shadow"
       id="filter42"
       x="-0.045731792"
       y="-0.037084709"
       width="1.1463417"
       height="1.1186711">
      <feFlood
         result="flood"
         in="SourceGraphic"
         flood-opacity="0.498039"
         flood-color="rgb(125,125,124)"
         id="feFlood40" />
      <feGaussianBlur
         result="blur"
         in="SourceGraphic"
         stdDeviation="0.000000"
         id="feGaussianBlur40" />
      <feOffset
         result="offset"
         in="blur"
         dx="0.600000"
         dy="0.600000"
         id="feOffset40" />
      <feComposite
         result="comp1"
         operator="in"
         in="flood"
         in2="offset"
         id="feComposite41" />
      <feComposite
         result="comp2"
         operator="over"
         in="SourceGraphic"
         in2="comp1"
         id="feComposite42" />
    </filter>
  </defs>
  <sodipodi:namedview
     id="namedview1"
     pagecolor="#ffffff"
     bordercolor="#000000"
     borderopacity="0.25"
     inkscape:showpageshadow="2"
     inkscape:pageopacity="0.0"
     inkscape:pagecheckerboard="0"
     inkscape:deskcolor="#d1d1d1"
     inkscape:zoom="32"
     inkscape:cx="17.671875"
     inkscape:cy="15.640625"
     inkscape:window-width="2560"
     inkscape:window-height="1369"
     inkscape:window-x="3432"
     inkscape:window-y="-8"
     inkscape:window-maximized="1"
     inkscape:current-layer="svg1" />
  <rect
     style="fill:#ffffff;fill-opacity:1;fill-rule:nonzero;stroke:#b6b8bf;stroke-opacity:1"
     id="rect1"
     width="24.026417"
     height="23.983383"
     x="4.0062609"
     y="4.0063872"
     ry="3.65625"
     inkscape:label="Background" />
  <path
     style="font-size:21.3333px;font-family:Sono;-inkscape-font-specification:'Sono, Normal';text-align:center;text-anchor:middle;fill:#7e7e7e;stroke:#7e7e7e;paint-order:markers fill stroke;filter:url(#filter42)"
     d="m 11.070181,22.442081 q -0.341333,0 -0.575999,-0.202667 -0.224,-0.202666 -0.224,-0.586666 0,-0.106666 0.02133,-0.223999 0.02133,-0.128 0.064,-0.266666 l 3.925327,-11.146649 q 0.16,-0.4906664 0.48,-0.7679993 0.330666,-0.2879995 0.778665,-0.2879995 h 0.383999 q 0.458666,0 0.778666,0.2879995 0.319999,0.2773329 0.479999,0.7679993 l 3.925327,11.146649 q 0.05333,0.138666 0.07467,0.266666 0.02133,0.117333 0.02133,0.223999 0,0.394667 -0.234666,0.586666 -0.224,0.202667 -0.586666,0.202667 -0.447999,0 -0.661332,-0.245333 -0.213333,-0.245333 -0.362666,-0.757333 l -1.002665,-2.858662 h -5.237326 l -1.002665,2.858662 q -0.149333,0.512 -0.373332,0.757333 -0.213333,0.245333 -0.671999,0.245333 z m 2.453329,-5.237325 h 4.42666 l -2.111997,-6.154657 q -0.032,-0.106667 -0.064,-0.213333 -0.02133,-0.117334 -0.04267,-0.202667 -0.01067,0.08533 -0.04267,0.202667 -0.02133,0.106666 -0.05333,0.213333 z"
     id="text40"
     aria-label="A" />
</svg>
