<?xml version="1.0" encoding="UTF-8" standalone="no"?>
<svg
   viewBox="0 0 32 32"
   version="1.1"
   id="svg1"
   sodipodi:docname="int-array.svg"
   inkscape:version="1.3.2 (091e20e, 2023-11-25, custom)"
   xmlns:inkscape="http://www.inkscape.org/namespaces/inkscape"
   xmlns:sodipodi="http://sodipodi.sourceforge.net/DTD/sodipodi-0.dtd"
   xmlns="http://www.w3.org/2000/svg"
   xmlns:svg="http://www.w3.org/2000/svg">
  <defs
     id="defs1">
    <rect
       x="3.5625"
       y="3.59375"
       width="25"
       height="24.875"
       id="rect3" />
    <rect
       x="3.5625"
       y="3.59375"
       width="25"
       height="24.875"
       id="rect3-1" />
    <filter
       style="color-interpolation-filters:sRGB;"
       inkscape:label="Drop Shadow"
       id="filter40"
       x="-0.055555643"
       y="-0.03380287"
       width="1.1777781"
       height="1.1081692">
      <feFlood
         result="flood"
         in="SourceGraphic"
         flood-opacity="0.498039"
         flood-color="rgb(0,0,0)"
         id="feFlood39" />
      <feGaussianBlur
         result="blur"
         in="SourceGraphic"
         stdDeviation="0.000000"
         id="feGaussianBlur39" />
      <feOffset
         result="offset"
         in="blur"
         dx="0.600000"
         dy="0.600000"
         id="feOffset39" />
      <feComposite
         result="comp1"
         operator="in"
         in="flood"
         in2="offset"
         id="feComposite39" />
      <feComposite
         result="comp2"
         operator="over"
         in="SourceGraphic"
         in2="comp1"
         id="feComposite40" />
    </filter>
    <filter
       style="color-interpolation-filters:sRGB;"
       inkscape:label="Drop Shadow"
       id="filter42"
       x="-0.025329504"
       y="-0.029684229"
       width="1.0810544"
       height="1.0949895">
      <feFlood
         result="flood"
         in="SourceGraphic"
         flood-opacity="0.498039"
         flood-color="rgb(0,0,0)"
         id="feFlood40" />
      <feGaussianBlur
         result="blur"
         in="SourceGraphic"
         stdDeviation="0.000000"
         id="feGaussianBlur40" />
      <feOffset
         result="offset"
         in="blur"
         dx="0.600000"
         dy="0.600000"
         id="feOffset40" />
      <feComposite
         result="comp1"
         operator="in"
         in="flood"
         in2="offset"
         id="feComposite41" />
      <feComposite
         result="comp2"
         operator="over"
         in="SourceGraphic"
         in2="comp1"
         id="feComposite42" />
    </filter>
    <filter
       style="color-interpolation-filters:sRGB;"
       inkscape:label="Drop Shadow"
       id="filter3"
       x="-0.032536976"
       y="-0.027511204"
       width="1.1041183"
       height="1.0880359">
      <feFlood
         result="flood"
         in="SourceGraphic"
         flood-opacity="0.498039"
         flood-color="rgb(0,0,0)"
         id="feFlood2" />
      <feGaussianBlur
         result="blur"
         in="SourceGraphic"
         stdDeviation="0.000000"
         id="feGaussianBlur2" />
      <feOffset
         result="offset"
         in="blur"
         dx="0.600000"
         dy="0.600000"
         id="feOffset2" />
      <feComposite
         result="comp1"
         operator="in"
         in="flood"
         in2="offset"
         id="feComposite2" />
      <feComposite
         result="comp2"
         operator="over"
         in="SourceGraphic"
         in2="comp1"
         id="feComposite3" />
    </filter>
    <filter
       style="color-interpolation-filters:sRGB;"
       inkscape:label="Drop Shadow"
       id="filter7"
       x="-0.028392916"
       y="-0.025706941"
       width="1.0908573"
       height="1.0822622">
      <feFlood
         result="flood"
         in="SourceGraphic"
         flood-opacity="0.498039"
         flood-color="rgb(0,0,0)"
         id="feFlood6" />
      <feGaussianBlur
         result="blur"
         in="SourceGraphic"
         stdDeviation="0.000000"
         id="feGaussianBlur6" />
      <feOffset
         result="offset"
         in="blur"
         dx="0.600000"
         dy="0.600000"
         id="feOffset6" />
      <feComposite
         result="comp1"
         operator="in"
         in="flood"
         in2="offset"
         id="feComposite6" />
      <feComposite
         result="comp2"
         operator="over"
         in="SourceGraphic"
         in2="comp1"
         id="feComposite7" />
    </filter>
  </defs>
  <sodipodi:namedview
     id="namedview1"
     pagecolor="#ffffff"
     bordercolor="#000000"
     borderopacity="0.25"
     inkscape:showpageshadow="2"
     inkscape:pageopacity="0.0"
     inkscape:pagecheckerboard="0"
     inkscape:deskcolor="#d1d1d1"
     inkscape:zoom="22.627417"
     inkscape:cx="35.863572"
     inkscape:cy="21.367883"
     inkscape:window-width="2560"
     inkscape:window-height="1369"
     inkscape:window-x="3432"
     inkscape:window-y="-8"
     inkscape:window-maximized="1"
     inkscape:current-layer="svg1" />
  <rect
     style="fill:#0273f1;fill-opacity:1;fill-rule:nonzero;stroke:#0366ba;stroke-opacity:1"
     id="rect1"
     width="24.026417"
     height="23.983383"
     x="4.0227928"
     y="4.0141778"
     ry="3.65625"
     inkscape:label="Background" />
  <path
     style="font-size:20px;line-height:0;font-family:Sono;-inkscape-font-specification:'Sono, Normal';text-align:center;letter-spacing:-2px;text-anchor:middle;fill:#ffffff;stroke:#ffffff;paint-order:markers fill stroke;filter:url(#filter7)"
     d="m 7.9463807,25.405005 q -1.08,0 -1.08,-1.08 V 7.0350053 q 0,-1.08 1.08,-1.08 h 3.1200003 q 0.38,0 0.62,0.17 0.24,0.17 0.24,0.5 0,0.32 -0.24,0.5 -0.24,0.17 -0.62,0.17 H 8.4063807 V 24.055005 h 2.6600003 q 0.38,0 0.62,0.18 0.24,0.18 0.24,0.5 0,0.33 -0.24,0.5 -0.24,0.17 -0.62,0.17 z m 5.0900183,-2.93 q -0.45,0 -0.69,-0.17 -0.23,-0.17 -0.23,-0.47 0,-0.32 0.23,-0.49 0.24,-0.17 0.69,-0.17 h 1.86 v -9.78 h -1.86 q -0.45,0 -0.69,-0.17 -0.23,-0.18 -0.23,-0.49 0,-0.31 0.23,-0.47 0.24,-0.17 0.69,-0.17 h 5.28 q 0.45,0 0.68,0.17 0.24,0.16 0.24,0.47 0,0.31 -0.24,0.49 -0.23,0.17 -0.68,0.17 h -1.8 v 9.78 h 1.8 q 0.45,0 0.68,0.17 0.24,0.17 0.24,0.49 0,0.3 -0.24,0.47 -0.23,0.17 -0.68,0.17 z m 7.240008,2.93 q -0.37,0 -0.62,-0.17 -0.24,-0.17 -0.24,-0.5 0,-0.32 0.24,-0.5 0.25,-0.18 0.62,-0.18 h 2.67 V 7.2950053 h -2.67 q -0.37,0 -0.62,-0.17 -0.24,-0.18 -0.24,-0.5 0,-0.33 0.24,-0.5 0.25,-0.17 0.62,-0.17 h 3.13 q 1.07,0 1.07,1.08 V 24.325005 q 0,1.08 -1.07,1.08 z"
     id="text6"
     aria-label="[I]" />
</svg>
