<svg width="164" height="56" viewBox="0 0 164 56" fill="none" xmlns="http://www.w3.org/2000/svg">
<rect width="164" height="56" rx="8" fill="url(#paint0_linear_1_50)"/>
<rect x="1.05" y="1.05" width="161.9" height="53.9" rx="6.95" stroke="white" stroke-opacity="0.15" stroke-width="2.1"/>
<g filter="url(#filter0_d_1_50)">
<g clip-path="url(#clip0_1_50)">
<path fill-rule="evenodd" clip-rule="evenodd" d="M31.9999 8.00003C30.2195 12.3652 29.1385 15.2246 27.1562 19.46C28.3716 20.7483 29.8653 22.2431 32.288 23.9375C29.6833 22.8657 27.9078 21.7925 26.58 20.6758C24.0431 25.9695 20.0658 33.5073 11.9999 48C18.3379 44.341 23.2511 42.0841 27.83 41.2227C27.6341 40.3783 27.5295 39.4606 27.537 38.5078L27.5419 38.3076C27.6425 34.2461 29.7559 31.1229 32.2587 31.335C34.7616 31.5471 36.7099 35.0127 36.6093 39.0742C36.5904 39.8393 36.5014 40.5744 36.3505 41.2569C40.8801 42.1433 45.7471 44.3901 51.9999 48C50.7668 45.7298 49.6624 43.6844 48.6113 41.7354C46.9556 40.4521 45.2295 38.7827 41.707 36.9746C44.1282 37.6038 45.8635 38.3313 47.2148 39.1426C36.528 19.2458 35.6647 16.6001 31.9999 8.00003Z" fill="#1793D1"/>
<path fill-rule="evenodd" clip-rule="evenodd" d="M43.2581 31.7747C34.5883 20.0073 32.5787 10.5231 32.0697 8.25887C36.6944 18.9259 36.6628 19.0568 43.2581 31.7747Z" fill="white" fill-opacity="0.16568"/>
<path fill-rule="evenodd" clip-rule="evenodd" d="M32.0781 8.15627C31.8532 8.70905 31.6411 9.24799 31.4336 9.75783C31.2059 10.317 30.9846 10.8556 30.7695 11.3789C30.5544 11.9022 30.3363 12.3983 30.125 12.9024C29.9136 13.4065 29.7163 13.9048 29.5 14.4063C29.2836 14.9077 29.0464 15.4144 28.8164 15.9297C28.5863 16.4451 28.3462 16.9659 28.0937 17.5117C27.8412 18.0576 27.5766 18.6376 27.2929 19.2305C27.2545 19.3109 27.2149 19.4029 27.1757 19.4844C28.3879 20.7684 29.8822 22.2515 32.2929 23.9375C29.6883 22.8657 27.9176 21.7924 26.5898 20.6758C26.5206 20.8171 26.4658 20.9413 26.3945 21.086C26.1319 21.6301 25.8504 22.1689 25.5547 22.7656C25.4841 22.9058 25.4318 23.0323 25.3593 23.1758C25.0467 23.8032 24.7181 24.4527 24.3633 25.1484C24.2929 25.2854 24.2205 25.3992 24.1484 25.5391C23.9336 25.9558 23.2484 27.2703 22.5468 28.6055C22.1378 29.3855 21.8165 30.0244 21.3554 30.8906C21.2247 31.1395 20.9558 31.6376 20.8867 31.7695C25.9647 28.9111 31.4431 24.7592 41.3945 28.3125C40.8962 27.3687 40.4185 26.4884 39.9883 25.6563C39.558 24.8241 39.168 24.0495 38.7968 23.3125C38.4257 22.5756 38.0827 21.8808 37.7617 21.2227C37.4407 20.5646 37.1431 19.9434 36.8633 19.3477C36.5834 18.7519 36.3101 18.1787 36.0625 17.6289C35.8148 17.0792 35.5837 16.5476 35.3593 16.0274C35.1349 15.5071 34.9249 14.9915 34.7148 14.4844C34.5047 13.9773 34.2946 13.4909 34.0898 12.9805C34.0007 12.7584 33.9252 12.5219 33.8359 12.2969C33.281 10.9938 32.7362 9.70217 32.0781 8.15627Z" fill="url(#paint1_linear_1_50)"/>
<path fill-rule="evenodd" clip-rule="evenodd" d="M31.9999 8.00003C30.2195 12.3652 29.1385 15.2246 27.1562 19.46C28.3716 20.7483 29.8653 22.2431 32.288 23.9375C29.6833 22.8657 27.9078 21.7925 26.58 20.6758C24.0431 25.9695 20.0658 33.5073 11.9999 48C18.3379 44.341 23.2511 42.0841 27.83 41.2227C27.6341 40.3783 27.5295 39.4606 27.537 38.5078L27.5419 38.3076C27.6425 34.2461 29.7559 31.1229 32.2587 31.335C34.7616 31.5471 36.7099 35.0127 36.6093 39.0742C36.5904 39.8393 36.5014 40.5744 36.3505 41.2569C40.8801 42.1433 45.7471 44.3901 51.9999 48C50.7668 45.7298 49.6624 43.6844 48.6113 41.7354C46.9556 40.4521 45.2295 38.7827 41.707 36.9746C44.1282 37.6038 45.8635 38.3313 47.2148 39.1426C36.528 19.2458 35.6647 16.6001 31.9999 8.00003Z" fill="#1793D1"/>
<path fill-rule="evenodd" clip-rule="evenodd" d="M43.2581 31.7747C34.5883 20.0073 32.5787 10.5231 32.0697 8.25887C36.6944 18.9259 36.6628 19.0568 43.2581 31.7747Z" fill="white" fill-opacity="0.16568"/>
<path fill-rule="evenodd" clip-rule="evenodd" d="M32.0781 8.15627C31.8532 8.70905 31.6411 9.24799 31.4336 9.75783C31.2059 10.317 30.9846 10.8556 30.7695 11.3789C30.5544 11.9022 30.3363 12.3983 30.125 12.9024C29.9136 13.4065 29.7163 13.9048 29.5 14.4063C29.2836 14.9077 29.0464 15.4144 28.8164 15.9297C28.5863 16.4451 28.3462 16.9659 28.0937 17.5117C27.8412 18.0576 27.5766 18.6376 27.2929 19.2305C27.2545 19.3109 27.2149 19.4029 27.1757 19.4844C28.3879 20.7684 29.8822 22.2515 32.2929 23.9375C29.6883 22.8657 27.9176 21.7924 26.5898 20.6758C26.5206 20.8171 26.4658 20.9413 26.3945 21.086C26.1319 21.6301 25.8504 22.1689 25.5547 22.7656C25.4841 22.9058 25.4318 23.0323 25.3593 23.1758C25.0467 23.8032 24.7181 24.4527 24.3633 25.1484C24.2929 25.2854 24.2205 25.3992 24.1484 25.5391C23.9336 25.9558 23.2484 27.2703 22.5468 28.6055C22.1378 29.3855 21.8165 30.0244 21.3554 30.8906C21.2247 31.1395 20.9558 31.6376 20.8867 31.7695C25.9647 28.9111 31.4431 24.7592 41.3945 28.3125C40.8962 27.3687 40.4185 26.4884 39.9883 25.6563C39.558 24.8241 39.168 24.0495 38.7968 23.3125C38.4257 22.5756 38.0827 21.8808 37.7617 21.2227C37.4407 20.5646 37.1431 19.9434 36.8633 19.3477C36.5834 18.7519 36.3101 18.1787 36.0625 17.6289C35.8148 17.0792 35.5837 16.5476 35.3593 16.0274C35.1349 15.5071 34.9249 14.9915 34.7148 14.4844C34.5047 13.9773 34.2946 13.4909 34.0898 12.9805C34.0007 12.7584 33.9252 12.5219 33.8359 12.2969C33.281 10.9938 32.7362 9.70217 32.0781 8.15627Z" fill="url(#paint2_linear_1_50)"/>
</g>
</g>
<g filter="url(#filter1_d_1_50)">
<path d="M62.2613 24.5H60.3977L64.5852 12.8636H66.6136L70.8011 24.5H68.9375L65.6477 14.9773H65.5568L62.2613 24.5ZM62.5738 19.9432H68.6193V21.4204H62.5738V19.9432ZM78.7173 15.7727L75.5525 24.5H73.7344L70.5639 15.7727H72.3878L74.598 22.4886H74.6889L76.8934 15.7727H78.7173ZM82.6037 24.6932C82.0506 24.6932 81.5506 24.5909 81.1037 24.3864C80.6567 24.178 80.3025 23.8769 80.0412 23.4829C79.7836 23.089 79.6548 22.6061 79.6548 22.0341C79.6548 21.5417 79.7495 21.1364 79.9389 20.8182C80.1283 20.5 80.384 20.2481 80.7059 20.0625C81.0279 19.8769 81.3878 19.7367 81.7855 19.642C82.1832 19.5473 82.5885 19.4754 83.0014 19.4261C83.5241 19.3655 83.9484 19.3163 84.2741 19.2784C84.5999 19.2367 84.8366 19.1704 84.9844 19.0795C85.1321 18.9886 85.2059 18.8409 85.2059 18.6364V18.5966C85.2059 18.1004 85.0658 17.7159 84.7855 17.4432C84.509 17.1704 84.0961 17.0341 83.5469 17.0341C82.9749 17.0341 82.5241 17.161 82.1946 17.4148C81.8688 17.6648 81.6434 17.9432 81.5184 18.25L79.9219 17.8864C80.1112 17.3561 80.3878 16.928 80.7514 16.6023C81.1188 16.2727 81.5412 16.0341 82.0184 15.8864C82.4957 15.7348 82.9976 15.6591 83.5241 15.6591C83.8726 15.6591 84.2419 15.7008 84.6321 15.7841C85.026 15.8636 85.3934 16.0114 85.7344 16.2273C86.079 16.4432 86.3612 16.7519 86.5809 17.1534C86.8006 17.5511 86.9105 18.0682 86.9105 18.7045V24.5H85.2514V23.3068H85.1832C85.0734 23.5265 84.9086 23.7424 84.6889 23.9545C84.4692 24.1667 84.187 24.3428 83.8423 24.4829C83.4976 24.6231 83.0847 24.6932 82.6037 24.6932ZM82.973 23.3295C83.4427 23.3295 83.8442 23.2367 84.1775 23.0511C84.5147 22.8655 84.7703 22.6231 84.9446 22.3239C85.1226 22.0208 85.2116 21.697 85.2116 21.3523V20.2273C85.151 20.2879 85.0336 20.3447 84.8594 20.3977C84.6889 20.447 84.4938 20.4905 84.2741 20.5284C84.0544 20.5625 83.8404 20.5947 83.6321 20.625C83.4237 20.6515 83.2495 20.6742 83.1094 20.6932C82.7798 20.7348 82.4787 20.8049 82.2059 20.9034C81.937 21.0019 81.7211 21.1439 81.5582 21.3295C81.3991 21.5114 81.3196 21.7538 81.3196 22.0568C81.3196 22.4773 81.4749 22.7954 81.7855 23.0114C82.0961 23.2235 82.4919 23.3295 82.973 23.3295ZM89.1733 24.5V15.7727H90.8721V24.5H89.1733ZM90.0312 14.4261C89.7358 14.4261 89.482 14.3276 89.2699 14.1307C89.0615 13.9299 88.9574 13.6913 88.9574 13.4148C88.9574 13.1345 89.0615 12.8958 89.2699 12.6989C89.482 12.4981 89.7358 12.3977 90.0312 12.3977C90.3267 12.3977 90.5786 12.4981 90.7869 12.6989C90.999 12.8958 91.1051 13.1345 91.1051 13.4148C91.1051 13.6913 90.999 13.9299 90.7869 14.1307C90.5786 14.3276 90.3267 14.4261 90.0312 14.4261ZM94.8565 12.8636V24.5H93.1576V12.8636H94.8565ZM99.6818 24.6932C99.1288 24.6932 98.6288 24.5909 98.1818 24.3864C97.7348 24.178 97.3807 23.8769 97.1193 23.4829C96.8617 23.089 96.7329 22.6061 96.7329 22.0341C96.7329 21.5417 96.8276 21.1364 97.017 20.8182C97.2064 20.5 97.4621 20.2481 97.7841 20.0625C98.106 19.8769 98.4659 19.7367 98.8636 19.642C99.2613 19.5473 99.6666 19.4754 100.08 19.4261C100.602 19.3655 101.026 19.3163 101.352 19.2784C101.678 19.2367 101.915 19.1704 102.062 19.0795C102.21 18.9886 102.284 18.8409 102.284 18.6364V18.5966C102.284 18.1004 102.144 17.7159 101.864 17.4432C101.587 17.1704 101.174 17.0341 100.625 17.0341C100.053 17.0341 99.6022 17.161 99.2727 17.4148C98.9469 17.6648 98.7216 17.9432 98.5966 18.25L97 17.8864C97.1894 17.3561 97.4659 16.928 97.8295 16.6023C98.1969 16.2727 98.6193 16.0341 99.0966 15.8864C99.5738 15.7348 100.076 15.6591 100.602 15.6591C100.951 15.6591 101.32 15.7008 101.71 15.7841C102.104 15.8636 102.472 16.0114 102.812 16.2273C103.157 16.4432 103.439 16.7519 103.659 17.1534C103.879 17.5511 103.989 18.0682 103.989 18.7045V24.5H102.33V23.3068H102.261C102.151 23.5265 101.987 23.7424 101.767 23.9545C101.547 24.1667 101.265 24.3428 100.92 24.4829C100.576 24.6231 100.163 24.6932 99.6818 24.6932ZM100.051 23.3295C100.521 23.3295 100.922 23.2367 101.256 23.0511C101.593 22.8655 101.848 22.6231 102.023 22.3239C102.201 22.0208 102.29 21.697 102.29 21.3523V20.2273C102.229 20.2879 102.112 20.3447 101.937 20.3977C101.767 20.447 101.572 20.4905 101.352 20.5284C101.133 20.5625 100.919 20.5947 100.71 20.625C100.502 20.6515 100.328 20.6742 100.187 20.6932C99.8579 20.7348 99.5568 20.8049 99.2841 20.9034C99.0151 21.0019 98.7992 21.1439 98.6363 21.3295C98.4772 21.5114 98.3977 21.7538 98.3977 22.0568C98.3977 22.4773 98.553 22.7954 98.8636 23.0114C99.1742 23.2235 99.57 23.3295 100.051 23.3295ZM106.388 24.5V12.8636H108.087V17.1875H108.189C108.287 17.0057 108.429 16.7954 108.615 16.5568C108.801 16.3182 109.058 16.1098 109.388 15.9318C109.717 15.75 110.153 15.6591 110.695 15.6591C111.399 15.6591 112.028 15.8371 112.581 16.1932C113.134 16.5492 113.568 17.0625 113.882 17.7329C114.2 18.4034 114.359 19.2102 114.359 20.1534C114.359 21.0966 114.202 21.9053 113.888 22.5795C113.573 23.25 113.142 23.767 112.592 24.1307C112.043 24.4905 111.416 24.6704 110.712 24.6704C110.181 24.6704 109.748 24.5814 109.41 24.4034C109.077 24.2254 108.816 24.017 108.626 23.7784C108.437 23.5398 108.291 23.3276 108.189 23.142H108.047V24.5H106.388ZM108.053 20.1364C108.053 20.75 108.142 21.2879 108.32 21.75C108.498 22.2121 108.755 22.5739 109.092 22.8352C109.429 23.0928 109.842 23.2216 110.331 23.2216C110.839 23.2216 111.263 23.0871 111.604 22.8182C111.945 22.5454 112.202 22.1761 112.376 21.7102C112.554 21.2443 112.643 20.7197 112.643 20.1364C112.643 19.5606 112.556 19.0436 112.382 18.5852C112.212 18.1269 111.954 17.7651 111.609 17.5C111.268 17.2348 110.842 17.1023 110.331 17.1023C109.839 17.1023 109.422 17.2292 109.081 17.4829C108.744 17.7367 108.488 18.0909 108.314 18.5454C108.14 19 108.053 19.5303 108.053 20.1364ZM117.966 12.8636V24.5H116.267V12.8636H117.966ZM124.013 24.6761C123.153 24.6761 122.412 24.4924 121.791 24.125C121.174 23.7538 120.696 23.2329 120.359 22.5625C120.026 21.8883 119.859 21.0985 119.859 20.1932C119.859 19.2992 120.026 18.5114 120.359 17.8295C120.696 17.1477 121.166 16.6155 121.768 16.2329C122.374 15.8504 123.083 15.6591 123.893 15.6591C124.386 15.6591 124.863 15.7405 125.325 15.9034C125.787 16.0663 126.202 16.322 126.57 16.6704C126.937 17.0189 127.227 17.4716 127.439 18.0284C127.651 18.5814 127.757 19.2538 127.757 20.0454V20.6477H120.82V19.375H126.092C126.092 18.928 126.001 18.5322 125.82 18.1875C125.638 17.839 125.382 17.5644 125.053 17.3636C124.727 17.1629 124.344 17.0625 123.905 17.0625C123.428 17.0625 123.011 17.1799 122.655 17.4148C122.303 17.6458 122.03 17.9489 121.837 18.3239C121.647 18.6951 121.553 19.0985 121.553 19.5341V20.5284C121.553 21.1117 121.655 21.6079 121.859 22.017C122.068 22.4261 122.357 22.7386 122.729 22.9545C123.1 23.1667 123.534 23.2727 124.03 23.2727C124.352 23.2727 124.645 23.2273 124.91 23.1364C125.176 23.0417 125.405 22.9015 125.598 22.7159C125.791 22.5303 125.939 22.3011 126.041 22.0284L127.649 22.3182C127.52 22.7917 127.289 23.2064 126.956 23.5625C126.626 23.9148 126.212 24.1894 125.712 24.3864C125.215 24.5795 124.649 24.6761 124.013 24.6761ZM137.553 24.6761C136.734 24.6761 136.02 24.4886 135.41 24.1136C134.801 23.7386 134.327 23.214 133.99 22.5398C133.653 21.8655 133.484 21.0776 133.484 20.1761C133.484 19.2708 133.653 18.4792 133.99 17.8011C134.327 17.1231 134.801 16.5966 135.41 16.2216C136.02 15.8466 136.734 15.6591 137.553 15.6591C138.371 15.6591 139.085 15.8466 139.695 16.2216C140.304 16.5966 140.778 17.1231 141.115 17.8011C141.452 18.4792 141.621 19.2708 141.621 20.1761C141.621 21.0776 141.452 21.8655 141.115 22.5398C140.778 23.214 140.304 23.7386 139.695 24.1136C139.085 24.4886 138.371 24.6761 137.553 24.6761ZM137.558 23.25C138.089 23.25 138.528 23.1098 138.876 22.8295C139.225 22.5492 139.482 22.1761 139.649 21.7102C139.82 21.2443 139.905 20.7311 139.905 20.1704C139.905 19.6136 139.82 19.1023 139.649 18.6364C139.482 18.1667 139.225 17.7898 138.876 17.5057C138.528 17.2216 138.089 17.0795 137.558 17.0795C137.024 17.0795 136.581 17.2216 136.229 17.5057C135.88 17.7898 135.621 18.1667 135.45 18.6364C135.284 19.1023 135.2 19.6136 135.2 20.1704C135.2 20.7311 135.284 21.2443 135.45 21.7102C135.621 22.1761 135.88 22.5492 136.229 22.8295C136.581 23.1098 137.024 23.25 137.558 23.25ZM145.216 19.3182V24.5H143.517V15.7727H145.148V17.1932H145.256C145.456 16.7311 145.771 16.3598 146.199 16.0795C146.631 15.7992 147.174 15.6591 147.83 15.6591C148.424 15.6591 148.945 15.7841 149.392 16.0341C149.839 16.2803 150.186 16.6477 150.432 17.1364C150.678 17.625 150.801 18.2292 150.801 18.9489V24.5H149.102V19.1534C149.102 18.5208 148.937 18.0265 148.608 17.6704C148.278 17.3106 147.826 17.1307 147.25 17.1307C146.856 17.1307 146.506 17.2159 146.199 17.3864C145.896 17.5568 145.655 17.8068 145.477 18.1364C145.303 18.4621 145.216 18.8561 145.216 19.3182Z" fill="#262323"/>
<path d="M66.1697 34.2273V36.4006H60.3199V34.2273H66.1697ZM61.5454 32.0057H64.4975V40.5842C64.4975 40.7653 64.5257 40.9122 64.582 41.0248C64.6424 41.1335 64.7289 41.212 64.8416 41.2603C64.9543 41.3046 65.0891 41.3267 65.2461 41.3267C65.3588 41.3267 65.4775 41.3166 65.6023 41.2965C65.731 41.2724 65.8276 41.2522 65.892 41.2361L66.3388 43.3672C66.1979 43.4074 65.9987 43.4577 65.7411 43.5181C65.4876 43.5785 65.1837 43.6167 64.8295 43.6328C64.1373 43.665 63.5437 43.5845 63.0486 43.3913C62.5576 43.1941 62.1813 42.8882 61.9197 42.4737C61.6622 42.0592 61.5374 41.538 61.5454 40.9101V32.0057ZM70.8272 38.2116V43.5H67.8752V31.1364H70.7306V35.9297H70.8333C71.0425 35.3582 71.3846 34.9114 71.8595 34.5895C72.3385 34.2675 72.924 34.1065 73.6163 34.1065C74.2683 34.1065 74.8357 34.2514 75.3187 34.5412C75.8016 34.8269 76.1759 35.2314 76.4416 35.7546C76.7112 36.2778 76.844 36.8895 76.84 37.5898V43.5H73.8879V38.1694C73.892 37.6542 73.7632 37.2518 73.5016 36.962C73.24 36.6722 72.8717 36.5273 72.3968 36.5273C72.0869 36.5273 71.8133 36.5958 71.5758 36.7326C71.3424 36.8654 71.1592 37.0566 71.0264 37.3061C70.8976 37.5556 70.8312 37.8575 70.8272 38.2116ZM83.0173 43.6751C82.0474 43.6751 81.2102 43.4839 80.5059 43.1016C79.8056 42.7152 79.2663 42.1658 78.888 41.4535C78.5137 40.7371 78.3266 39.8859 78.3266 38.8998C78.3266 37.942 78.5158 37.1049 78.8941 36.3885C79.2724 35.6681 79.8056 35.1087 80.4939 34.7102C81.1821 34.3078 81.993 34.1065 82.9267 34.1065C83.5868 34.1065 84.1905 34.2092 84.7378 34.4144C85.2852 34.6197 85.7581 34.9235 86.1565 35.326C86.5549 35.7284 86.8648 36.2255 87.0862 36.8171C87.3075 37.4047 87.4182 38.0788 87.4182 38.8395V39.576H79.3589V37.8615H84.6714C84.6674 37.5476 84.5929 37.2679 84.448 37.0224C84.3032 36.7769 84.1039 36.5857 83.8504 36.4489C83.6009 36.308 83.3131 36.2376 82.9871 36.2376C82.6571 36.2376 82.3613 36.312 82.0997 36.4609C81.8381 36.6058 81.6308 36.805 81.4779 37.0586C81.3249 37.3081 81.2444 37.5918 81.2364 37.9098V39.6545C81.2364 40.0328 81.3109 40.3648 81.4598 40.6506C81.6087 40.9323 81.82 41.1516 82.0936 41.3086C82.3673 41.4655 82.6933 41.544 83.0716 41.544C83.3332 41.544 83.5707 41.5078 83.784 41.4354C83.9973 41.3629 84.1804 41.2563 84.3333 41.1154C84.4863 40.9745 84.601 40.8015 84.6774 40.5962L87.388 40.6747C87.2753 41.2824 87.0278 41.8117 86.6455 42.2624C86.2672 42.7092 85.7701 43.0573 85.1544 43.3068C84.5386 43.5523 83.8262 43.6751 83.0173 43.6751ZM113.173 31.1364H116.156V39.1111C116.156 40.0328 115.936 40.8357 115.497 41.5199C115.059 42.2 114.447 42.7273 113.662 43.1016C112.877 43.4718 111.966 43.6569 110.928 43.6569C109.877 43.6569 108.959 43.4718 108.175 43.1016C107.39 42.7273 106.78 42.2 106.345 41.5199C105.911 40.8357 105.694 40.0328 105.694 39.1111V31.1364H108.682V38.8516C108.682 39.2782 108.774 39.6585 108.959 39.9925C109.149 40.3266 109.412 40.5882 109.75 40.7773C110.088 40.9665 110.481 41.0611 110.928 41.0611C111.374 41.0611 111.765 40.9665 112.099 40.7773C112.437 40.5882 112.7 40.3266 112.89 39.9925C113.079 39.6585 113.173 39.2782 113.173 38.8516V31.1364ZM118.028 43.5V31.1364H123.136C124.061 31.1364 124.86 31.3034 125.532 31.6374C126.209 31.9674 126.73 32.4423 127.096 33.0621C127.462 33.6779 127.645 34.4084 127.645 35.2535C127.645 36.1108 127.458 36.8392 127.084 37.4389C126.71 38.0346 126.178 38.4893 125.49 38.8033C124.802 39.1132 123.987 39.2681 123.045 39.2681H119.815V36.9137H122.49C122.941 36.9137 123.317 36.8553 123.619 36.7386C123.925 36.6179 124.156 36.4368 124.313 36.1953C124.47 35.9498 124.548 35.6359 124.548 35.2535C124.548 34.8712 124.47 34.5553 124.313 34.3057C124.156 34.0522 123.925 33.863 123.619 33.7383C123.313 33.6095 122.936 33.5451 122.49 33.5451H121.017V43.5H118.028ZM124.989 37.8494L128.068 43.5H124.808L121.789 37.8494H124.989Z" fill="#1E96CF"/>
<path d="M95.2526 43.5H92.041L96.2125 31.1364H100.191L104.362 43.5H101.151L98.247 34.2514H98.1504L95.2526 43.5ZM94.824 38.6342H101.537V40.9041H94.824V38.6342Z" fill="#4B4B4B"/>
</g>
<defs>
<filter id="filter0_d_1_50" x="6.28571" y="2.28571" width="51.4286" height="51.4286" filterUnits="userSpaceOnUse" color-interpolation-filters="sRGB">
<feFlood flood-opacity="0" result="BackgroundImageFix"/>
<feColorMatrix in="SourceAlpha" type="matrix" values="0 0 0 0 0 0 0 0 0 0 0 0 0 0 0 0 0 0 127 0" result="hardAlpha"/>
<feOffset/>
<feGaussianBlur stdDeviation="2.85714"/>
<feComposite in2="hardAlpha" operator="out"/>
<feColorMatrix type="matrix" values="0 0 0 0 0 0 0 0 0 0 0 0 0 0 0 0 0 0 0.25 0"/>
<feBlend mode="normal" in2="BackgroundImageFix" result="effect1_dropShadow_1_50"/>
<feBlend mode="normal" in="SourceGraphic" in2="effect1_dropShadow_1_50" result="shape"/>
</filter>
<filter id="filter1_d_1_50" x="54.4" y="3.9" width="103.2" height="48.2" filterUnits="userSpaceOnUse" color-interpolation-filters="sRGB">
<feFlood flood-opacity="0" result="BackgroundImageFix"/>
<feColorMatrix in="SourceAlpha" type="matrix" values="0 0 0 0 0 0 0 0 0 0 0 0 0 0 0 0 0 0 127 0" result="hardAlpha"/>
<feOffset/>
<feGaussianBlur stdDeviation="2.8"/>
<feComposite in2="hardAlpha" operator="out"/>
<feColorMatrix type="matrix" values="0 0 0 0 0 0 0 0 0 0 0 0 0 0 0 0 0 0 0.25 0"/>
<feBlend mode="normal" in2="BackgroundImageFix" result="effect1_dropShadow_1_50"/>
<feBlend mode="normal" in="SourceGraphic" in2="effect1_dropShadow_1_50" result="shape"/>
</filter>
<linearGradient id="paint0_linear_1_50" x1="82" y1="0" x2="82" y2="56" gradientUnits="userSpaceOnUse">
<stop offset="0.0357143" stop-color="#E1E7EA"/>
<stop offset="1" stop-color="#EDEFF3"/>
</linearGradient>
<linearGradient id="paint1_linear_1_50" x1="32.0917" y1="12.7385" x2="26.6559" y2="29.2045" gradientUnits="userSpaceOnUse">
<stop stop-color="white" stop-opacity="0"/>
<stop offset="1" stop-color="white" stop-opacity="0.27451"/>
</linearGradient>
<linearGradient id="paint2_linear_1_50" x1="32.0917" y1="12.7385" x2="26.6559" y2="29.2045" gradientUnits="userSpaceOnUse">
<stop stop-color="white" stop-opacity="0"/>
<stop offset="1" stop-color="white" stop-opacity="0.27451"/>
</linearGradient>
<clipPath id="clip0_1_50">
<rect width="40" height="40" fill="white" transform="translate(12 8)"/>
</clipPath>
</defs>
</svg>
