<svg class="rich-terminal" viewBox="0 0 1031 440.4" xmlns="http://www.w3.org/2000/svg">
    <!-- Generated with Rich https://www.textualize.io -->
    <style>
    .terminal-4210805114-matrix {
        font-family: monospace;
        font-size: 20px;
        line-height: 24.4px;
        font-variant-east-asian: full-width;
    }

    .terminal-4210805114-title {
        font-size: 18px;
        font-weight: bold;
        font-family: arial;
    }

    .terminal-4210805114-r1 { fill: #e0e0e0 }
.terminal-4210805114-r2 { fill: #808080 }
.terminal-4210805114-r3 { fill: #c5c8c6 }
.terminal-4210805114-r4 { fill: #ddedf9 }
.terminal-4210805114-r5 { fill: #121212 }
.terminal-4210805114-r6 { fill: #0178d4 }
.terminal-4210805114-r7 { fill: #e1e1e1 }
.terminal-4210805114-r8 { fill: #1e1e1e }
.terminal-4210805114-r9 { fill: #3a3a3a }
.terminal-4210805114-r10 { fill: #4ebf71;font-weight: bold }
.terminal-4210805114-r11 { fill: #507bb3 }
.terminal-4210805114-r12 { fill: #454a50 }
.terminal-4210805114-r13 { fill: #1b1b1b;font-weight: bold }
.terminal-4210805114-r14 { fill: #dde6ed;font-weight: bold }
.terminal-4210805114-r15 { fill: #e2e3e3;font-weight: bold }
.terminal-4210805114-r16 { fill: #001541 }
.terminal-4210805114-r17 { fill: #000000 }
    </style>

    <defs>
    <clipPath id="terminal-4210805114-clip-terminal">
      <rect x="0" y="0" width="1011.5999999999999" height="389.4" />
    </clipPath>
    <clipPath id="terminal-4210805114-line-0">
    <rect x="0" y="1.5" width="1012.6" height="24.65"/>
            </clipPath>
<clipPath id="terminal-4210805114-line-1">
    <rect x="0" y="25.9" width="1012.6" height="24.65"/>
            </clipPath>
<clipPath id="terminal-4210805114-line-2">
    <rect x="0" y="50.3" width="1012.6" height="24.65"/>
            </clipPath>
<clipPath id="terminal-4210805114-line-3">
    <rect x="0" y="74.7" width="1012.6" height="24.65"/>
            </clipPath>
<clipPath id="terminal-4210805114-line-4">
    <rect x="0" y="99.1" width="1012.6" height="24.65"/>
            </clipPath>
<clipPath id="terminal-4210805114-line-5">
    <rect x="0" y="123.5" width="1012.6" height="24.65"/>
            </clipPath>
<clipPath id="terminal-4210805114-line-6">
    <rect x="0" y="147.9" width="1012.6" height="24.65"/>
            </clipPath>
<clipPath id="terminal-4210805114-line-7">
    <rect x="0" y="172.3" width="1012.6" height="24.65"/>
            </clipPath>
<clipPath id="terminal-4210805114-line-8">
    <rect x="0" y="196.7" width="1012.6" height="24.65"/>
            </clipPath>
<clipPath id="terminal-4210805114-line-9">
    <rect x="0" y="221.1" width="1012.6" height="24.65"/>
            </clipPath>
<clipPath id="terminal-4210805114-line-10">
    <rect x="0" y="245.5" width="1012.6" height="24.65"/>
            </clipPath>
<clipPath id="terminal-4210805114-line-11">
    <rect x="0" y="269.9" width="1012.6" height="24.65"/>
            </clipPath>
<clipPath id="terminal-4210805114-line-12">
    <rect x="0" y="294.3" width="1012.6" height="24.65"/>
            </clipPath>
<clipPath id="terminal-4210805114-line-13">
    <rect x="0" y="318.7" width="1012.6" height="24.65"/>
            </clipPath>
<clipPath id="terminal-4210805114-line-14">
    <rect x="0" y="343.1" width="1012.6" height="24.65"/>
            </clipPath>
    </defs>

    <rect fill="#292929" stroke="rgba(255,255,255,0.35)" stroke-width="1" x="1" y="1" width="1029" height="438.4" rx="8"/><text class="terminal-4210805114-title" fill="#c5c8c6" text-anchor="middle" x="514" y="27">pgtui</text>
            <g transform="translate(26,22)">
            <circle cx="0" cy="0" r="7" fill="#ff5f57"/>
            <circle cx="22" cy="0" r="7" fill="#febc2e"/>
            <circle cx="44" cy="0" r="7" fill="#28c840"/>
            </g>
        
    <g transform="translate(9, 41)" clip-path="url(#terminal-4210805114-clip-terminal)">
    <rect fill="#121212" x="0" y="1.5" width="12.2" height="24.65" shape-rendering="crispEdges"/><rect fill="#121212" x="12.2" y="1.5" width="976" height="24.65" shape-rendering="crispEdges"/><rect fill="#121212" x="988.2" y="1.5" width="24.4" height="24.65" shape-rendering="crispEdges"/><rect fill="#121212" x="0" y="25.9" width="12.2" height="24.65" shape-rendering="crispEdges"/><rect fill="#121212" x="12.2" y="25.9" width="12.2" height="24.65" shape-rendering="crispEdges"/><rect fill="#0178d4" x="24.4" y="25.9" width="951.6" height="24.65" shape-rendering="crispEdges"/><rect fill="#121212" x="976" y="25.9" width="12.2" height="24.65" shape-rendering="crispEdges"/><rect fill="#121212" x="988.2" y="25.9" width="24.4" height="24.65" shape-rendering="crispEdges"/><rect fill="#121212" x="0" y="50.3" width="12.2" height="24.65" shape-rendering="crispEdges"/><rect fill="#121212" x="12.2" y="50.3" width="12.2" height="24.65" shape-rendering="crispEdges"/><rect fill="#121212" x="24.4" y="50.3" width="951.6" height="24.65" shape-rendering="crispEdges"/><rect fill="#121212" x="976" y="50.3" width="12.2" height="24.65" shape-rendering="crispEdges"/><rect fill="#121212" x="988.2" y="50.3" width="24.4" height="24.65" shape-rendering="crispEdges"/><rect fill="#121212" x="0" y="74.7" width="12.2" height="24.65" shape-rendering="crispEdges"/><rect fill="#121212" x="12.2" y="74.7" width="12.2" height="24.65" shape-rendering="crispEdges"/><rect fill="#121212" x="24.4" y="74.7" width="951.6" height="24.65" shape-rendering="crispEdges"/><rect fill="#121212" x="976" y="74.7" width="12.2" height="24.65" shape-rendering="crispEdges"/><rect fill="#121212" x="988.2" y="74.7" width="24.4" height="24.65" shape-rendering="crispEdges"/><rect fill="#121212" x="0" y="99.1" width="12.2" height="24.65" shape-rendering="crispEdges"/><rect fill="#121212" x="12.2" y="99.1" width="12.2" height="24.65" shape-rendering="crispEdges"/><rect fill="#0178d4" x="24.4" y="99.1" width="12.2" height="24.65" shape-rendering="crispEdges"/><rect fill="#1b1b1b" x="36.6" y="99.1" width="927.2" height="24.65" shape-rendering="crispEdges"/><rect fill="#121212" x="963.8" y="99.1" width="12.2" height="24.65" shape-rendering="crispEdges"/><rect fill="#121212" x="976" y="99.1" width="12.2" height="24.65" shape-rendering="crispEdges"/><rect fill="#121212" x="988.2" y="99.1" width="24.4" height="24.65" shape-rendering="crispEdges"/><rect fill="#121212" x="0" y="123.5" width="12.2" height="24.65" shape-rendering="crispEdges"/><rect fill="#121212" x="12.2" y="123.5" width="12.2" height="24.65" shape-rendering="crispEdges"/><rect fill="#0178d4" x="24.4" y="123.5" width="12.2" height="24.65" shape-rendering="crispEdges"/><rect fill="#1b1b1b" x="36.6" y="123.5" width="24.4" height="24.65" shape-rendering="crispEdges"/><rect fill="#1b1b1b" x="61" y="123.5" width="134.2" height="24.65" shape-rendering="crispEdges"/><rect fill="#e1e1e1" x="195.2" y="123.5" width="12.2" height="24.65" shape-rendering="crispEdges"/><rect fill="#1b1b1b" x="207.4" y="123.5" width="732" height="24.65" shape-rendering="crispEdges"/><rect fill="#1b1b1b" x="939.4" y="123.5" width="24.4" height="24.65" shape-rendering="crispEdges"/><rect fill="#121212" x="963.8" y="123.5" width="12.2" height="24.65" shape-rendering="crispEdges"/><rect fill="#121212" x="976" y="123.5" width="12.2" height="24.65" shape-rendering="crispEdges"/><rect fill="#121212" x="988.2" y="123.5" width="24.4" height="24.65" shape-rendering="crispEdges"/><rect fill="#121212" x="0" y="147.9" width="12.2" height="24.65" shape-rendering="crispEdges"/><rect fill="#121212" x="12.2" y="147.9" width="12.2" height="24.65" shape-rendering="crispEdges"/><rect fill="#0178d4" x="24.4" y="147.9" width="12.2" height="24.65" shape-rendering="crispEdges"/><rect fill="#1b1b1b" x="36.6" y="147.9" width="927.2" height="24.65" shape-rendering="crispEdges"/><rect fill="#121212" x="963.8" y="147.9" width="12.2" height="24.65" shape-rendering="crispEdges"/><rect fill="#121212" x="976" y="147.9" width="12.2" height="24.65" shape-rendering="crispEdges"/><rect fill="#121212" x="988.2" y="147.9" width="24.4" height="24.65" shape-rendering="crispEdges"/><rect fill="#121212" x="0" y="172.3" width="12.2" height="24.65" shape-rendering="crispEdges"/><rect fill="#121212" x="12.2" y="172.3" width="12.2" height="24.65" shape-rendering="crispEdges"/><rect fill="#121212" x="24.4" y="172.3" width="951.6" height="24.65" shape-rendering="crispEdges"/><rect fill="#121212" x="976" y="172.3" width="12.2" height="24.65" shape-rendering="crispEdges"/><rect fill="#121212" x="988.2" y="172.3" width="24.4" height="24.65" shape-rendering="crispEdges"/><rect fill="#121212" x="0" y="196.7" width="12.2" height="24.65" shape-rendering="crispEdges"/><rect fill="#121212" x="12.2" y="196.7" width="12.2" height="24.65" shape-rendering="crispEdges"/><rect fill="#121212" x="24.4" y="196.7" width="951.6" height="24.65" shape-rendering="crispEdges"/><rect fill="#121212" x="976" y="196.7" width="12.2" height="24.65" shape-rendering="crispEdges"/><rect fill="#121212" x="988.2" y="196.7" width="24.4" height="24.65" shape-rendering="crispEdges"/><rect fill="#121212" x="0" y="221.1" width="12.2" height="24.65" shape-rendering="crispEdges"/><rect fill="#121212" x="12.2" y="221.1" width="12.2" height="24.65" shape-rendering="crispEdges"/><rect fill="#121212" x="24.4" y="221.1" width="12.2" height="24.65" shape-rendering="crispEdges"/><rect fill="#1b1b1b" x="36.6" y="221.1" width="134.2" height="24.65" shape-rendering="crispEdges"/><rect fill="#121212" x="170.8" y="221.1" width="12.2" height="24.65" shape-rendering="crispEdges"/><rect fill="#121212" x="183" y="221.1" width="793" height="24.65" shape-rendering="crispEdges"/><rect fill="#121212" x="976" y="221.1" width="12.2" height="24.65" shape-rendering="crispEdges"/><rect fill="#121212" x="988.2" y="221.1" width="24.4" height="24.65" shape-rendering="crispEdges"/><rect fill="#121212" x="0" y="245.5" width="12.2" height="24.65" shape-rendering="crispEdges"/><rect fill="#121212" x="12.2" y="245.5" width="12.2" height="24.65" shape-rendering="crispEdges"/><rect fill="#121212" x="24.4" y="245.5" width="12.2" height="24.65" shape-rendering="crispEdges"/><rect fill="#1b1b1b" x="36.6" y="245.5" width="12.2" height="24.65" shape-rendering="crispEdges"/><rect fill="#1b1b1b" x="48.8" y="245.5" width="12.2" height="24.65" shape-rendering="crispEdges"/><rect fill="#3a3a3a" x="61" y="245.5" width="12.2" height="24.65" shape-rendering="crispEdges"/><rect fill="#1b1b1b" x="73.2" y="245.5" width="12.2" height="24.65" shape-rendering="crispEdges"/><rect fill="#1b1b1b" x="85.4" y="245.5" width="61" height="24.65" shape-rendering="crispEdges"/><rect fill="#1b1b1b" x="146.4" y="245.5" width="24.4" height="24.65" shape-rendering="crispEdges"/><rect fill="#121212" x="170.8" y="245.5" width="12.2" height="24.65" shape-rendering="crispEdges"/><rect fill="#121212" x="183" y="245.5" width="402.6" height="24.65" shape-rendering="crispEdges"/><rect fill="#004578" x="585.6" y="245.5" width="183" height="24.65" shape-rendering="crispEdges"/><rect fill="#121212" x="768.6" y="245.5" width="12.2" height="24.65" shape-rendering="crispEdges"/><rect fill="#24292f" x="780.8" y="245.5" width="183" height="24.65" shape-rendering="crispEdges"/><rect fill="#121212" x="963.8" y="245.5" width="12.2" height="24.65" shape-rendering="crispEdges"/><rect fill="#121212" x="976" y="245.5" width="12.2" height="24.65" shape-rendering="crispEdges"/><rect fill="#121212" x="988.2" y="245.5" width="24.4" height="24.65" shape-rendering="crispEdges"/><rect fill="#121212" x="0" y="269.9" width="12.2" height="24.65" shape-rendering="crispEdges"/><rect fill="#121212" x="12.2" y="269.9" width="12.2" height="24.65" shape-rendering="crispEdges"/><rect fill="#121212" x="24.4" y="269.9" width="12.2" height="24.65" shape-rendering="crispEdges"/><rect fill="#1b1b1b" x="36.6" y="269.9" width="12.2" height="24.65" shape-rendering="crispEdges"/><rect fill="#1b1b1b" x="48.8" y="269.9" width="12.2" height="24.65" shape-rendering="crispEdges"/><rect fill="#3a3a3a" x="61" y="269.9" width="12.2" height="24.65" shape-rendering="crispEdges"/><rect fill="#1b1b1b" x="73.2" y="269.9" width="12.2" height="24.65" shape-rendering="crispEdges"/><rect fill="#1b1b1b" x="85.4" y="269.9" width="48.8" height="24.65" shape-rendering="crispEdges"/><rect fill="#1b1b1b" x="134.2" y="269.9" width="12.2" height="24.65" shape-rendering="crispEdges"/><rect fill="#1b1b1b" x="146.4" y="269.9" width="12.2" height="24.65" shape-rendering="crispEdges"/><rect fill="#1b1b1b" x="158.6" y="269.9" width="12.2" height="24.65" shape-rendering="crispEdges"/><rect fill="#121212" x="170.8" y="269.9" width="12.2" height="24.65" shape-rendering="crispEdges"/><rect fill="#121212" x="183" y="269.9" width="402.6" height="24.65" shape-rendering="crispEdges"/><rect fill="#004578" x="585.6" y="269.9" width="36.6" height="24.65" shape-rendering="crispEdges"/><rect fill="#004578" x="622.2" y="269.9" width="97.6" height="24.65" shape-rendering="crispEdges"/><rect fill="#004578" x="719.8" y="269.9" width="48.8" height="24.65" shape-rendering="crispEdges"/><rect fill="#121212" x="768.6" y="269.9" width="12.2" height="24.65" shape-rendering="crispEdges"/><rect fill="#24292f" x="780.8" y="269.9" width="36.6" height="24.65" shape-rendering="crispEdges"/><rect fill="#24292f" x="817.4" y="269.9" width="97.6" height="24.65" shape-rendering="crispEdges"/><rect fill="#24292f" x="915" y="269.9" width="48.8" height="24.65" shape-rendering="crispEdges"/><rect fill="#121212" x="963.8" y="269.9" width="12.2" height="24.65" shape-rendering="crispEdges"/><rect fill="#121212" x="976" y="269.9" width="12.2" height="24.65" shape-rendering="crispEdges"/><rect fill="#121212" x="988.2" y="269.9" width="24.4" height="24.65" shape-rendering="crispEdges"/><rect fill="#121212" x="0" y="294.3" width="12.2" height="24.65" shape-rendering="crispEdges"/><rect fill="#121212" x="12.2" y="294.3" width="12.2" height="24.65" shape-rendering="crispEdges"/><rect fill="#121212" x="24.4" y="294.3" width="12.2" height="24.65" shape-rendering="crispEdges"/><rect fill="#1b1b1b" x="36.6" y="294.3" width="12.2" height="24.65" shape-rendering="crispEdges"/><rect fill="#1b1b1b" x="48.8" y="294.3" width="12.2" height="24.65" shape-rendering="crispEdges"/><rect fill="#3a3a3a" x="61" y="294.3" width="12.2" height="24.65" shape-rendering="crispEdges"/><rect fill="#1b1b1b" x="73.2" y="294.3" width="12.2" height="24.65" shape-rendering="crispEdges"/><rect fill="#1b1b1b" x="85.4" y="294.3" width="61" height="24.65" shape-rendering="crispEdges"/><rect fill="#1b1b1b" x="146.4" y="294.3" width="24.4" height="24.65" shape-rendering="crispEdges"/><rect fill="#121212" x="170.8" y="294.3" width="12.2" height="24.65" shape-rendering="crispEdges"/><rect fill="#121212" x="183" y="294.3" width="402.6" height="24.65" shape-rendering="crispEdges"/><rect fill="#004578" x="585.6" y="294.3" width="183" height="24.65" shape-rendering="crispEdges"/><rect fill="#121212" x="768.6" y="294.3" width="12.2" height="24.65" shape-rendering="crispEdges"/><rect fill="#24292f" x="780.8" y="294.3" width="183" height="24.65" shape-rendering="crispEdges"/><rect fill="#121212" x="963.8" y="294.3" width="12.2" height="24.65" shape-rendering="crispEdges"/><rect fill="#121212" x="976" y="294.3" width="12.2" height="24.65" shape-rendering="crispEdges"/><rect fill="#121212" x="988.2" y="294.3" width="24.4" height="24.65" shape-rendering="crispEdges"/><rect fill="#121212" x="0" y="318.7" width="12.2" height="24.65" shape-rendering="crispEdges"/><rect fill="#121212" x="12.2" y="318.7" width="12.2" height="24.65" shape-rendering="crispEdges"/><rect fill="#121212" x="24.4" y="318.7" width="12.2" height="24.65" shape-rendering="crispEdges"/><rect fill="#1b1b1b" x="36.6" y="318.7" width="134.2" height="24.65" shape-rendering="crispEdges"/><rect fill="#121212" x="170.8" y="318.7" width="12.2" height="24.65" shape-rendering="crispEdges"/><rect fill="#121212" x="183" y="318.7" width="793" height="24.65" shape-rendering="crispEdges"/><rect fill="#121212" x="976" y="318.7" width="12.2" height="24.65" shape-rendering="crispEdges"/><rect fill="#121212" x="988.2" y="318.7" width="24.4" height="24.65" shape-rendering="crispEdges"/><rect fill="#121212" x="0" y="343.1" width="12.2" height="24.65" shape-rendering="crispEdges"/><rect fill="#121212" x="12.2" y="343.1" width="12.2" height="24.65" shape-rendering="crispEdges"/><rect fill="#121212" x="24.4" y="343.1" width="951.6" height="24.65" shape-rendering="crispEdges"/><rect fill="#121212" x="976" y="343.1" width="12.2" height="24.65" shape-rendering="crispEdges"/><rect fill="#121212" x="988.2" y="343.1" width="24.4" height="24.65" shape-rendering="crispEdges"/><rect fill="#121212" x="0" y="367.5" width="12.2" height="24.65" shape-rendering="crispEdges"/><rect fill="#121212" x="12.2" y="367.5" width="976" height="24.65" shape-rendering="crispEdges"/><rect fill="#121212" x="988.2" y="367.5" width="24.4" height="24.65" shape-rendering="crispEdges"/>
    <g class="terminal-4210805114-matrix">
    <text class="terminal-4210805114-r2" x="12.2" y="20" textLength="976" clip-path="url(#terminal-4210805114-line-0)">╭──────────────────────────────────────────────────────────────────────────────╮</text><text class="terminal-4210805114-r3" x="1012.6" y="20" textLength="12.2" clip-path="url(#terminal-4210805114-line-0)">
</text><text class="terminal-4210805114-r2" x="12.2" y="44.4" textLength="12.2" clip-path="url(#terminal-4210805114-line-1)">│</text><text class="terminal-4210805114-r4" x="24.4" y="44.4" textLength="951.6" clip-path="url(#terminal-4210805114-line-1)">&#160;&#160;&#160;&#160;&#160;&#160;&#160;&#160;&#160;&#160;&#160;&#160;&#160;&#160;&#160;&#160;&#160;&#160;&#160;&#160;&#160;&#160;&#160;&#160;&#160;&#160;&#160;&#160;&#160;&#160;&#160;&#160;&#160;Export&#160;query&#160;&#160;&#160;&#160;&#160;&#160;&#160;&#160;&#160;&#160;&#160;&#160;&#160;&#160;&#160;&#160;&#160;&#160;&#160;&#160;&#160;&#160;&#160;&#160;&#160;&#160;&#160;&#160;&#160;&#160;&#160;&#160;&#160;</text><text class="terminal-4210805114-r2" x="976" y="44.4" textLength="12.2" clip-path="url(#terminal-4210805114-line-1)">│</text><text class="terminal-4210805114-r3" x="1012.6" y="44.4" textLength="12.2" clip-path="url(#terminal-4210805114-line-1)">
</text><text class="terminal-4210805114-r2" x="12.2" y="68.8" textLength="12.2" clip-path="url(#terminal-4210805114-line-2)">│</text><text class="terminal-4210805114-r2" x="976" y="68.8" textLength="12.2" clip-path="url(#terminal-4210805114-line-2)">│</text><text class="terminal-4210805114-r3" x="1012.6" y="68.8" textLength="12.2" clip-path="url(#terminal-4210805114-line-2)">
</text><text class="terminal-4210805114-r2" x="12.2" y="93.2" textLength="12.2" clip-path="url(#terminal-4210805114-line-3)">│</text><text class="terminal-4210805114-r1" x="24.4" y="93.2" textLength="951.6" clip-path="url(#terminal-4210805114-line-3)">&#160;Export&#160;to:&#160;&#160;&#160;&#160;&#160;&#160;&#160;&#160;&#160;&#160;&#160;&#160;&#160;&#160;&#160;&#160;&#160;&#160;&#160;&#160;&#160;&#160;&#160;&#160;&#160;&#160;&#160;&#160;&#160;&#160;&#160;&#160;&#160;&#160;&#160;&#160;&#160;&#160;&#160;&#160;&#160;&#160;&#160;&#160;&#160;&#160;&#160;&#160;&#160;&#160;&#160;&#160;&#160;&#160;&#160;&#160;&#160;&#160;&#160;&#160;&#160;&#160;&#160;&#160;&#160;&#160;&#160;</text><text class="terminal-4210805114-r2" x="976" y="93.2" textLength="12.2" clip-path="url(#terminal-4210805114-line-3)">│</text><text class="terminal-4210805114-r3" x="1012.6" y="93.2" textLength="12.2" clip-path="url(#terminal-4210805114-line-3)">
</text><text class="terminal-4210805114-r2" x="12.2" y="117.6" textLength="12.2" clip-path="url(#terminal-4210805114-line-4)">│</text><text class="terminal-4210805114-r5" x="24.4" y="117.6" textLength="12.2" clip-path="url(#terminal-4210805114-line-4)">▊</text><text class="terminal-4210805114-r6" x="36.6" y="117.6" textLength="927.2" clip-path="url(#terminal-4210805114-line-4)">▔▔▔▔▔▔▔▔▔▔▔▔▔▔▔▔▔▔▔▔▔▔▔▔▔▔▔▔▔▔▔▔▔▔▔▔▔▔▔▔▔▔▔▔▔▔▔▔▔▔▔▔▔▔▔▔▔▔▔▔▔▔▔▔▔▔▔▔▔▔▔▔▔▔▔▔</text><text class="terminal-4210805114-r6" x="963.8" y="117.6" textLength="12.2" clip-path="url(#terminal-4210805114-line-4)">▎</text><text class="terminal-4210805114-r2" x="976" y="117.6" textLength="12.2" clip-path="url(#terminal-4210805114-line-4)">│</text><text class="terminal-4210805114-r3" x="1012.6" y="117.6" textLength="12.2" clip-path="url(#terminal-4210805114-line-4)">
</text><text class="terminal-4210805114-r2" x="12.2" y="142" textLength="12.2" clip-path="url(#terminal-4210805114-line-5)">│</text><text class="terminal-4210805114-r5" x="24.4" y="142" textLength="12.2" clip-path="url(#terminal-4210805114-line-5)">▊</text><text class="terminal-4210805114-r7" x="61" y="142" textLength="134.2" clip-path="url(#terminal-4210805114-line-5)">export.json</text><text class="terminal-4210805114-r6" x="963.8" y="142" textLength="12.2" clip-path="url(#terminal-4210805114-line-5)">▎</text><text class="terminal-4210805114-r2" x="976" y="142" textLength="12.2" clip-path="url(#terminal-4210805114-line-5)">│</text><text class="terminal-4210805114-r3" x="1012.6" y="142" textLength="12.2" clip-path="url(#terminal-4210805114-line-5)">
</text><text class="terminal-4210805114-r2" x="12.2" y="166.4" textLength="12.2" clip-path="url(#terminal-4210805114-line-6)">│</text><text class="terminal-4210805114-r5" x="24.4" y="166.4" textLength="12.2" clip-path="url(#terminal-4210805114-line-6)">▊</text><text class="terminal-4210805114-r6" x="36.6" y="166.4" textLength="927.2" clip-path="url(#terminal-4210805114-line-6)">▁▁▁▁▁▁▁▁▁▁▁▁▁▁▁▁▁▁▁▁▁▁▁▁▁▁▁▁▁▁▁▁▁▁▁▁▁▁▁▁▁▁▁▁▁▁▁▁▁▁▁▁▁▁▁▁▁▁▁▁▁▁▁▁▁▁▁▁▁▁▁▁▁▁▁▁</text><text class="terminal-4210805114-r6" x="963.8" y="166.4" textLength="12.2" clip-path="url(#terminal-4210805114-line-6)">▎</text><text class="terminal-4210805114-r2" x="976" y="166.4" textLength="12.2" clip-path="url(#terminal-4210805114-line-6)">│</text><text class="terminal-4210805114-r3" x="1012.6" y="166.4" textLength="12.2" clip-path="url(#terminal-4210805114-line-6)">
</text><text class="terminal-4210805114-r2" x="12.2" y="190.8" textLength="12.2" clip-path="url(#terminal-4210805114-line-7)">│</text><text class="terminal-4210805114-r2" x="976" y="190.8" textLength="12.2" clip-path="url(#terminal-4210805114-line-7)">│</text><text class="terminal-4210805114-r3" x="1012.6" y="190.8" textLength="12.2" clip-path="url(#terminal-4210805114-line-7)">
</text><text class="terminal-4210805114-r2" x="12.2" y="215.2" textLength="12.2" clip-path="url(#terminal-4210805114-line-8)">│</text><text class="terminal-4210805114-r1" x="24.4" y="215.2" textLength="951.6" clip-path="url(#terminal-4210805114-line-8)">&#160;Format:&#160;&#160;&#160;&#160;&#160;&#160;&#160;&#160;&#160;&#160;&#160;&#160;&#160;&#160;&#160;&#160;&#160;&#160;&#160;&#160;&#160;&#160;&#160;&#160;&#160;&#160;&#160;&#160;&#160;&#160;&#160;&#160;&#160;&#160;&#160;&#160;&#160;&#160;&#160;&#160;&#160;&#160;&#160;&#160;&#160;&#160;&#160;&#160;&#160;&#160;&#160;&#160;&#160;&#160;&#160;&#160;&#160;&#160;&#160;&#160;&#160;&#160;&#160;&#160;&#160;&#160;&#160;&#160;&#160;&#160;</text><text class="terminal-4210805114-r2" x="976" y="215.2" textLength="12.2" clip-path="url(#terminal-4210805114-line-8)">│</text><text class="terminal-4210805114-r3" x="1012.6" y="215.2" textLength="12.2" clip-path="url(#terminal-4210805114-line-8)">
</text><text class="terminal-4210805114-r2" x="12.2" y="239.6" textLength="12.2" clip-path="url(#terminal-4210805114-line-9)">│</text><text class="terminal-4210805114-r5" x="24.4" y="239.6" textLength="12.2" clip-path="url(#terminal-4210805114-line-9)">▊</text><text class="terminal-4210805114-r5" x="36.6" y="239.6" textLength="134.2" clip-path="url(#terminal-4210805114-line-9)">▔▔▔▔▔▔▔▔▔▔▔</text><text class="terminal-4210805114-r5" x="170.8" y="239.6" textLength="12.2" clip-path="url(#terminal-4210805114-line-9)">▎</text><text class="terminal-4210805114-r2" x="976" y="239.6" textLength="12.2" clip-path="url(#terminal-4210805114-line-9)">│</text><text class="terminal-4210805114-r3" x="1012.6" y="239.6" textLength="12.2" clip-path="url(#terminal-4210805114-line-9)">
</text><text class="terminal-4210805114-r2" x="12.2" y="264" textLength="12.2" clip-path="url(#terminal-4210805114-line-10)">│</text><text class="terminal-4210805114-r5" x="24.4" y="264" textLength="12.2" clip-path="url(#terminal-4210805114-line-10)">▊</text><text class="terminal-4210805114-r9" x="48.8" y="264" textLength="12.2" clip-path="url(#terminal-4210805114-line-10)">▐</text><text class="terminal-4210805114-r10" x="61" y="264" textLength="12.2" clip-path="url(#terminal-4210805114-line-10)">●</text><text class="terminal-4210805114-r9" x="73.2" y="264" textLength="12.2" clip-path="url(#terminal-4210805114-line-10)">▌</text><text class="terminal-4210805114-r7" x="85.4" y="264" textLength="61" clip-path="url(#terminal-4210805114-line-10)">&#160;JSON</text><text class="terminal-4210805114-r5" x="170.8" y="264" textLength="12.2" clip-path="url(#terminal-4210805114-line-10)">▎</text><text class="terminal-4210805114-r11" x="585.6" y="264" textLength="183" clip-path="url(#terminal-4210805114-line-10)">▔▔▔▔▔▔▔▔▔▔▔▔▔▔▔</text><text class="terminal-4210805114-r12" x="780.8" y="264" textLength="183" clip-path="url(#terminal-4210805114-line-10)">▔▔▔▔▔▔▔▔▔▔▔▔▔▔▔</text><text class="terminal-4210805114-r2" x="976" y="264" textLength="12.2" clip-path="url(#terminal-4210805114-line-10)">│</text><text class="terminal-4210805114-r3" x="1012.6" y="264" textLength="12.2" clip-path="url(#terminal-4210805114-line-10)">
</text><text class="terminal-4210805114-r2" x="12.2" y="288.4" textLength="12.2" clip-path="url(#terminal-4210805114-line-11)">│</text><text class="terminal-4210805114-r5" x="24.4" y="288.4" textLength="12.2" clip-path="url(#terminal-4210805114-line-11)">▊</text><text class="terminal-4210805114-r9" x="48.8" y="288.4" textLength="12.2" clip-path="url(#terminal-4210805114-line-11)">▐</text><text class="terminal-4210805114-r13" x="61" y="288.4" textLength="12.2" clip-path="url(#terminal-4210805114-line-11)">●</text><text class="terminal-4210805114-r9" x="73.2" y="288.4" textLength="12.2" clip-path="url(#terminal-4210805114-line-11)">▌</text><text class="terminal-4210805114-r7" x="85.4" y="288.4" textLength="48.8" clip-path="url(#terminal-4210805114-line-11)">&#160;CSV</text><text class="terminal-4210805114-r5" x="170.8" y="288.4" textLength="12.2" clip-path="url(#terminal-4210805114-line-11)">▎</text><text class="terminal-4210805114-r14" x="622.2" y="288.4" textLength="97.6" clip-path="url(#terminal-4210805114-line-11)">&#160;Export&#160;</text><text class="terminal-4210805114-r15" x="817.4" y="288.4" textLength="97.6" clip-path="url(#terminal-4210805114-line-11)">&#160;Cancel&#160;</text><text class="terminal-4210805114-r2" x="976" y="288.4" textLength="12.2" clip-path="url(#terminal-4210805114-line-11)">│</text><text class="terminal-4210805114-r3" x="1012.6" y="288.4" textLength="12.2" clip-path="url(#terminal-4210805114-line-11)">
</text><text class="terminal-4210805114-r2" x="12.2" y="312.8" textLength="12.2" clip-path="url(#terminal-4210805114-line-12)">│</text><text class="terminal-4210805114-r5" x="24.4" y="312.8" textLength="12.2" clip-path="url(#terminal-4210805114-line-12)">▊</text><text class="terminal-4210805114-r9" x="48.8" y="312.8" textLength="12.2" clip-path="url(#terminal-4210805114-line-12)">▐</text><text class="terminal-4210805114-r13" x="61" y="312.8" textLength="12.2" clip-path="url(#terminal-4210805114-line-12)">●</text><text class="terminal-4210805114-r9" x="73.2" y="312.8" textLength="12.2" clip-path="url(#terminal-4210805114-line-12)">▌</text><text class="terminal-4210805114-r7" x="85.4" y="312.8" textLength="61" clip-path="url(#terminal-4210805114-line-12)">&#160;TEXT</text><text class="terminal-4210805114-r5" x="170.8" y="312.8" textLength="12.2" clip-path="url(#terminal-4210805114-line-12)">▎</text><text class="terminal-4210805114-r16" x="585.6" y="312.8" textLength="183" clip-path="url(#terminal-4210805114-line-12)">▁▁▁▁▁▁▁▁▁▁▁▁▁▁▁</text><text class="terminal-4210805114-r17" x="780.8" y="312.8" textLength="183" clip-path="url(#terminal-4210805114-line-12)">▁▁▁▁▁▁▁▁▁▁▁▁▁▁▁</text><text class="terminal-4210805114-r2" x="976" y="312.8" textLength="12.2" clip-path="url(#terminal-4210805114-line-12)">│</text><text class="terminal-4210805114-r3" x="1012.6" y="312.8" textLength="12.2" clip-path="url(#terminal-4210805114-line-12)">
</text><text class="terminal-4210805114-r2" x="12.2" y="337.2" textLength="12.2" clip-path="url(#terminal-4210805114-line-13)">│</text><text class="terminal-4210805114-r5" x="24.4" y="337.2" textLength="12.2" clip-path="url(#terminal-4210805114-line-13)">▊</text><text class="terminal-4210805114-r5" x="36.6" y="337.2" textLength="134.2" clip-path="url(#terminal-4210805114-line-13)">▁▁▁▁▁▁▁▁▁▁▁</text><text class="terminal-4210805114-r5" x="170.8" y="337.2" textLength="12.2" clip-path="url(#terminal-4210805114-line-13)">▎</text><text class="terminal-4210805114-r2" x="976" y="337.2" textLength="12.2" clip-path="url(#terminal-4210805114-line-13)">│</text><text class="terminal-4210805114-r3" x="1012.6" y="337.2" textLength="12.2" clip-path="url(#terminal-4210805114-line-13)">
</text><text class="terminal-4210805114-r2" x="12.2" y="361.6" textLength="12.2" clip-path="url(#terminal-4210805114-line-14)">│</text><text class="terminal-4210805114-r2" x="976" y="361.6" textLength="12.2" clip-path="url(#terminal-4210805114-line-14)">│</text><text class="terminal-4210805114-r3" x="1012.6" y="361.6" textLength="12.2" clip-path="url(#terminal-4210805114-line-14)">
</text><text class="terminal-4210805114-r2" x="12.2" y="386" textLength="976" clip-path="url(#terminal-4210805114-line-15)">╰──────────────────────────────────────────────────────────────────────────────╯</text>
    </g>
    </g>
</svg>
