<svg width="179" height="166" viewBox="0 0 179 166" fill="none" xmlns="http://www.w3.org/2000/svg">
  <path id="crypticorn-logo"
    d="M141.197 58.517C138.79 53.9963 136.421 49.4551 134.013 44.8842L178.135 0.920738L178.114 0.889954C155.85 9.57087 133.902 18.1289 111.351 26.922C113.967 22.7619 116.238 19.1518 118.568 15.4476C117.957 15.1107 117.521 14.8294 117.051 14.6143C92.8757 3.52669 67.9336 3.09064 45.2866 13.5416C14.6315 27.6881 -3.72952 61.2925 0.639394 94.6148C4.43523 123.567 19.5277 145.03 45.9324 157.533C67.9963 167.981 90.6448 168.581 113.012 157.642C117.904 155.249 122.432 152.275 126.695 148.578C126.695 148.578 54.802 172.622 33.3656 101.139L27.6442 109.536C27.2605 108.292 26.9212 107.039 26.6262 105.778C26.2647 104.233 25.9697 102.676 25.7411 101.113C22.6707 80.1181 31.5716 57.9258 51.8679 45.4328C76.5232 30.257 108.495 37.4402 123.292 61.9889C131.453 75.5278 147.079 104.369 146.775 104.682C143.833 107.708 140.278 111.192 137.255 114.171C134.425 111.84 131.708 109.438 128.825 107.254C114.815 96.6404 99.157 89.7645 81.8073 86.838C79.7884 86.6562 80.5425 87.1302 79.7716 85.5909L63.5683 57.291L63.5364 59.6456C63.6034 72.748 63.5736 85.8508 63.5733 98.9536C63.5731 99.751 63.5733 100.549 63.5733 101.327C66.5505 101.525 69.1905 101.638 71.8179 101.884C92.3404 103.809 110.215 111.767 125.448 125.618C129.807 129.582 133.982 133.746 138.233 137.81C147.895 128.182 157.617 118.522 167.093 108.95C167.481 108.559 149.771 74.6163 141.197 58.517Z"
    fill="#003BCE" />
  <style>
    @media (prefers-color-scheme: dark) {
      #crypticorn-logo {
        fill: #fff;
      }
    }
  </style>
</svg>