<svg width="1000" height="172" viewBox="0 0 1000 172" fill="none" xmlns="http://www.w3.org/2000/svg">
<path d="M248.201 128.462C239.877 128.462 232.761 126.997 226.857 124.063C220.95 121.131 216.432 116.554 213.301 110.329C210.168 104.107 208.604 96.0802 208.604 86.25C208.604 71.9024 212.091 61.2794 219.068 54.3823C226.042 47.4852 235.754 44.0374 248.201 44.0374C254.937 44.0374 261.022 45.1872 266.453 47.4852C271.882 49.7862 276.204 53.2526 279.414 57.8904C282.625 62.5281 284.23 68.4145 284.23 75.5481H268.415C268.415 71.5856 267.562 68.2353 265.859 65.4999C264.153 62.766 261.795 60.6845 258.784 59.258C255.77 57.8316 252.322 57.1176 248.438 57.1176C243.046 57.1176 238.569 58.1685 235.002 60.2687C231.434 62.3704 228.798 65.4827 227.095 69.6029C225.389 73.726 224.538 78.8382 224.538 84.9425V87.5588C224.538 93.742 225.389 98.8958 227.095 103.016C228.798 107.139 231.414 110.231 234.942 112.291C238.469 114.354 242.969 115.382 248.438 115.382C252.559 115.382 256.167 114.69 259.259 113.302C262.351 111.916 264.748 109.854 266.453 107.119C268.157 104.384 269.01 101.036 269.01 97.0708H284.23C284.23 104.206 282.643 110.091 279.474 114.729C276.302 119.366 272.001 122.814 266.572 125.073C261.141 127.333 255.018 128.462 248.201 128.462Z" fill="#003BCE"/>
<path d="M300.103 127.036V45.4639H343.03C349.053 45.4639 354.048 46.4961 358.012 48.5562C361.975 50.6191 364.948 53.5508 366.931 57.3556C368.911 61.1604 369.903 65.6404 369.903 70.7914C369.903 76.1043 368.714 80.8008 366.336 84.8823C363.957 88.9666 360.469 92.0374 355.872 94.099L372.757 127.036H355.872L340.889 96.7139H315.562V127.036H300.103ZM315.562 83.7526H341.84C345.804 83.7526 348.857 82.6043 350.997 80.3048C353.137 78.0067 354.207 74.8356 354.207 70.7914C354.207 68.1765 353.732 65.9759 352.78 64.1925C351.829 62.4091 350.441 61.0414 348.619 60.091C346.794 59.139 344.535 58.6631 341.84 58.6631H315.562V83.7526Z" fill="#003BCE"/>
<path d="M407.217 127.036V93.861L375.825 45.4639H393.66L415.183 79.9478H415.778L437.063 45.4639H453.948L422.675 93.861V127.036H407.217Z" fill="#003BCE"/>
<path d="M466.016 127.036V45.4639H506.921C512.944 45.4639 517.92 46.5348 521.843 48.6751C525.767 50.8155 528.719 53.829 530.702 57.7126C532.683 61.5977 533.675 66.2339 533.675 71.6243C533.675 76.9358 532.644 81.5735 530.583 85.5375C528.521 89.5014 525.449 92.5722 521.367 94.7527C517.284 96.9332 512.191 98.0227 506.088 98.0227H481.474V127.036H466.016ZM481.474 84.8235H505.612C509.576 84.8235 512.647 83.6551 514.829 81.3155C517.008 78.9787 518.097 75.7474 518.097 71.6243C518.097 68.8503 517.623 66.5121 516.671 64.6082C515.72 62.7058 514.331 61.2407 512.509 60.2085C510.684 59.1792 508.386 58.6631 505.612 58.6631H481.474V84.8235Z" fill="#003BCE"/>
<path d="M568.811 127.036V58.7821H542.771V45.4639H610.43V58.7821H584.27V127.036H568.811Z" fill="#003BCE"/>
<path d="M623.295 127.036V45.4639H638.753V127.036H623.295Z" fill="#003BCE"/>
<path d="M694.64 128.462C686.317 128.462 679.2 126.997 673.295 124.063C667.389 121.131 662.872 116.554 659.741 110.329C656.608 104.107 655.043 96.0802 655.043 86.25C655.043 71.9024 658.531 61.2794 665.508 54.3823C672.482 47.4852 682.194 44.0374 694.64 44.0374C701.377 44.0374 707.462 45.1872 712.893 47.4852C718.322 49.7862 722.643 53.2526 725.854 57.8904C729.064 62.5281 730.67 68.4145 730.67 75.5481H714.854C714.854 71.5856 714.001 68.2353 712.298 65.4999C710.592 62.766 708.235 60.6845 705.223 59.258C702.21 57.8316 698.76 57.1176 694.878 57.1176C689.486 57.1176 685.008 58.1685 681.441 60.2687C677.874 62.3704 675.238 65.4827 673.533 69.6029C671.829 73.726 670.977 78.8382 670.977 84.9425V87.5588C670.977 93.742 671.829 98.8958 673.533 103.016C675.238 107.139 677.853 110.231 681.382 112.291C684.908 114.354 689.408 115.382 694.878 115.382C698.998 115.382 702.607 114.69 705.699 113.302C708.79 111.916 711.187 109.854 712.893 107.119C714.596 104.384 715.449 101.036 715.449 97.0708H730.67C730.67 104.206 729.083 110.091 725.913 114.729C722.742 119.366 718.441 122.814 713.012 125.073C707.58 127.333 701.457 128.462 694.64 128.462Z" fill="#003BCE"/>
<path d="M783.558 128.462C775.076 128.462 767.744 126.937 761.56 123.885C755.376 120.834 750.64 116.176 747.351 109.913C744.06 103.652 742.415 95.7634 742.415 86.25C742.415 76.6591 744.06 68.7514 747.351 62.5281C750.64 56.3062 755.376 51.6685 761.56 48.6149C767.744 45.5642 775.076 44.0374 783.558 44.0374C792.12 44.0374 799.471 45.5642 805.616 48.6149C811.759 51.6685 816.475 56.3062 819.767 62.5281C823.054 68.7514 824.701 76.6591 824.701 86.25C824.701 95.7634 823.054 103.652 819.767 109.913C816.475 116.176 811.759 120.834 805.616 123.885C799.471 126.937 792.12 128.462 783.558 128.462ZM783.558 115.382C787.68 115.382 791.305 114.789 794.438 113.599C797.569 112.41 800.205 110.647 802.346 108.307C804.486 105.971 806.11 103.076 807.221 99.6269C808.331 96.1791 808.886 92.1951 808.886 87.6778V85.0615C808.886 80.4639 808.331 76.4211 807.221 72.9317C806.11 69.4452 804.486 66.5321 802.346 64.1925C800.205 61.8557 797.569 60.0909 794.438 58.901C791.305 57.7126 787.68 57.1176 783.558 57.1176C779.435 57.1176 775.808 57.7126 772.679 58.901C769.546 60.0909 766.911 61.8557 764.771 64.1925C762.631 66.5321 761.025 69.4452 759.955 72.9317C758.884 76.4211 758.35 80.4639 758.35 85.0615V87.6778C758.35 92.1951 758.884 96.1791 759.955 99.6269C761.025 103.076 762.631 105.971 764.771 108.307C766.911 110.647 769.546 112.41 772.679 113.599C775.808 114.789 779.435 115.382 783.558 115.382Z" fill="#003BCE"/>
<path d="M840.612 127.036V45.4639H883.538C889.561 45.4639 894.555 46.4961 898.519 48.5562C902.483 50.6191 905.455 53.5508 907.438 57.3556C909.419 61.1604 910.411 65.6404 910.411 70.7914C910.411 76.1043 909.221 80.8008 906.844 84.8823C904.466 88.9666 900.976 92.0374 896.379 94.099L913.265 127.036H896.379L881.398 96.7139H856.069V127.036H840.612ZM856.069 83.7526H882.348C886.311 83.7526 889.364 82.6043 891.505 80.3048C893.645 78.0067 894.714 74.8356 894.714 70.7914C894.714 68.1765 894.238 65.9759 893.288 64.1925C892.336 62.4091 890.948 61.0414 889.126 60.091C887.301 59.139 885.042 58.6631 882.348 58.6631H856.069V83.7526Z" fill="#003BCE"/>
<path d="M927.034 127.036V45.4639H941.778L976.618 93.623C977.013 94.099 977.489 94.7527 978.046 95.5842C978.599 96.4171 979.115 97.2314 979.591 98.0227C980.067 98.8155 980.382 99.4492 980.543 99.9251H981.136V45.4639H996V127.036H981.374L946.416 78.5214C945.779 77.5695 945.048 76.4011 944.215 75.0134C943.384 73.6271 942.808 72.6551 942.491 72.1003H941.897V127.036H927.034Z" fill="#003BCE"/>
<path d="M144.197 61.517C141.79 56.9963 139.421 52.4551 137.013 47.8842L181.135 3.92074L181.114 3.88995C158.85 12.5709 136.902 21.1289 114.351 29.922C116.967 25.7619 119.238 22.1518 121.568 18.4476C120.957 18.1107 120.521 17.8294 120.051 17.6143C95.8757 6.52669 70.9336 6.09064 48.2866 16.5416C17.6315 30.6881 -0.729521 64.2925 3.63939 97.6148C7.43523 126.567 22.5277 148.03 48.9324 160.533C70.9963 170.981 93.6448 171.581 116.012 160.642C120.904 158.249 125.432 155.275 129.695 151.578C129.695 151.578 57.802 175.622 36.3656 104.139L30.6442 112.536C30.2605 111.292 29.9212 110.039 29.6262 108.778C29.2647 107.233 28.9697 105.676 28.7411 104.113C25.6707 83.1181 34.5716 60.9258 54.8679 48.4328C79.5232 33.257 111.495 40.4402 126.292 64.9889C134.453 78.5278 150.079 107.369 149.775 107.682C146.833 110.708 143.278 114.192 140.255 117.171C137.425 114.84 134.708 112.438 131.825 110.254C117.815 99.6404 102.157 92.7645 84.8073 89.838C82.7884 89.6562 83.5425 90.1302 82.7716 88.5909L66.5683 60.291L66.5364 62.6456C66.6034 75.748 66.5736 88.8508 66.5733 101.954C66.5731 102.751 66.5733 103.549 66.5733 104.327C69.5505 104.525 72.1905 104.638 74.8179 104.884C95.3404 106.809 113.215 114.767 128.448 128.618C132.807 132.582 136.982 136.746 141.233 140.81C150.895 131.182 160.617 121.522 170.093 111.95C170.481 111.559 152.771 77.6163 144.197 61.517Z" fill="#003BCE"/>
</svg>
