<svg width="269" height="59" viewBox="0 0 269 59" fill="none" xmlns="http://www.w3.org/2000/svg">
<path d="M21.2199 22.2424C21.2199 25.188 23.6077 27.5758 26.5532 27.5758C29.4987 27.5758 31.8865 25.188 31.8865 22.2424C31.8865 19.2969 29.4987 16.9091 26.5532 16.9091C23.6077 16.9091 21.2199 19.2969 21.2199 22.2424ZM0 22.2424L0 23.2424L26.5532 23.2424V22.2424V21.2424L0 21.2424L0 22.2424Z" fill="white"/>
<path d="M95.3812 8.97723C96.854 11.5281 100.116 12.4021 102.667 10.9294C105.218 9.45661 106.092 6.19479 104.619 3.6439C103.146 1.093 99.8842 0.219 97.3333 1.69176C94.7825 3.16452 93.9085 6.42633 95.3812 8.97723ZM77.0043 19.5872L77.5043 20.4532L100.5 7.17659L100 6.31056L99.5 5.44454L76.5043 18.7211L77.0043 19.5872Z" fill="white"/>
<path d="M95.3812 35.5079C93.9085 38.0588 94.7825 41.3206 97.3333 42.7933C99.8842 44.2661 103.146 43.3921 104.619 40.8412C106.092 38.2903 105.218 35.0285 102.667 33.5557C100.116 32.083 96.854 32.957 95.3812 35.5079ZM77.0043 24.8979L76.5043 25.764L99.5 39.0406L100 38.1745L100.5 37.3085L77.5043 24.0319L77.0043 24.8979Z" fill="white"/>
<path d="M127.453 26.9531C127.453 26.599 127.401 26.2812 127.297 26C127.193 25.7083 127 25.4375 126.719 25.1875C126.438 24.9375 126.031 24.6875 125.5 24.4375C124.979 24.1771 124.292 23.9062 123.438 23.625C122.438 23.2917 121.474 22.9167 120.547 22.5C119.62 22.0729 118.792 21.5781 118.062 21.0156C117.333 20.4427 116.755 19.776 116.328 19.0156C115.901 18.2448 115.688 17.349 115.688 16.3281C115.688 15.349 115.906 14.4688 116.344 13.6875C116.781 12.8958 117.391 12.224 118.172 11.6719C118.964 11.1094 119.891 10.6823 120.953 10.3906C122.016 10.0885 123.177 9.9375 124.438 9.9375C126.104 9.9375 127.573 10.2292 128.844 10.8125C130.125 11.3854 131.125 12.2031 131.844 13.2656C132.573 14.3177 132.938 15.5625 132.938 17H127.484C127.484 16.4271 127.365 15.9219 127.125 15.4844C126.896 15.0469 126.547 14.7031 126.078 14.4531C125.609 14.2031 125.021 14.0781 124.312 14.0781C123.625 14.0781 123.047 14.1823 122.578 14.3906C122.109 14.599 121.755 14.8802 121.516 15.2344C121.276 15.5781 121.156 15.9583 121.156 16.375C121.156 16.7188 121.25 17.0312 121.438 17.3125C121.635 17.5833 121.911 17.8385 122.266 18.0781C122.63 18.3177 123.068 18.5469 123.578 18.7656C124.099 18.9844 124.682 19.1979 125.328 19.4062C126.536 19.7917 127.609 20.224 128.547 20.7031C129.495 21.1719 130.292 21.7083 130.938 22.3125C131.594 22.9062 132.089 23.5833 132.422 24.3438C132.766 25.1042 132.938 25.9635 132.938 26.9219C132.938 27.9427 132.74 28.849 132.344 29.6406C131.948 30.4323 131.38 31.1042 130.641 31.6562C129.901 32.1979 129.016 32.6094 127.984 32.8906C126.953 33.1719 125.802 33.3125 124.531 33.3125C123.365 33.3125 122.214 33.1667 121.078 32.875C119.953 32.5729 118.932 32.1146 118.016 31.5C117.099 30.875 116.365 30.0781 115.812 29.1094C115.271 28.1302 115 26.9688 115 25.625H120.5C120.5 26.2917 120.589 26.8542 120.766 27.3125C120.943 27.7708 121.203 28.1406 121.547 28.4219C121.891 28.6927 122.312 28.8906 122.812 29.0156C123.312 29.1302 123.885 29.1875 124.531 29.1875C125.229 29.1875 125.792 29.0885 126.219 28.8906C126.646 28.6823 126.958 28.4115 127.156 28.0781C127.354 27.7344 127.453 27.3594 127.453 26.9531ZM140.828 19.3438V39.5H135.562V16.0938H140.469L140.828 19.3438ZM151.203 24.3438V24.6719C151.203 25.901 151.062 27.0417 150.781 28.0938C150.5 29.1458 150.083 30.0625 149.531 30.8438C148.979 31.625 148.292 32.2344 147.469 32.6719C146.656 33.099 145.714 33.3125 144.641 33.3125C143.63 33.3125 142.76 33.0885 142.031 32.6406C141.302 32.1927 140.693 31.5729 140.203 30.7812C139.714 29.9896 139.318 29.0833 139.016 28.0625C138.714 27.0417 138.474 25.9635 138.297 24.8281V24.4062C138.474 23.1875 138.714 22.0573 139.016 21.0156C139.318 19.9635 139.714 19.0469 140.203 18.2656C140.693 17.4844 141.297 16.875 142.016 16.4375C142.745 16 143.615 15.7812 144.625 15.7812C145.698 15.7812 146.641 15.9844 147.453 16.3906C148.276 16.7969 148.964 17.3802 149.516 18.1406C150.078 18.8906 150.5 19.7917 150.781 20.8438C151.062 21.8958 151.203 23.0625 151.203 24.3438ZM145.938 24.6719V24.3438C145.938 23.6875 145.891 23.0885 145.797 22.5469C145.703 21.9948 145.552 21.5156 145.344 21.1094C145.146 20.7031 144.88 20.3906 144.547 20.1719C144.214 19.9531 143.802 19.8438 143.312 19.8438C142.75 19.8438 142.276 19.9323 141.891 20.1094C141.516 20.276 141.214 20.5365 140.984 20.8906C140.766 21.2344 140.609 21.6667 140.516 22.1875C140.432 22.6979 140.396 23.2969 140.406 23.9844V25.2656C140.385 26.0573 140.464 26.7552 140.641 27.3594C140.818 27.9531 141.125 28.4167 141.562 28.75C142 29.0833 142.594 29.25 143.344 29.25C143.844 29.25 144.26 29.1354 144.594 28.9062C144.927 28.6667 145.193 28.3385 145.391 27.9219C145.589 27.4948 145.729 27.0052 145.812 26.4531C145.896 25.901 145.938 25.3073 145.938 24.6719ZM159.109 9V33H153.828V9H159.109ZM167.922 16.0938V33H162.641V16.0938H167.922ZM162.328 11.7344C162.328 10.9844 162.599 10.3698 163.141 9.89062C163.682 9.41146 164.385 9.17188 165.25 9.17188C166.115 9.17188 166.818 9.41146 167.359 9.89062C167.901 10.3698 168.172 10.9844 168.172 11.7344C168.172 12.4844 167.901 13.099 167.359 13.5781C166.818 14.0573 166.115 14.2969 165.25 14.2969C164.385 14.2969 163.682 14.0573 163.141 13.5781C162.599 13.099 162.328 12.4844 162.328 11.7344ZM180.078 16.0938V19.75H169.891V16.0938H180.078ZM172.031 11.8906H177.297V27.4844C177.297 27.9323 177.349 28.2812 177.453 28.5312C177.557 28.7708 177.734 28.9427 177.984 29.0469C178.245 29.1406 178.589 29.1875 179.016 29.1875C179.318 29.1875 179.568 29.1823 179.766 29.1719C179.964 29.151 180.151 29.125 180.328 29.0938V32.8594C179.88 33.0052 179.411 33.1146 178.922 33.1875C178.432 33.2708 177.911 33.3125 177.359 33.3125C176.234 33.3125 175.271 33.1354 174.469 32.7812C173.677 32.4271 173.073 31.8698 172.656 31.1094C172.24 30.349 172.031 29.3594 172.031 28.1406V11.8906ZM191.078 16.0938V19.75H180.891V16.0938H191.078ZM183.031 11.8906H188.297V27.4844C188.297 27.9323 188.349 28.2812 188.453 28.5312C188.557 28.7708 188.734 28.9427 188.984 29.0469C189.245 29.1406 189.589 29.1875 190.016 29.1875C190.318 29.1875 190.568 29.1823 190.766 29.1719C190.964 29.151 191.151 29.125 191.328 29.0938V32.8594C190.88 33.0052 190.411 33.1146 189.922 33.1875C189.432 33.2708 188.911 33.3125 188.359 33.3125C187.234 33.3125 186.271 33.1354 185.469 32.7812C184.677 32.4271 184.073 31.8698 183.656 31.1094C183.24 30.349 183.031 29.3594 183.031 28.1406V11.8906ZM201.359 33.3125C199.984 33.3125 198.755 33.099 197.672 32.6719C196.589 32.2344 195.672 31.6354 194.922 30.875C194.182 30.1146 193.615 29.2396 193.219 28.25C192.833 27.2604 192.641 26.2135 192.641 25.1094V24.5156C192.641 23.276 192.812 22.1302 193.156 21.0781C193.5 20.0156 194.01 19.0885 194.688 18.2969C195.365 17.5052 196.214 16.8906 197.234 16.4531C198.255 16.0052 199.443 15.7812 200.797 15.7812C201.995 15.7812 203.068 15.974 204.016 16.3594C204.964 16.7448 205.766 17.2969 206.422 18.0156C207.089 18.7344 207.594 19.6042 207.938 20.625C208.292 21.6458 208.469 22.7917 208.469 24.0625V26.2031H194.656V22.9062H203.328V22.5C203.339 21.9375 203.24 21.4583 203.031 21.0625C202.833 20.6667 202.542 20.3646 202.156 20.1562C201.771 19.9479 201.302 19.8438 200.75 19.8438C200.177 19.8438 199.703 19.9688 199.328 20.2188C198.964 20.4688 198.677 20.8125 198.469 21.25C198.271 21.6771 198.13 22.1719 198.047 22.7344C197.964 23.2969 197.922 23.8906 197.922 24.5156V25.1094C197.922 25.7344 198.005 26.3021 198.172 26.8125C198.349 27.3229 198.599 27.7604 198.922 28.125C199.255 28.4792 199.651 28.7552 200.109 28.9531C200.578 29.151 201.109 29.25 201.703 29.25C202.422 29.25 203.13 29.1146 203.828 28.8438C204.526 28.5729 205.125 28.125 205.625 27.5L208.016 30.3438C207.672 30.8333 207.182 31.3073 206.547 31.7656C205.922 32.224 205.172 32.599 204.297 32.8906C203.422 33.1719 202.443 33.3125 201.359 33.3125ZM215.922 20.2812V33H210.656V16.0938H215.578L215.922 20.2812ZM220.922 15.9688L220.828 20.8594C220.62 20.8385 220.339 20.8125 219.984 20.7812C219.63 20.75 219.333 20.7344 219.094 20.7344C218.479 20.7344 217.948 20.8073 217.5 20.9531C217.062 21.0885 216.698 21.2969 216.406 21.5781C216.125 21.849 215.917 22.1927 215.781 22.6094C215.656 23.026 215.599 23.5104 215.609 24.0625L214.656 23.4375C214.656 22.3021 214.766 21.2708 214.984 20.3438C215.214 19.4062 215.536 18.599 215.953 17.9219C216.37 17.2344 216.875 16.7083 217.469 16.3438C218.062 15.9688 218.729 15.7812 219.469 15.7812C219.729 15.7812 219.984 15.7969 220.234 15.8281C220.495 15.8594 220.724 15.9062 220.922 15.9688ZM224.844 10.25H227.766L235.219 28.7969L242.656 10.25H245.594L236.344 33H234.062L224.844 10.25ZM223.891 10.25H226.469L226.891 24.125V33H223.891V10.25ZM243.953 10.25H246.531V33H243.531V24.125L243.953 10.25ZM251.828 10.25H259.359C261.068 10.25 262.51 10.5104 263.688 11.0312C264.875 11.5521 265.776 12.3229 266.391 13.3438C267.016 14.3542 267.328 15.599 267.328 17.0781C267.328 18.1198 267.115 19.0729 266.688 19.9375C266.271 20.7917 265.667 21.5208 264.875 22.125C264.094 22.7188 263.156 23.1615 262.062 23.4531L261.219 23.7812H254.141L254.109 21.3281H259.453C260.536 21.3281 261.438 21.1406 262.156 20.7656C262.875 20.3802 263.417 19.8646 263.781 19.2188C264.146 18.5729 264.328 17.8594 264.328 17.0781C264.328 16.2031 264.156 15.4375 263.812 14.7812C263.469 14.125 262.927 13.6198 262.188 13.2656C261.458 12.901 260.516 12.7188 259.359 12.7188H254.844V33H251.828V10.25ZM265.125 33L259.594 22.6875L262.734 22.6719L268.344 32.8125V33H265.125Z" fill="white"/>
<path d="M142.135 43.75H143.014V53.4619L142.956 55H142.135V43.75ZM148.529 50.9644V51.1182C148.529 51.709 148.461 52.251 148.324 52.7441C148.188 53.2373 147.99 53.6646 147.731 54.0259C147.472 54.3823 147.155 54.6582 146.779 54.8535C146.408 55.0488 145.98 55.1465 145.497 55.1465C145.023 55.1465 144.604 55.0732 144.237 54.9268C143.871 54.7754 143.559 54.563 143.3 54.2896C143.041 54.0112 142.833 53.6865 142.677 53.3154C142.521 52.9395 142.411 52.5269 142.348 52.0776V50.1221C142.421 49.6436 142.538 49.209 142.699 48.8184C142.86 48.4277 143.068 48.0908 143.322 47.8076C143.581 47.5244 143.888 47.3071 144.245 47.1558C144.606 47.0044 145.019 46.9287 145.482 46.9287C145.966 46.9287 146.396 47.0239 146.771 47.2144C147.152 47.3999 147.472 47.6709 147.731 48.0273C147.99 48.3789 148.188 48.8037 148.324 49.3018C148.461 49.7949 148.529 50.3491 148.529 50.9644ZM147.643 51.1182V50.9644C147.643 50.5005 147.599 50.0708 147.511 49.6753C147.423 49.2798 147.284 48.9355 147.094 48.6426C146.908 48.3447 146.669 48.1128 146.376 47.9468C146.083 47.7808 145.731 47.6978 145.321 47.6978C144.901 47.6978 144.542 47.7686 144.245 47.9102C143.952 48.0469 143.708 48.23 143.512 48.4595C143.322 48.6841 143.17 48.9307 143.058 49.1992C142.946 49.4678 142.863 49.7314 142.809 49.9902V52.2681C142.892 52.6343 143.036 52.9785 143.241 53.3008C143.446 53.623 143.722 53.8843 144.069 54.0845C144.416 54.2798 144.838 54.3774 145.336 54.3774C145.736 54.3774 146.081 54.2944 146.369 54.1284C146.662 53.9624 146.901 53.7329 147.086 53.4399C147.277 53.147 147.416 52.8027 147.504 52.4072C147.597 52.0117 147.643 51.582 147.643 51.1182ZM152.733 54.209L155.202 47.0752H156.146L152.792 56.2744C152.724 56.4551 152.636 56.6553 152.528 56.875C152.426 57.0947 152.289 57.3047 152.118 57.5049C151.952 57.71 151.742 57.876 151.488 58.0029C151.239 58.1348 150.934 58.2007 150.573 58.2007C150.48 58.2007 150.36 58.1885 150.214 58.1641C150.072 58.1445 149.97 58.125 149.906 58.1055L149.899 57.3657C149.953 57.3804 150.031 57.3926 150.133 57.4023C150.236 57.4121 150.307 57.417 150.346 57.417C150.663 57.417 150.929 57.3633 151.144 57.2559C151.364 57.1484 151.547 56.9873 151.693 56.7725C151.84 56.5625 151.969 56.2988 152.082 55.9814L152.733 54.209ZM150.426 47.0752L152.953 53.8794L153.188 54.7949L152.55 55.1538L149.474 47.0752H150.426ZM164.884 44.9731L161.193 55H160.255L164.284 44.3359H164.936L164.884 44.9731ZM168.239 55L164.54 44.9731L164.489 44.3359H165.141L169.176 55H168.239ZM167.58 51.2354V52.0117H161.918V51.2354H167.58ZM171.425 48.7671V55H170.553V47.0752H171.388L171.425 48.7671ZM171.227 50.5469L170.839 50.3271C170.868 49.8584 170.963 49.4189 171.125 49.0088C171.286 48.5986 171.503 48.2373 171.776 47.9248C172.055 47.6123 172.379 47.3682 172.75 47.1924C173.126 47.0166 173.542 46.9287 173.996 46.9287C174.391 46.9287 174.745 46.9824 175.058 47.0898C175.37 47.1973 175.636 47.3682 175.856 47.6025C176.076 47.8369 176.242 48.1372 176.354 48.5034C176.471 48.8696 176.53 49.3164 176.53 49.8438V55H175.651V49.8364C175.651 49.2896 175.575 48.8623 175.424 48.5547C175.272 48.2422 175.058 48.02 174.779 47.8882C174.501 47.7563 174.171 47.6904 173.791 47.6904C173.371 47.6904 173.002 47.7832 172.685 47.9688C172.372 48.1494 172.108 48.3862 171.894 48.6792C171.684 48.9673 171.522 49.2773 171.41 49.6094C171.298 49.9365 171.237 50.249 171.227 50.5469ZM183.949 53.4619V43.75H184.828V55H184.008L183.949 53.4619ZM178.449 51.1182V50.9644C178.449 50.3491 178.52 49.7949 178.661 49.3018C178.803 48.8037 179.005 48.3789 179.269 48.0273C179.538 47.6709 179.86 47.3999 180.236 47.2144C180.612 47.0239 181.037 46.9287 181.51 46.9287C181.974 46.9287 182.384 47.0044 182.741 47.1558C183.097 47.3071 183.402 47.5244 183.656 47.8076C183.915 48.0908 184.123 48.4277 184.279 48.8184C184.44 49.209 184.557 49.6436 184.63 50.1221V52.0776C184.572 52.5269 184.464 52.9395 184.308 53.3154C184.152 53.6865 183.944 54.0112 183.686 54.2896C183.427 54.563 183.114 54.7754 182.748 54.9268C182.387 55.0732 181.969 55.1465 181.496 55.1465C181.027 55.1465 180.604 55.0488 180.229 54.8535C179.853 54.6582 179.533 54.3823 179.269 54.0259C179.005 53.6646 178.803 53.2373 178.661 52.7441C178.52 52.251 178.449 51.709 178.449 51.1182ZM179.328 50.9644V51.1182C179.328 51.582 179.374 52.0117 179.467 52.4072C179.56 52.8027 179.701 53.147 179.892 53.4399C180.082 53.7329 180.324 53.9624 180.617 54.1284C180.91 54.2944 181.256 54.3774 181.657 54.3774C182.16 54.3774 182.582 54.2822 182.924 54.0918C183.266 53.8965 183.539 53.6401 183.744 53.3228C183.949 53.0005 184.098 52.6489 184.191 52.2681V49.9902C184.132 49.7314 184.047 49.4678 183.935 49.1992C183.822 48.9307 183.668 48.6841 183.473 48.4595C183.283 48.23 183.039 48.0469 182.741 47.9102C182.448 47.7686 182.091 47.6978 181.671 47.6978C181.266 47.6978 180.917 47.7808 180.624 47.9468C180.331 48.1128 180.087 48.3447 179.892 48.6426C179.701 48.9355 179.56 49.2798 179.467 49.6753C179.374 50.0708 179.328 50.5005 179.328 50.9644ZM188.007 48.3862V55H187.135V47.0752H187.985L188.007 48.3862ZM190.812 47.0166L190.79 47.8223C190.692 47.8076 190.597 47.7954 190.504 47.7856C190.412 47.7759 190.312 47.771 190.204 47.771C189.823 47.771 189.489 47.8418 189.201 47.9834C188.917 48.1201 188.678 48.313 188.483 48.562C188.288 48.8062 188.139 49.0942 188.036 49.4263C187.934 49.7534 187.875 50.105 187.86 50.481L187.538 50.6055C187.538 50.0879 187.592 49.6069 187.699 49.1626C187.807 48.7183 187.97 48.3301 188.19 47.998C188.415 47.6611 188.695 47.3999 189.032 47.2144C189.374 47.0239 189.774 46.9287 190.233 46.9287C190.346 46.9287 190.456 46.9385 190.563 46.958C190.675 46.9727 190.758 46.9922 190.812 47.0166ZM195.104 55.1465C194.586 55.1465 194.11 55.0513 193.676 54.8608C193.246 54.6704 192.87 54.4019 192.548 54.0552C192.23 53.7085 191.984 53.2983 191.808 52.8247C191.637 52.3462 191.552 51.8237 191.552 51.2573V50.9424C191.552 50.332 191.642 49.7803 191.823 49.2871C192.003 48.7939 192.252 48.3716 192.57 48.02C192.887 47.6685 193.249 47.3999 193.654 47.2144C194.064 47.0239 194.494 46.9287 194.943 46.9287C195.446 46.9287 195.893 47.019 196.283 47.1997C196.674 47.3755 197.001 47.627 197.265 47.9541C197.533 48.2764 197.736 48.6597 197.873 49.104C198.009 49.5435 198.078 50.0293 198.078 50.5615V51.0962H192.079V50.3491H197.206V50.2466C197.196 49.8022 197.106 49.3872 196.935 49.0015C196.769 48.6108 196.52 48.2935 196.188 48.0493C195.856 47.8052 195.441 47.6831 194.943 47.6831C194.572 47.6831 194.23 47.7612 193.917 47.9175C193.61 48.0737 193.344 48.2983 193.119 48.5913C192.899 48.8794 192.729 49.2236 192.606 49.624C192.489 50.0195 192.431 50.459 192.431 50.9424V51.2573C192.431 51.6968 192.494 52.1069 192.621 52.4878C192.753 52.8638 192.938 53.1958 193.178 53.4839C193.422 53.772 193.71 53.9966 194.042 54.1577C194.374 54.3188 194.74 54.3994 195.141 54.3994C195.609 54.3994 196.024 54.314 196.386 54.1431C196.747 53.9673 197.072 53.6914 197.36 53.3154L197.909 53.7402C197.738 53.9941 197.523 54.2285 197.265 54.4434C197.011 54.6582 196.706 54.8291 196.349 54.9561C195.993 55.083 195.578 55.1465 195.104 55.1465ZM204.552 52.9785C204.552 52.7637 204.499 52.5513 204.391 52.3413C204.284 52.1313 204.076 51.9385 203.769 51.7627C203.466 51.5869 203.019 51.438 202.428 51.3159C201.989 51.2183 201.596 51.1084 201.249 50.9863C200.907 50.8643 200.619 50.7178 200.385 50.5469C200.15 50.376 199.972 50.1709 199.85 49.9316C199.728 49.6924 199.667 49.4092 199.667 49.082C199.667 48.7891 199.73 48.5132 199.857 48.2544C199.989 47.9907 200.175 47.7612 200.414 47.5659C200.658 47.3657 200.951 47.2095 201.293 47.0972C201.64 46.9849 202.028 46.9287 202.458 46.9287C203.068 46.9287 203.59 47.0337 204.025 47.2437C204.464 47.4487 204.799 47.7295 205.028 48.0859C205.263 48.4424 205.38 48.8452 205.38 49.2944H204.508C204.508 49.021 204.428 48.7622 204.267 48.5181C204.11 48.2739 203.878 48.0737 203.571 47.9175C203.268 47.7612 202.897 47.6831 202.458 47.6831C202.003 47.6831 201.635 47.7515 201.352 47.8882C201.068 48.0249 200.861 48.1982 200.729 48.4082C200.602 48.6182 200.539 48.8354 200.539 49.0601C200.539 49.2358 200.565 49.397 200.619 49.5435C200.678 49.6851 200.78 49.8169 200.927 49.939C201.078 50.061 201.293 50.1758 201.571 50.2832C201.85 50.3906 202.211 50.4956 202.655 50.5981C203.295 50.7397 203.817 50.9131 204.223 51.1182C204.633 51.3184 204.936 51.5674 205.131 51.8652C205.326 52.1582 205.424 52.5146 205.424 52.9346C205.424 53.2617 205.355 53.562 205.219 53.8354C205.082 54.104 204.884 54.3359 204.625 54.5312C204.372 54.7266 204.064 54.8779 203.703 54.9854C203.346 55.0928 202.946 55.1465 202.501 55.1465C201.833 55.1465 201.266 55.0366 200.802 54.8169C200.343 54.5923 199.994 54.2993 199.755 53.938C199.521 53.5718 199.403 53.1836 199.403 52.7734H200.275C200.304 53.1836 200.434 53.5083 200.663 53.7476C200.893 53.9819 201.173 54.1479 201.505 54.2456C201.842 54.3433 202.174 54.3921 202.501 54.3921C202.951 54.3921 203.327 54.3262 203.629 54.1943C203.932 54.0625 204.162 53.8892 204.318 53.6743C204.474 53.4595 204.552 53.2275 204.552 52.9785ZM218.446 49.1187V49.8877H211.964V49.1187H218.446ZM212.177 44.3359V55H211.276V44.3359H212.177ZM219.171 44.3359V55H218.271V44.3359H219.171ZM224.752 55.1465C224.235 55.1465 223.759 55.0513 223.324 54.8608C222.895 54.6704 222.519 54.4019 222.196 54.0552C221.879 53.7085 221.632 53.2983 221.457 52.8247C221.286 52.3462 221.2 51.8237 221.2 51.2573V50.9424C221.2 50.332 221.291 49.7803 221.471 49.2871C221.652 48.7939 221.901 48.3716 222.218 48.02C222.536 47.6685 222.897 47.3999 223.302 47.2144C223.712 47.0239 224.142 46.9287 224.591 46.9287C225.094 46.9287 225.541 47.019 225.932 47.1997C226.322 47.3755 226.649 47.627 226.913 47.9541C227.182 48.2764 227.384 48.6597 227.521 49.104C227.658 49.5435 227.726 50.0293 227.726 50.5615V51.0962H221.728V50.3491H226.854V50.2466C226.845 49.8022 226.754 49.3872 226.583 49.0015C226.417 48.6108 226.168 48.2935 225.836 48.0493C225.504 47.8052 225.089 47.6831 224.591 47.6831C224.22 47.6831 223.878 47.7612 223.566 47.9175C223.258 48.0737 222.992 48.2983 222.768 48.5913C222.548 48.8794 222.377 49.2236 222.255 49.624C222.138 50.0195 222.079 50.459 222.079 50.9424V51.2573C222.079 51.6968 222.143 52.1069 222.27 52.4878C222.401 52.8638 222.587 53.1958 222.826 53.4839C223.07 53.772 223.358 53.9966 223.69 54.1577C224.022 54.3188 224.389 54.3994 224.789 54.3994C225.258 54.3994 225.673 54.314 226.034 54.1431C226.396 53.9673 226.72 53.6914 227.008 53.3154L227.558 53.7402C227.387 53.9941 227.172 54.2285 226.913 54.4434C226.659 54.6582 226.354 54.8291 225.998 54.9561C225.641 55.083 225.226 55.1465 224.752 55.1465ZM230.326 48.3862V55H229.455V47.0752H230.304L230.326 48.3862ZM233.131 47.0166L233.109 47.8223C233.012 47.8076 232.917 47.7954 232.824 47.7856C232.731 47.7759 232.631 47.771 232.523 47.771C232.143 47.771 231.808 47.8418 231.52 47.9834C231.237 48.1201 230.998 48.313 230.802 48.562C230.607 48.8062 230.458 49.0942 230.355 49.4263C230.253 49.7534 230.194 50.105 230.18 50.481L229.857 50.6055C229.857 50.0879 229.911 49.6069 230.019 49.1626C230.126 48.7183 230.29 48.3301 230.509 47.998C230.734 47.6611 231.015 47.3999 231.352 47.2144C231.693 47.0239 232.094 46.9287 232.553 46.9287C232.665 46.9287 232.775 46.9385 232.882 46.958C232.995 46.9727 233.078 46.9922 233.131 47.0166ZM237.423 55.1465C236.906 55.1465 236.43 55.0513 235.995 54.8608C235.565 54.6704 235.189 54.4019 234.867 54.0552C234.55 53.7085 234.303 53.2983 234.127 52.8247C233.957 52.3462 233.871 51.8237 233.871 51.2573V50.9424C233.871 50.332 233.961 49.7803 234.142 49.2871C234.323 48.7939 234.572 48.3716 234.889 48.02C235.207 47.6685 235.568 47.3999 235.973 47.2144C236.383 47.0239 236.813 46.9287 237.262 46.9287C237.765 46.9287 238.212 47.019 238.603 47.1997C238.993 47.3755 239.32 47.627 239.584 47.9541C239.853 48.2764 240.055 48.6597 240.192 49.104C240.329 49.5435 240.397 50.0293 240.397 50.5615V51.0962H234.398V50.3491H239.525V50.2466C239.516 49.8022 239.425 49.3872 239.254 49.0015C239.088 48.6108 238.839 48.2935 238.507 48.0493C238.175 47.8052 237.76 47.6831 237.262 47.6831C236.891 47.6831 236.549 47.7612 236.237 47.9175C235.929 48.0737 235.663 48.2983 235.438 48.5913C235.219 48.8794 235.048 49.2236 234.926 49.624C234.809 50.0195 234.75 50.459 234.75 50.9424V51.2573C234.75 51.6968 234.813 52.1069 234.94 52.4878C235.072 52.8638 235.258 53.1958 235.497 53.4839C235.741 53.772 236.029 53.9966 236.361 54.1577C236.693 54.3188 237.06 54.3994 237.46 54.3994C237.929 54.3994 238.344 54.314 238.705 54.1431C239.066 53.9673 239.391 53.6914 239.679 53.3154L240.229 53.7402C240.058 53.9941 239.843 54.2285 239.584 54.4434C239.33 54.6582 239.025 54.8291 238.668 54.9561C238.312 55.083 237.897 55.1465 237.423 55.1465ZM242.997 48.7671V55H242.125V47.0752H242.96L242.997 48.7671ZM242.799 50.5469L242.411 50.3271C242.44 49.8584 242.536 49.4189 242.697 49.0088C242.858 48.5986 243.075 48.2373 243.349 47.9248C243.627 47.6123 243.952 47.3682 244.323 47.1924C244.699 47.0166 245.114 46.9287 245.568 46.9287C245.963 46.9287 246.317 46.9824 246.63 47.0898C246.942 47.1973 247.208 47.3682 247.428 47.6025C247.648 47.8369 247.814 48.1372 247.926 48.5034C248.043 48.8696 248.102 49.3164 248.102 49.8438V55H247.223V49.8364C247.223 49.2896 247.147 48.8623 246.996 48.5547C246.845 48.2422 246.63 48.02 246.352 47.8882C246.073 47.7563 245.744 47.6904 245.363 47.6904C244.943 47.6904 244.574 47.7832 244.257 47.9688C243.944 48.1494 243.681 48.3862 243.466 48.6792C243.256 48.9673 243.095 49.2773 242.982 49.6094C242.87 49.9365 242.809 50.249 242.799 50.5469ZM253.295 54.3921C253.666 54.3921 254.013 54.3237 254.335 54.187C254.662 54.0454 254.931 53.8379 255.141 53.5645C255.355 53.2861 255.478 52.9468 255.507 52.5464H256.342C256.317 53.0493 256.164 53.4985 255.88 53.894C255.602 54.2847 255.236 54.5923 254.782 54.8169C254.333 55.0366 253.837 55.1465 253.295 55.1465C252.743 55.1465 252.255 55.0464 251.83 54.8462C251.41 54.646 251.059 54.3677 250.775 54.0112C250.492 53.6499 250.277 53.23 250.131 52.7515C249.989 52.2681 249.918 51.748 249.918 51.1914V50.8838C249.918 50.3271 249.989 49.8096 250.131 49.3311C250.277 48.8477 250.492 48.4277 250.775 48.0713C251.059 47.71 251.41 47.4292 251.83 47.229C252.25 47.0288 252.736 46.9287 253.288 46.9287C253.854 46.9287 254.362 47.0435 254.811 47.2729C255.265 47.5024 255.626 47.8271 255.895 48.2471C256.168 48.667 256.317 49.165 256.342 49.7412H255.507C255.482 49.3164 255.37 48.9502 255.17 48.6426C254.97 48.335 254.706 48.0981 254.379 47.9321C254.052 47.7661 253.688 47.6831 253.288 47.6831C252.838 47.6831 252.455 47.771 252.138 47.9468C251.82 48.1177 251.562 48.3545 251.361 48.6572C251.166 48.9551 251.022 49.2969 250.929 49.6826C250.836 50.0635 250.79 50.4639 250.79 50.8838V51.1914C250.79 51.6162 250.834 52.0215 250.922 52.4072C251.015 52.7881 251.159 53.1274 251.354 53.4253C251.554 53.7231 251.813 53.96 252.13 54.1357C252.453 54.3066 252.841 54.3921 253.295 54.3921ZM259.081 47.0752V55H258.209V47.0752H259.081ZM258.056 44.7827C258.056 44.6167 258.107 44.4775 258.209 44.3652C258.317 44.248 258.463 44.1895 258.649 44.1895C258.834 44.1895 258.981 44.248 259.088 44.3652C259.201 44.4775 259.257 44.6167 259.257 44.7827C259.257 44.9438 259.201 45.083 259.088 45.2002C258.981 45.3125 258.834 45.3687 258.649 45.3687C258.463 45.3687 258.317 45.3125 258.209 45.2002C258.107 45.083 258.056 44.9438 258.056 44.7827ZM266.295 53.5791V49.4922C266.295 49.1162 266.217 48.7915 266.061 48.5181C265.905 48.2446 265.675 48.0347 265.373 47.8882C265.07 47.7417 264.696 47.6685 264.252 47.6685C263.842 47.6685 263.476 47.7417 263.153 47.8882C262.836 48.0298 262.584 48.2227 262.399 48.4668C262.218 48.7061 262.128 48.9722 262.128 49.2651L261.249 49.2578C261.249 48.96 261.322 48.6719 261.469 48.3936C261.615 48.1152 261.823 47.8662 262.091 47.6465C262.36 47.4268 262.68 47.2534 263.051 47.1265C263.427 46.9946 263.839 46.9287 264.289 46.9287C264.855 46.9287 265.353 47.0239 265.783 47.2144C266.217 47.4048 266.557 47.6904 266.801 48.0713C267.045 48.4521 267.167 48.9307 267.167 49.5068V53.3374C267.167 53.6108 267.187 53.894 267.226 54.187C267.27 54.48 267.331 54.7217 267.409 54.9121V55H266.479C266.42 54.8242 266.374 54.6045 266.339 54.3408C266.31 54.0723 266.295 53.8184 266.295 53.5791ZM266.5 50.3857L266.515 51.0596H264.794C264.345 51.0596 263.942 51.1011 263.585 51.1841C263.234 51.2622 262.936 51.3794 262.692 51.5356C262.448 51.687 262.26 51.8701 262.128 52.085C262.001 52.2998 261.938 52.5439 261.938 52.8174C261.938 53.1006 262.008 53.3594 262.15 53.5938C262.296 53.8281 262.501 54.0161 262.765 54.1577C263.034 54.2944 263.351 54.3628 263.717 54.3628C264.206 54.3628 264.635 54.2725 265.006 54.0918C265.382 53.9111 265.692 53.6743 265.937 53.3813C266.181 53.0884 266.344 52.7686 266.427 52.4219L266.808 52.9272C266.745 53.1714 266.627 53.4229 266.457 53.6816C266.291 53.9355 266.073 54.1748 265.805 54.3994C265.536 54.6191 265.219 54.7998 264.853 54.9414C264.491 55.0781 264.081 55.1465 263.622 55.1465C263.104 55.1465 262.653 55.0488 262.267 54.8535C261.886 54.6582 261.588 54.3921 261.374 54.0552C261.164 53.7134 261.059 53.3276 261.059 52.8979C261.059 52.5073 261.142 52.1582 261.308 51.8506C261.474 51.5381 261.713 51.2744 262.025 51.0596C262.343 50.8398 262.724 50.6738 263.168 50.5615C263.617 50.4443 264.12 50.3857 264.677 50.3857H266.5Z" fill="white"/>
<path d="M46.9334 20.7333C47.1067 20.7333 47.2789 20.7389 47.45 20.75C47.2314 21.8866 47.3132 23.0605 47.6874 24.1558C48.0615 25.2511 48.715 26.2297 49.5834 26.995C49.4622 27.6683 49.4011 28.3589 49.4 29.0667C49.396 31.7129 50.2956 34.2813 51.95 36.3467C50.4133 36.9501 48.7457 37.1419 47.1122 36.9031C45.4786 36.6643 43.9357 36.0032 42.636 34.9852C41.3363 33.9672 40.3249 32.6275 39.7018 31.0987C39.0787 29.5698 38.8655 27.9048 39.0834 26.2683C39.6608 24.6485 40.7253 23.247 42.1307 22.2561C43.5361 21.2651 45.2137 20.7332 46.9334 20.7333ZM68.3467 24.05C68.9501 25.5867 69.1419 27.2543 68.9031 28.8879C68.6644 30.5214 68.0033 32.0644 66.9852 33.364C65.9672 34.6637 64.6275 35.6751 63.0987 36.2982C61.5699 36.9213 59.9048 37.1345 58.2684 36.9167C56.5651 36.3097 55.1055 35.1653 54.1098 33.656C53.1141 32.1468 52.6362 30.3546 52.7484 28.55C53.8849 28.7686 55.0589 28.6868 56.1542 28.3127C57.2494 27.9385 58.2281 27.285 58.9934 26.4167C59.6678 26.5378 60.3589 26.5989 61.0667 26.6C63.713 26.604 66.2813 25.7044 68.3467 24.05ZM54 18.6667C54.8841 18.6667 55.7319 19.0179 56.357 19.643C56.9822 20.2681 57.3334 21.1159 57.3334 22C57.3334 22.8841 56.9822 23.7319 56.357 24.357C55.7319 24.9821 54.8841 25.3333 54 25.3333C53.116 25.3333 52.2681 24.9821 51.643 24.357C51.0179 23.7319 50.6667 22.8841 50.6667 22C50.6667 21.1159 51.0179 20.2681 51.643 19.643C52.2681 19.0179 53.116 18.6667 54 18.6667ZM59.5167 7C60.8677 6.99985 62.2032 7.28837 63.4337 7.84624C64.6641 8.40412 65.7612 9.21847 66.6514 10.2348C67.5416 11.251 68.2044 12.4458 68.5953 13.739C68.9863 15.0323 69.0964 16.3941 68.9184 17.7333C68.3108 19.4362 67.1658 20.8953 65.6563 21.8904C64.1468 22.8856 62.3545 23.3627 60.55 23.25C60.7686 22.1134 60.6868 20.9395 60.3127 19.8442C59.9385 18.7489 59.285 17.7703 58.4167 17.005C58.5378 16.3317 58.5989 15.6411 58.6 14.9333C58.604 12.2871 57.7044 9.71872 56.05 7.65333C57.1546 7.22104 58.3305 6.99944 59.5167 7ZM48.4834 7C48.9067 7 49.3234 7.02722 49.7334 7.08167C51.4362 7.68926 52.8953 8.8342 53.8904 10.3437C54.8856 11.8533 55.3628 13.6455 55.25 15.45C54.1134 15.2314 52.9395 15.3132 51.8442 15.6873C50.7489 16.0615 49.7703 16.715 49.005 17.5833C48.3213 17.4607 47.628 17.3993 46.9334 17.4C44.2871 17.396 41.7187 18.2956 39.6534 19.95C39.0886 18.512 38.8837 16.9577 39.0565 15.4224C39.2294 13.8871 39.7747 12.4173 40.6451 11.1408C41.5155 9.86435 42.6845 8.81985 44.0506 8.09817C45.4167 7.3765 46.9384 6.99951 48.4834 7Z" fill="#7588FF"/>
</svg>
