# Blender v2.82 (sub 7) OBJ File: ''
# www.blender.org
mtllib textured_simple.mtl
o L_Table
v 1089.816162 377.518097 1.067516
v 1089.816162 377.518097 -17.067482
v 871.848328 755.049438 -17.067467
v 871.848328 755.049438 1.067533
v 217.967819 1132.567505 -17.067450
v 217.967819 1132.567505 1.067549
v -217.988693 1132.567505 -17.067450
v -217.988693 1132.567505 1.067549
v -435.966949 755.018066 -17.067467
v -435.966949 755.018066 1.067533
v 1089.816162 -377.518097 1.067484
v 1089.816162 -377.518097 -17.067516
v 871.848328 -755.049438 1.067467
v 871.848328 -755.049438 -17.067532
v 217.967819 -1132.567505 -17.067549
v 217.967819 -1132.567505 1.067451
v -435.966949 -0.000000 1.067500
v -435.966949 -755.018066 1.067467
v -217.988693 -1132.567505 1.067451
v -435.966949 0.000001 -17.067499
v -217.988693 -1132.567505 -17.067549
v -435.966949 -755.018066 -17.067532
vt 0.667000 0.643963
vt 0.663106 0.643963
vt 0.663106 0.507877
vt 0.667000 0.507877
vt 0.663106 0.185906
vt 0.667000 0.185906
vt 0.663106 0.000000
vt 0.667000 0.000000
vt 0.659211 0.000000
vt 0.659211 0.147660
vt 0.655317 0.147660
vt 0.655317 0.000000
vt 0.663106 0.000000
vt 0.663105 0.288672
vt 0.659211 0.288672
vt 0.659211 0.000000
vt 0.663105 0.481126
vt 0.659211 0.481126
vt 0.659211 0.769798
vt 0.663105 0.769798
vt 0.655316 0.166679
vt 0.374466 0.166665
vt 0.514886 0.000000
vt 0.608506 0.000000
vt 0.655317 0.500000
vt 0.514886 1.000000
vt 0.374466 0.833335
vt 0.655317 0.833321
vt 0.327658 0.333335
vt 0.608506 1.000000
vt 0.327658 0.666665
vt 0.327658 0.833321
vt 0.280848 1.000000
vt 0.187227 1.000000
vt 0.327658 0.500000
vt 0.046808 0.833335
vt 0.000000 0.666665
vt 0.187227 0.000000
vt 0.280848 0.000000
vt 0.327658 0.166679
vt 0.000000 0.333335
vt 0.046808 0.166665
vt 0.659211 0.866030
vt 0.663105 0.866030
vt 0.655317 0.476022
vt 0.659211 0.476022
vt 0.659211 0.804384
vt 0.655317 0.804384
vt 0.659211 0.985121
vt 0.655317 0.985121
vn 0.8660 0.5000 0.0000
vn 0.5000 0.8660 0.0000
vn 0.0000 1.0000 0.0000
vn -0.8660 0.5000 0.0000
vn 1.0000 0.0000 0.0000
vn 0.8660 -0.5000 0.0000
vn 0.5000 -0.8660 0.0000
vn 0.0000 -0.0000 1.0000
vn -0.0000 0.0000 -1.0000
vn 0.0000 -1.0000 0.0000
vn -1.0000 0.0000 0.0000
vn -0.8660 -0.5000 0.0000
usemtl Material.001
s 1
f 1/1/1 2/2/1 3/3/1
f 3/3/1 4/4/1 1/1/1
f 5/5/2 6/6/2 4/4/2
f 4/4/2 3/3/2 5/5/2
f 7/7/3 8/8/3 6/6/3
f 6/6/3 5/5/3 7/7/3
f 7/9/4 9/10/4 10/11/4
f 10/11/4 8/12/4 7/9/4
f 1/13/5 11/14/5 12/15/5
f 12/15/5 2/16/5 1/13/5
f 11/14/6 13/17/6 14/18/6
f 14/18/6 12/15/6 11/14/6
f 15/19/7 14/18/7 13/17/7
f 13/17/7 16/20/7 15/19/7
f 10/21/8 4/22/8 6/23/8
f 6/23/8 8/24/8 10/21/8
f 17/25/8 16/26/8 13/27/8
f 16/26/8 17/25/8 18/28/8
f 17/25/8 1/29/8 4/22/8
f 18/28/8 19/30/8 16/26/8
f 17/25/8 11/31/8 1/29/8
f 10/21/8 17/25/8 4/22/8
f 13/27/8 11/31/8 17/25/8
f 9/32/9 7/33/9 5/34/9
f 20/35/9 3/36/9 2/37/9
f 3/36/9 20/35/9 9/32/9
f 15/38/9 21/39/9 22/40/9
f 20/35/9 12/41/9 14/42/9
f 5/34/9 3/36/9 9/32/9
f 14/42/9 15/38/9 20/35/9
f 22/40/9 20/35/9 15/38/9
f 2/37/9 12/41/9 20/35/9
f 21/43/10 15/19/10 16/20/10
f 16/20/10 19/44/10 21/43/10
f 17/45/11 10/11/11 9/10/11
f 17/45/11 20/46/11 22/47/11
f 22/47/11 18/48/11 17/45/11
f 9/10/11 20/46/11 17/45/11
f 22/47/12 21/49/12 19/50/12
f 19/50/12 18/48/12 22/47/12
