<?xml version="1.0" encoding="utf-8" standalone="no"?>
<!DOCTYPE svg PUBLIC "-//W3C//DTD SVG 1.1//EN"
  "http://www.w3.org/Graphics/SVG/1.1/DTD/svg11.dtd">
<svg xmlns:xlink="http://www.w3.org/1999/xlink" width="576pt" height="648pt" viewBox="0 0 576 648" xmlns="http://www.w3.org/2000/svg" version="1.1">
 <metadata>
  <rdf:RDF xmlns:dc="http://purl.org/dc/elements/1.1/" xmlns:cc="http://creativecommons.org/ns#" xmlns:rdf="http://www.w3.org/1999/02/22-rdf-syntax-ns#">
   <cc:Work>
    <dc:type rdf:resource="http://purl.org/dc/dcmitype/StillImage"/>
    <dc:date>2025-06-21T15:11:27.835668</dc:date>
    <dc:format>image/svg+xml</dc:format>
    <dc:creator>
     <cc:Agent>
      <dc:title>Matplotlib v3.7.5, https://matplotlib.org/</dc:title>
     </cc:Agent>
    </dc:creator>
   </cc:Work>
  </rdf:RDF>
 </metadata>
 <defs>
  <style type="text/css">*{stroke-linejoin: round; stroke-linecap: butt}</style>
 </defs>
 <g id="figure_1">
  <g id="patch_1">
   <path d="M 0 648 
L 576 648 
L 576 0 
L 0 0 
z
" style="fill: #ffffff"/>
  </g>
  <g id="axes_1">
   <g id="patch_2">
    <path d="M 74.059375 218.084765 
L 565.2 218.084765 
L 565.2 10.8 
L 74.059375 10.8 
z
" style="fill: #ffffff"/>
   </g>
   <g id="matplotlib.axis_1">
    <g id="xtick_1">
     <g id="line2d_1">
      <defs>
       <path id="m6dbfa8f465" d="M 0 0 
L 0 3.5 
" style="stroke: #000000; stroke-width: 0.8"/>
      </defs>
      <g>
       <use xlink:href="#m6dbfa8f465" x="96.253497" y="218.084765" style="stroke: #000000; stroke-width: 0.8"/>
      </g>
     </g>
     <g id="text_1">
      <!-- 0.0 -->
      <g transform="translate(86.711622 234.20289) scale(0.12 -0.12)">
       <defs>
        <path id="DejaVuSans-30" d="M 2034 4250 
Q 1547 4250 1301 3770 
Q 1056 3291 1056 2328 
Q 1056 1369 1301 889 
Q 1547 409 2034 409 
Q 2525 409 2770 889 
Q 3016 1369 3016 2328 
Q 3016 3291 2770 3770 
Q 2525 4250 2034 4250 
z
M 2034 4750 
Q 2819 4750 3233 4129 
Q 3647 3509 3647 2328 
Q 3647 1150 3233 529 
Q 2819 -91 2034 -91 
Q 1250 -91 836 529 
Q 422 1150 422 2328 
Q 422 3509 836 4129 
Q 1250 4750 2034 4750 
z
" transform="scale(0.015625)"/>
        <path id="DejaVuSans-2e" d="M 684 794 
L 1344 794 
L 1344 0 
L 684 0 
L 684 794 
z
" transform="scale(0.015625)"/>
       </defs>
       <use xlink:href="#DejaVuSans-30"/>
       <use xlink:href="#DejaVuSans-2e" x="63.623047"/>
       <use xlink:href="#DejaVuSans-30" x="95.410156"/>
      </g>
     </g>
    </g>
    <g id="xtick_2">
     <g id="line2d_2">
      <g>
       <use xlink:href="#m6dbfa8f465" x="185.603973" y="218.084765" style="stroke: #000000; stroke-width: 0.8"/>
      </g>
     </g>
     <g id="text_2">
      <!-- 0.2 -->
      <g transform="translate(176.062098 234.20289) scale(0.12 -0.12)">
       <defs>
        <path id="DejaVuSans-32" d="M 1228 531 
L 3431 531 
L 3431 0 
L 469 0 
L 469 531 
Q 828 903 1448 1529 
Q 2069 2156 2228 2338 
Q 2531 2678 2651 2914 
Q 2772 3150 2772 3378 
Q 2772 3750 2511 3984 
Q 2250 4219 1831 4219 
Q 1534 4219 1204 4116 
Q 875 4013 500 3803 
L 500 4441 
Q 881 4594 1212 4672 
Q 1544 4750 1819 4750 
Q 2544 4750 2975 4387 
Q 3406 4025 3406 3419 
Q 3406 3131 3298 2873 
Q 3191 2616 2906 2266 
Q 2828 2175 2409 1742 
Q 1991 1309 1228 531 
z
" transform="scale(0.015625)"/>
       </defs>
       <use xlink:href="#DejaVuSans-30"/>
       <use xlink:href="#DejaVuSans-2e" x="63.623047"/>
       <use xlink:href="#DejaVuSans-32" x="95.410156"/>
      </g>
     </g>
    </g>
    <g id="xtick_3">
     <g id="line2d_3">
      <g>
       <use xlink:href="#m6dbfa8f465" x="274.954449" y="218.084765" style="stroke: #000000; stroke-width: 0.8"/>
      </g>
     </g>
     <g id="text_3">
      <!-- 0.4 -->
      <g transform="translate(265.412574 234.20289) scale(0.12 -0.12)">
       <defs>
        <path id="DejaVuSans-34" d="M 2419 4116 
L 825 1625 
L 2419 1625 
L 2419 4116 
z
M 2253 4666 
L 3047 4666 
L 3047 1625 
L 3713 1625 
L 3713 1100 
L 3047 1100 
L 3047 0 
L 2419 0 
L 2419 1100 
L 313 1100 
L 313 1709 
L 2253 4666 
z
" transform="scale(0.015625)"/>
       </defs>
       <use xlink:href="#DejaVuSans-30"/>
       <use xlink:href="#DejaVuSans-2e" x="63.623047"/>
       <use xlink:href="#DejaVuSans-34" x="95.410156"/>
      </g>
     </g>
    </g>
    <g id="xtick_4">
     <g id="line2d_4">
      <g>
       <use xlink:href="#m6dbfa8f465" x="364.304926" y="218.084765" style="stroke: #000000; stroke-width: 0.8"/>
      </g>
     </g>
     <g id="text_4">
      <!-- 0.6 -->
      <g transform="translate(354.763051 234.20289) scale(0.12 -0.12)">
       <defs>
        <path id="DejaVuSans-36" d="M 2113 2584 
Q 1688 2584 1439 2293 
Q 1191 2003 1191 1497 
Q 1191 994 1439 701 
Q 1688 409 2113 409 
Q 2538 409 2786 701 
Q 3034 994 3034 1497 
Q 3034 2003 2786 2293 
Q 2538 2584 2113 2584 
z
M 3366 4563 
L 3366 3988 
Q 3128 4100 2886 4159 
Q 2644 4219 2406 4219 
Q 1781 4219 1451 3797 
Q 1122 3375 1075 2522 
Q 1259 2794 1537 2939 
Q 1816 3084 2150 3084 
Q 2853 3084 3261 2657 
Q 3669 2231 3669 1497 
Q 3669 778 3244 343 
Q 2819 -91 2113 -91 
Q 1303 -91 875 529 
Q 447 1150 447 2328 
Q 447 3434 972 4092 
Q 1497 4750 2381 4750 
Q 2619 4750 2861 4703 
Q 3103 4656 3366 4563 
z
" transform="scale(0.015625)"/>
       </defs>
       <use xlink:href="#DejaVuSans-30"/>
       <use xlink:href="#DejaVuSans-2e" x="63.623047"/>
       <use xlink:href="#DejaVuSans-36" x="95.410156"/>
      </g>
     </g>
    </g>
    <g id="xtick_5">
     <g id="line2d_5">
      <g>
       <use xlink:href="#m6dbfa8f465" x="453.655402" y="218.084765" style="stroke: #000000; stroke-width: 0.8"/>
      </g>
     </g>
     <g id="text_5">
      <!-- 0.8 -->
      <g transform="translate(444.113527 234.20289) scale(0.12 -0.12)">
       <defs>
        <path id="DejaVuSans-38" d="M 2034 2216 
Q 1584 2216 1326 1975 
Q 1069 1734 1069 1313 
Q 1069 891 1326 650 
Q 1584 409 2034 409 
Q 2484 409 2743 651 
Q 3003 894 3003 1313 
Q 3003 1734 2745 1975 
Q 2488 2216 2034 2216 
z
M 1403 2484 
Q 997 2584 770 2862 
Q 544 3141 544 3541 
Q 544 4100 942 4425 
Q 1341 4750 2034 4750 
Q 2731 4750 3128 4425 
Q 3525 4100 3525 3541 
Q 3525 3141 3298 2862 
Q 3072 2584 2669 2484 
Q 3125 2378 3379 2068 
Q 3634 1759 3634 1313 
Q 3634 634 3220 271 
Q 2806 -91 2034 -91 
Q 1263 -91 848 271 
Q 434 634 434 1313 
Q 434 1759 690 2068 
Q 947 2378 1403 2484 
z
M 1172 3481 
Q 1172 3119 1398 2916 
Q 1625 2713 2034 2713 
Q 2441 2713 2670 2916 
Q 2900 3119 2900 3481 
Q 2900 3844 2670 4047 
Q 2441 4250 2034 4250 
Q 1625 4250 1398 4047 
Q 1172 3844 1172 3481 
z
" transform="scale(0.015625)"/>
       </defs>
       <use xlink:href="#DejaVuSans-30"/>
       <use xlink:href="#DejaVuSans-2e" x="63.623047"/>
       <use xlink:href="#DejaVuSans-38" x="95.410156"/>
      </g>
     </g>
    </g>
    <g id="xtick_6">
     <g id="line2d_6">
      <g>
       <use xlink:href="#m6dbfa8f465" x="543.005878" y="218.084765" style="stroke: #000000; stroke-width: 0.8"/>
      </g>
     </g>
     <g id="text_6">
      <!-- 1.0 -->
      <g transform="translate(533.464003 234.20289) scale(0.12 -0.12)">
       <defs>
        <path id="DejaVuSans-31" d="M 794 531 
L 1825 531 
L 1825 4091 
L 703 3866 
L 703 4441 
L 1819 4666 
L 2450 4666 
L 2450 531 
L 3481 531 
L 3481 0 
L 794 0 
L 794 531 
z
" transform="scale(0.015625)"/>
       </defs>
       <use xlink:href="#DejaVuSans-31"/>
       <use xlink:href="#DejaVuSans-2e" x="63.623047"/>
       <use xlink:href="#DejaVuSans-30" x="95.410156"/>
      </g>
     </g>
    </g>
    <g id="text_7">
     <!-- $x/c$ -->
     <g transform="translate(307.789688 252.856015) scale(0.16 -0.16)">
      <defs>
       <path id="DejaVuSans-Oblique-78" d="M 3841 3500 
L 2234 1784 
L 3219 0 
L 2559 0 
L 1819 1388 
L 531 0 
L -166 0 
L 1556 1844 
L 641 3500 
L 1300 3500 
L 1972 2234 
L 3144 3500 
L 3841 3500 
z
" transform="scale(0.015625)"/>
       <path id="DejaVuSans-2f" d="M 1625 4666 
L 2156 4666 
L 531 -594 
L 0 -594 
L 1625 4666 
z
" transform="scale(0.015625)"/>
       <path id="DejaVuSans-Oblique-63" d="M 3431 3366 
L 3316 2797 
Q 3109 2947 2876 3022 
Q 2644 3097 2394 3097 
Q 2119 3097 1870 3000 
Q 1622 2903 1453 2725 
Q 1184 2453 1037 2087 
Q 891 1722 891 1331 
Q 891 859 1127 628 
Q 1363 397 1844 397 
Q 2081 397 2348 469 
Q 2616 541 2906 684 
L 2797 116 
Q 2547 13 2283 -39 
Q 2019 -91 1741 -91 
Q 1044 -91 669 257 
Q 294 606 294 1253 
Q 294 1797 489 2255 
Q 684 2713 1069 3078 
Q 1331 3328 1684 3456 
Q 2038 3584 2456 3584 
Q 2700 3584 2940 3529 
Q 3181 3475 3431 3366 
z
" transform="scale(0.015625)"/>
      </defs>
      <use xlink:href="#DejaVuSans-Oblique-78" transform="translate(0 0.09375)"/>
      <use xlink:href="#DejaVuSans-2f" transform="translate(59.179688 0.09375)"/>
      <use xlink:href="#DejaVuSans-Oblique-63" transform="translate(92.871094 0.09375)"/>
     </g>
    </g>
   </g>
   <g id="matplotlib.axis_2">
    <g id="ytick_1">
     <g id="line2d_7">
      <defs>
       <path id="m7b70e6fed7" d="M 0 0 
L -3.5 0 
" style="stroke: #000000; stroke-width: 0.8"/>
      </defs>
      <g>
       <use xlink:href="#m7b70e6fed7" x="74.059375" y="16.122711" style="stroke: #000000; stroke-width: 0.8"/>
      </g>
     </g>
     <g id="text_8">
      <!-- −6 -->
      <g transform="translate(49.36875 20.681774) scale(0.12 -0.12)">
       <defs>
        <path id="DejaVuSans-2212" d="M 678 2272 
L 4684 2272 
L 4684 1741 
L 678 1741 
L 678 2272 
z
" transform="scale(0.015625)"/>
       </defs>
       <use xlink:href="#DejaVuSans-2212"/>
       <use xlink:href="#DejaVuSans-36" x="83.789062"/>
      </g>
     </g>
    </g>
    <g id="ytick_2">
     <g id="line2d_8">
      <g>
       <use xlink:href="#m7b70e6fed7" x="74.059375" y="43.629133" style="stroke: #000000; stroke-width: 0.8"/>
      </g>
     </g>
     <g id="text_9">
      <!-- −5 -->
      <g transform="translate(49.36875 48.188196) scale(0.12 -0.12)">
       <defs>
        <path id="DejaVuSans-35" d="M 691 4666 
L 3169 4666 
L 3169 4134 
L 1269 4134 
L 1269 2991 
Q 1406 3038 1543 3061 
Q 1681 3084 1819 3084 
Q 2600 3084 3056 2656 
Q 3513 2228 3513 1497 
Q 3513 744 3044 326 
Q 2575 -91 1722 -91 
Q 1428 -91 1123 -41 
Q 819 9 494 109 
L 494 744 
Q 775 591 1075 516 
Q 1375 441 1709 441 
Q 2250 441 2565 725 
Q 2881 1009 2881 1497 
Q 2881 1984 2565 2268 
Q 2250 2553 1709 2553 
Q 1456 2553 1204 2497 
Q 953 2441 691 2322 
L 691 4666 
z
" transform="scale(0.015625)"/>
       </defs>
       <use xlink:href="#DejaVuSans-2212"/>
       <use xlink:href="#DejaVuSans-35" x="83.789062"/>
      </g>
     </g>
    </g>
    <g id="ytick_3">
     <g id="line2d_9">
      <g>
       <use xlink:href="#m7b70e6fed7" x="74.059375" y="71.135556" style="stroke: #000000; stroke-width: 0.8"/>
      </g>
     </g>
     <g id="text_10">
      <!-- −4 -->
      <g transform="translate(49.36875 75.694618) scale(0.12 -0.12)">
       <use xlink:href="#DejaVuSans-2212"/>
       <use xlink:href="#DejaVuSans-34" x="83.789062"/>
      </g>
     </g>
    </g>
    <g id="ytick_4">
     <g id="line2d_10">
      <g>
       <use xlink:href="#m7b70e6fed7" x="74.059375" y="98.641978" style="stroke: #000000; stroke-width: 0.8"/>
      </g>
     </g>
     <g id="text_11">
      <!-- −3 -->
      <g transform="translate(49.36875 103.201041) scale(0.12 -0.12)">
       <defs>
        <path id="DejaVuSans-33" d="M 2597 2516 
Q 3050 2419 3304 2112 
Q 3559 1806 3559 1356 
Q 3559 666 3084 287 
Q 2609 -91 1734 -91 
Q 1441 -91 1130 -33 
Q 819 25 488 141 
L 488 750 
Q 750 597 1062 519 
Q 1375 441 1716 441 
Q 2309 441 2620 675 
Q 2931 909 2931 1356 
Q 2931 1769 2642 2001 
Q 2353 2234 1838 2234 
L 1294 2234 
L 1294 2753 
L 1863 2753 
Q 2328 2753 2575 2939 
Q 2822 3125 2822 3475 
Q 2822 3834 2567 4026 
Q 2313 4219 1838 4219 
Q 1578 4219 1281 4162 
Q 984 4106 628 3988 
L 628 4550 
Q 988 4650 1302 4700 
Q 1616 4750 1894 4750 
Q 2613 4750 3031 4423 
Q 3450 4097 3450 3541 
Q 3450 3153 3228 2886 
Q 3006 2619 2597 2516 
z
" transform="scale(0.015625)"/>
       </defs>
       <use xlink:href="#DejaVuSans-2212"/>
       <use xlink:href="#DejaVuSans-33" x="83.789062"/>
      </g>
     </g>
    </g>
    <g id="ytick_5">
     <g id="line2d_11">
      <g>
       <use xlink:href="#m7b70e6fed7" x="74.059375" y="126.148401" style="stroke: #000000; stroke-width: 0.8"/>
      </g>
     </g>
     <g id="text_12">
      <!-- −2 -->
      <g transform="translate(49.36875 130.707463) scale(0.12 -0.12)">
       <use xlink:href="#DejaVuSans-2212"/>
       <use xlink:href="#DejaVuSans-32" x="83.789062"/>
      </g>
     </g>
    </g>
    <g id="ytick_6">
     <g id="line2d_12">
      <g>
       <use xlink:href="#m7b70e6fed7" x="74.059375" y="153.654823" style="stroke: #000000; stroke-width: 0.8"/>
      </g>
     </g>
     <g id="text_13">
      <!-- −1 -->
      <g transform="translate(49.36875 158.213886) scale(0.12 -0.12)">
       <use xlink:href="#DejaVuSans-2212"/>
       <use xlink:href="#DejaVuSans-31" x="83.789062"/>
      </g>
     </g>
    </g>
    <g id="ytick_7">
     <g id="line2d_13">
      <g>
       <use xlink:href="#m7b70e6fed7" x="74.059375" y="181.161246" style="stroke: #000000; stroke-width: 0.8"/>
      </g>
     </g>
     <g id="text_14">
      <!-- 0 -->
      <g transform="translate(59.424375 185.720308) scale(0.12 -0.12)">
       <use xlink:href="#DejaVuSans-30"/>
      </g>
     </g>
    </g>
    <g id="ytick_8">
     <g id="line2d_14">
      <g>
       <use xlink:href="#m7b70e6fed7" x="74.059375" y="208.667668" style="stroke: #000000; stroke-width: 0.8"/>
      </g>
     </g>
     <g id="text_15">
      <!-- 1 -->
      <g transform="translate(59.424375 213.22673) scale(0.12 -0.12)">
       <use xlink:href="#DejaVuSans-31"/>
      </g>
     </g>
    </g>
    <g id="text_16">
     <!-- $C_p$ -->
     <g transform="translate(40.40875 123.802382) rotate(-90) scale(0.16 -0.16)">
      <defs>
       <path id="DejaVuSans-Oblique-43" d="M 4447 4306 
L 4319 3641 
Q 4019 3944 3683 4091 
Q 3347 4238 2956 4238 
Q 2422 4238 2017 3981 
Q 1613 3725 1319 3200 
Q 1131 2863 1032 2486 
Q 934 2109 934 1728 
Q 934 1091 1264 756 
Q 1594 422 2222 422 
Q 2656 422 3056 561 
Q 3456 700 3834 978 
L 3688 231 
Q 3316 72 2936 -9 
Q 2556 -91 2175 -91 
Q 1278 -91 773 396 
Q 269 884 269 1753 
Q 269 2309 461 2846 
Q 653 3384 1013 3828 
Q 1394 4300 1883 4525 
Q 2372 4750 3022 4750 
Q 3422 4750 3780 4639 
Q 4138 4528 4447 4306 
z
" transform="scale(0.015625)"/>
       <path id="DejaVuSans-Oblique-70" d="M 3175 2156 
Q 3175 2616 2975 2859 
Q 2775 3103 2400 3103 
Q 2144 3103 1911 2972 
Q 1678 2841 1497 2591 
Q 1319 2344 1212 1994 
Q 1106 1644 1106 1300 
Q 1106 863 1306 627 
Q 1506 391 1875 391 
Q 2147 391 2380 519 
Q 2613 647 2778 891 
Q 2956 1147 3065 1494 
Q 3175 1841 3175 2156 
z
M 1394 2969 
Q 1625 3272 1939 3428 
Q 2253 3584 2638 3584 
Q 3175 3584 3472 3232 
Q 3769 2881 3769 2247 
Q 3769 1728 3584 1258 
Q 3400 788 3053 416 
Q 2822 169 2531 39 
Q 2241 -91 1919 -91 
Q 1547 -91 1294 64 
Q 1041 219 916 525 
L 556 -1331 
L -19 -1331 
L 922 3500 
L 1497 3500 
L 1394 2969 
z
" transform="scale(0.015625)"/>
      </defs>
      <use xlink:href="#DejaVuSans-Oblique-43" transform="translate(0 0.78125)"/>
      <use xlink:href="#DejaVuSans-Oblique-70" transform="translate(69.824219 -15.625) scale(0.7)"/>
     </g>
    </g>
   </g>
   <g id="line2d_15">
    <path d="M 542.875426 149.434328 
L 542.354066 183.838929 
L 541.312463 186.2264 
L 539.753074 186.470143 
L 535.09702 185.733515 
L 528.429018 184.719992 
L 519.811611 183.739852 
L 509.325216 182.82576 
L 497.067671 181.97774 
L 475.615068 180.802648 
L 450.888441 179.71138 
L 413.733162 178.315798 
L 206.419954 171.154937 
L 179.795746 170.404274 
L 163.64453 170.08537 
L 148.949727 169.977652 
L 135.848491 170.172311 
L 129.934159 170.429842 
L 124.463006 170.83922 
L 119.447764 171.450052 
L 114.900048 172.335666 
L 110.830357 173.613438 
L 107.248297 175.460023 
L 104.162355 178.141899 
L 101.579679 182.01727 
L 99.506301 187.489071 
L 97.946912 194.64654 
L 96.905309 202.423574 
L 96.383949 207.885668 
L 96.905309 202.423574 
L 97.946912 194.64654 
L 99.506301 187.489071 
L 101.579679 182.01727 
L 104.162355 178.141899 
L 107.248297 175.460023 
L 110.830357 173.613438 
L 114.900048 172.335666 
L 119.447764 171.450052 
L 124.463006 170.83922 
L 129.934159 170.429842 
L 135.848491 170.172311 
L 148.949727 169.977652 
L 163.64453 170.08537 
L 179.795746 170.404274 
L 206.419954 171.154937 
L 255.774923 172.835234 
L 373.071548 176.915349 
L 442.00678 179.358582 
L 475.615068 180.802648 
L 497.067671 181.97774 
L 509.325216 182.82576 
L 519.811611 183.739852 
L 528.429018 184.719992 
L 535.09702 185.733515 
L 539.753074 186.470143 
L 541.312463 186.2264 
L 542.354066 183.838929 
L 542.875426 149.434328 
L 542.875426 149.434328 
" clip-path="url(#pa6908805f5)" style="fill: none; stroke: #cd5c5c; stroke-width: 1.5; stroke-linecap: square"/>
   </g>
   <g id="line2d_16">
    <path d="M 542.875426 149.55821 
L 542.354066 183.930193 
L 541.312463 186.342235 
L 539.753074 186.617925 
L 535.09702 185.956401 
L 528.429018 185.028271 
L 519.811611 184.141686 
L 509.325216 183.328765 
L 497.067671 182.589409 
L 475.615068 181.592133 
L 450.888441 180.698487 
L 413.733162 179.604313 
L 351.895708 178.051 
L 276.725823 176.369685 
L 235.420438 175.654336 
L 206.419954 175.394436 
L 188.370934 175.428639 
L 171.547133 175.689029 
L 156.106254 176.256683 
L 148.949727 176.682642 
L 142.191928 177.229574 
L 135.848491 177.922782 
L 129.934159 178.788925 
L 124.463006 179.872998 
L 119.447764 181.230112 
L 114.900048 182.934301 
L 110.830357 185.089182 
L 107.248297 187.827062 
L 104.162355 191.301433 
L 101.579679 195.622317 
L 99.506301 200.681122 
L 97.946912 205.694161 
L 96.905309 208.601199 
L 96.383949 206.453432 
L 96.383949 198.068943 
L 96.905309 186.230611 
L 97.946912 175.48994 
L 99.506301 168.060349 
L 101.579679 163.688109 
L 104.162355 161.388111 
L 107.248297 160.322861 
L 110.830357 159.970427 
L 114.900048 160.016256 
L 124.463006 160.678699 
L 156.106254 163.299844 
L 179.795746 165.013395 
L 215.85179 167.34104 
L 255.774923 169.64608 
L 298.077236 171.847181 
L 351.895708 174.369698 
L 459.463629 179.206257 
L 483.153345 180.514142 
L 503.411108 181.89802 
L 514.796369 182.879692 
L 524.359327 183.926399 
L 532.011078 185.018839 
L 539.753074 186.376103 
L 541.312463 186.165055 
L 542.354066 183.80807 
L 542.875426 149.454714 
L 542.875426 149.454714 
" clip-path="url(#pa6908805f5)" style="fill: none; stroke: #ff7f50; stroke-width: 1.5; stroke-linecap: square"/>
   </g>
   <g id="line2d_17">
    <path d="M 542.875426 149.825754 
L 542.354066 184.08142 
L 541.312463 186.511997 
L 539.753074 186.81873 
L 535.09702 186.233235 
L 528.429018 185.391745 
L 519.811611 184.599494 
L 509.325216 183.887923 
L 497.067671 183.256752 
L 475.615068 182.435251 
L 450.888441 181.735395 
L 413.733162 180.934104 
L 362.533776 180.077643 
L 308.840841 179.385875 
L 266.187827 179.067215 
L 235.420438 179.083808 
L 215.85179 179.282636 
L 197.252595 179.687793 
L 179.795746 180.356106 
L 171.547133 180.811495 
L 163.64453 181.365464 
L 156.106254 182.030809 
L 148.949727 182.820197 
L 142.191928 183.757556 
L 135.848491 184.86892 
L 129.934159 186.181516 
L 124.463006 187.73602 
L 119.447764 189.578039 
L 114.900048 191.760527 
L 110.830357 194.341751 
L 107.248297 197.36373 
L 104.162355 200.8026 
L 101.579679 204.436966 
L 99.506301 207.57223 
L 97.946912 208.578978 
L 96.905309 204.733389 
L 96.383949 193.779214 
L 96.383949 177.051083 
L 96.905309 160.1012 
L 97.946912 148.317689 
L 99.506301 142.489611 
L 101.579679 140.724132 
L 104.162355 141.121691 
L 107.248297 142.489326 
L 110.830357 144.226617 
L 114.900048 146.036091 
L 119.447764 147.790865 
L 124.463006 149.440934 
L 129.934159 150.97961 
L 135.848491 152.413142 
L 142.191928 153.745968 
L 148.949727 154.998636 
L 156.106254 156.180255 
L 171.547133 158.358062 
L 188.370934 160.362054 
L 206.419954 162.224957 
L 225.526213 163.978501 
L 245.511234 165.628387 
L 276.725823 167.937715 
L 308.840841 170.04656 
L 351.895708 172.578244 
L 413.733162 175.887472 
L 459.463629 178.403204 
L 483.153345 179.905376 
L 497.067671 180.933062 
L 509.325216 181.997722 
L 519.811611 183.11165 
L 528.429018 184.274752 
L 535.09702 185.45366 
L 539.753074 186.336263 
L 541.312463 186.1585 
L 542.354066 183.837768 
L 542.875426 149.619267 
L 542.875426 149.619267 
" clip-path="url(#pa6908805f5)" style="fill: none; stroke: #ffd700; stroke-width: 1.5; stroke-linecap: square"/>
   </g>
   <g id="line2d_18">
    <path d="M 542.875426 150.235659 
L 542.354066 184.291872 
L 541.312463 186.734858 
L 539.753074 187.071579 
L 535.09702 186.562667 
L 528.429018 185.808644 
L 519.811611 185.111045 
L 509.325216 184.500508 
L 497.067671 183.976518 
L 475.615068 183.327897 
L 450.888441 182.817052 
L 413.733162 182.298692 
L 362.533776 181.862707 
L 319.629687 181.700856 
L 287.36389 181.750262 
L 255.774923 182.027027 
L 235.420438 182.393229 
L 215.85179 182.951558 
L 197.252595 183.756275 
L 179.795746 184.868575 
L 171.547133 185.563724 
L 163.64453 186.369038 
L 156.106254 187.297119 
L 148.949727 188.360415 
L 142.191928 189.579883 
L 135.848491 190.976883 
L 129.934159 192.5716 
L 124.463006 194.389978 
L 119.447764 196.453161 
L 114.900048 198.771342 
L 110.830357 201.326067 
L 107.248297 204.023563 
L 104.162355 206.599113 
L 101.579679 208.418274 
L 99.506301 208.128824 
L 97.946912 203.286938 
L 96.905309 190.838988 
L 96.383949 169.924759 
L 96.383949 144.934486 
L 96.905309 124.162641 
L 97.946912 113.262167 
L 99.506301 110.901433 
L 101.579679 113.237216 
L 104.162355 117.441376 
L 107.248297 122.046298 
L 110.830357 126.45871 
L 114.900048 130.46328 
L 119.447764 134.027004 
L 124.463006 137.180676 
L 129.934159 139.983221 
L 135.848491 142.490965 
L 142.191928 144.745356 
L 148.949727 146.797587 
L 156.106254 148.678792 
L 163.64453 150.409047 
L 171.547133 152.020381 
L 179.795746 153.532904 
L 188.370934 154.955108 
L 197.252595 156.301114 
L 215.85179 158.796447 
L 235.420438 161.077156 
L 255.774923 163.172665 
L 276.725823 165.110603 
L 298.077236 166.900228 
L 330.418534 169.345028 
L 362.533776 171.537367 
L 413.733162 174.759493 
L 459.463629 177.664037 
L 483.153345 179.360886 
L 497.067671 180.505141 
L 509.325216 181.676724 
L 519.811611 182.888344 
L 528.429018 184.13996 
L 535.09702 185.398055 
L 539.753074 186.350819 
L 541.312463 186.206766 
L 542.354066 183.927878 
L 542.875426 149.927186 
L 542.875426 149.927186 
" clip-path="url(#pa6908805f5)" style="fill: none; stroke: #66cdaa; stroke-width: 1.5; stroke-linecap: square"/>
   </g>
   <g id="line2d_19">
    <path d="M 542.875426 150.785926 
L 542.354066 184.560523 
L 541.312463 187.009733 
L 539.753074 187.37524 
L 537.679696 187.23414 
L 528.429018 186.276936 
L 519.811611 185.673846 
L 509.325216 185.163536 
L 490.309648 184.567276 
L 467.712242 184.141939 
L 432.839421 183.79044 
L 393.748588 183.640491 
L 351.895708 183.68371 
L 308.840841 183.976248 
L 276.725823 184.441632 
L 255.774923 184.91597 
L 235.420438 185.566476 
L 215.85179 186.434216 
L 197.252595 187.573067 
L 188.370934 188.261944 
L 179.795746 189.042253 
L 171.547133 189.922566 
L 163.64453 190.915091 
L 156.106254 192.029956 
L 148.949727 193.276304 
L 142.191928 194.668187 
L 135.848491 196.216915 
L 129.934159 197.928044 
L 124.463006 199.802456 
L 119.447764 201.821985 
L 114.900048 203.932592 
L 107.248297 207.774117 
L 104.162355 208.66273 
L 101.579679 207.546845 
L 99.506301 202.348192 
L 97.946912 189.843823 
L 96.905309 166.985688 
L 96.383949 135.006286 
L 96.383949 101.875619 
L 96.905309 78.590024 
L 97.946912 70.494162 
L 99.506301 73.449712 
L 101.579679 81.361274 
L 104.162355 90.462534 
L 107.248297 99.093376 
L 110.830357 106.753268 
L 114.900048 113.373694 
L 119.447764 119.060977 
L 124.463006 123.957655 
L 129.934159 128.209397 
L 135.848491 131.937075 
L 142.191928 135.229152 
L 148.949727 138.174699 
L 156.106254 140.832 
L 163.64453 143.241404 
L 171.547133 145.452732 
L 179.795746 147.499223 
L 188.370934 149.398956 
L 197.252595 151.174594 
L 206.419954 152.839684 
L 215.85179 154.41076 
L 225.526213 155.899404 
L 245.511234 158.644726 
L 266.187827 161.137293 
L 287.36389 163.405623 
L 308.840841 165.479398 
L 330.418534 167.384311 
L 362.533776 169.964628 
L 403.839161 172.994961 
L 467.712242 177.625148 
L 490.309648 179.512039 
L 503.411108 180.780041 
L 514.796369 182.067945 
L 524.359327 183.393592 
L 532.011078 184.737232 
L 539.753074 186.419697 
L 541.312463 186.309619 
L 542.354066 184.077962 
L 542.875426 150.37697 
L 542.875426 150.37697 
" clip-path="url(#pa6908805f5)" style="fill: none; stroke: #4682b4; stroke-width: 1.5; stroke-linecap: square"/>
   </g>
   <g id="line2d_20">
    <path d="M 542.875426 151.473875 
L 542.354066 184.886065 
L 541.312463 187.335282 
L 539.753074 187.728234 
L 537.679696 187.623337 
L 528.429018 186.79434 
L 519.811611 186.285155 
L 509.325216 185.873778 
L 490.309648 185.43472 
L 467.712242 185.177798 
L 432.839421 185.071317 
L 393.748588 185.196349 
L 351.895708 185.554272 
L 319.629687 186.012891 
L 287.36389 186.697664 
L 266.187827 187.320955 
L 245.511234 188.114295 
L 225.526213 189.119831 
L 206.419954 190.378253 
L 188.370934 191.943177 
L 179.795746 192.856805 
L 171.547133 193.866783 
L 163.64453 194.981475 
L 156.106254 196.206262 
L 148.949727 197.543916 
L 142.191928 198.99768 
L 135.848491 200.563486 
L 129.934159 202.224752 
L 124.463006 203.947083 
L 114.900048 207.21913 
L 110.830357 208.365048 
L 107.248297 208.597118 
L 104.162355 206.983399 
L 101.579679 201.826924 
L 99.506301 190.258496 
L 97.946912 168.315127 
L 96.905309 133.2897 
L 96.383949 89.193912 
L 96.383949 48.084262 
L 96.905309 23.605373 
L 97.946912 20.222035 
L 99.506301 30.316907 
L 101.579679 45.251605 
L 104.162355 60.316602 
L 107.248297 73.742383 
L 110.830357 85.206296 
L 114.900048 94.85059 
L 119.447764 102.965699 
L 124.463006 109.836292 
L 129.934159 115.715499 
L 135.848491 120.802889 
L 142.191928 125.243717 
L 148.949727 129.171982 
L 156.106254 132.678109 
L 163.64453 135.826353 
L 171.547133 138.687111 
L 179.795746 141.30881 
L 188.370934 143.720669 
L 197.252595 145.955118 
L 206.419954 148.033148 
L 215.85179 149.977856 
L 225.526213 151.806028 
L 235.420438 153.522596 
L 245.511234 155.143135 
L 266.187827 158.133536 
L 287.36389 160.8246 
L 308.840841 163.260694 
L 330.418534 165.478845 
L 362.533776 168.455454 
L 393.748588 171.092517 
L 475.615068 177.784205 
L 497.067671 179.84855 
L 509.325216 181.22858 
L 519.811611 182.628755 
L 528.429018 184.049311 
L 535.09702 185.456843 
L 539.753074 186.542564 
L 541.312463 186.466557 
L 542.354066 184.287287 
L 542.875426 150.966429 
L 542.875426 150.966429 
" clip-path="url(#pa6908805f5)" style="fill: none; stroke: #ee82ee; stroke-width: 1.5; stroke-linecap: square"/>
   </g>
   <g id="patch_3">
    <path d="M 74.059375 218.084765 
L 74.059375 10.8 
" style="fill: none; stroke: #000000; stroke-width: 0.8; stroke-linejoin: miter; stroke-linecap: square"/>
   </g>
   <g id="patch_4">
    <path d="M 565.2 218.084765 
L 565.2 10.8 
" style="fill: none; stroke: #000000; stroke-width: 0.8; stroke-linejoin: miter; stroke-linecap: square"/>
   </g>
   <g id="patch_5">
    <path d="M 74.059375 218.084765 
L 565.2 218.084765 
" style="fill: none; stroke: #000000; stroke-width: 0.8; stroke-linejoin: miter; stroke-linecap: square"/>
   </g>
   <g id="patch_6">
    <path d="M 74.059375 10.8 
L 565.2 10.8 
" style="fill: none; stroke: #000000; stroke-width: 0.8; stroke-linejoin: miter; stroke-linecap: square"/>
   </g>
   <g id="legend_1">
    <g id="patch_7">
     <path d="M 446.34 145.29625 
L 555.4 145.29625 
Q 558.2 145.29625 558.2 142.49625 
L 558.2 20.6 
Q 558.2 17.8 555.4 17.8 
L 446.34 17.8 
Q 443.54 17.8 443.54 20.6 
L 443.54 142.49625 
Q 443.54 145.29625 446.34 145.29625 
z
" style="fill: #ffffff; opacity: 0.8; stroke: #cccccc; stroke-linejoin: miter"/>
    </g>
    <g id="line2d_21">
     <path d="M 449.14 29.137813 
L 463.14 29.137813 
L 477.14 29.137813 
" style="fill: none; stroke: #cd5c5c; stroke-width: 1.5; stroke-linecap: square"/>
    </g>
    <g id="text_17">
     <!-- $\alpha=0.0^{\circ}$ -->
     <g transform="translate(488.34 34.037813) scale(0.14 -0.14)">
      <defs>
       <path id="DejaVuSans-Oblique-3b1" d="M 2619 1628 
L 2622 2350 
Q 2625 3088 2069 3091 
Q 1653 3094 1394 2747 
Q 1069 2319 959 1747 
Q 825 1059 994 731 
Q 1169 397 1547 397 
Q 1966 397 2319 1063 
L 2619 1628 
z
M 2166 3578 
Q 3141 3594 3128 2584 
Q 3128 2584 3616 3500 
L 4128 3500 
L 3119 1603 
L 3109 919 
Q 3109 766 3194 638 
Q 3291 488 3391 488 
L 3669 488 
L 3575 0 
L 3228 0 
Q 2934 0 2722 263 
Q 2622 394 2619 669 
Q 2416 334 2066 50 
Q 1900 -81 1453 -78 
Q 722 -72 456 397 
Q 184 884 353 1747 
Q 534 2675 1009 3097 
Q 1544 3569 2166 3578 
z
" transform="scale(0.015625)"/>
       <path id="DejaVuSans-3d" d="M 678 2906 
L 4684 2906 
L 4684 2381 
L 678 2381 
L 678 2906 
z
M 678 1631 
L 4684 1631 
L 4684 1100 
L 678 1100 
L 678 1631 
z
" transform="scale(0.015625)"/>
       <path id="DejaVuSans-2218" d="M 2000 2619 
Q 1750 2619 1578 2445 
Q 1406 2272 1406 2022 
Q 1406 1775 1578 1605 
Q 1750 1435 2000 1435 
Q 2250 1435 2422 1605 
Q 2594 1775 2594 2022 
Q 2594 2269 2420 2444 
Q 2247 2619 2000 2619 
z
M 2000 3022 
Q 2200 3022 2384 2945 
Q 2569 2869 2703 2725 
Q 2847 2585 2919 2406 
Q 2991 2228 2991 2022 
Q 2991 1610 2702 1324 
Q 2413 1038 1994 1038 
Q 1572 1038 1290 1319 
Q 1009 1600 1009 2022 
Q 1009 2441 1296 2731 
Q 1584 3022 2000 3022 
z
" transform="scale(0.015625)"/>
      </defs>
      <use xlink:href="#DejaVuSans-Oblique-3b1" transform="translate(0 0.78125)"/>
      <use xlink:href="#DejaVuSans-3d" transform="translate(85.400391 0.78125)"/>
      <use xlink:href="#DejaVuSans-30" transform="translate(188.671875 0.78125)"/>
      <use xlink:href="#DejaVuSans-2e" transform="translate(252.294922 0.78125)"/>
      <use xlink:href="#DejaVuSans-30" transform="translate(284.082031 0.78125)"/>
      <use xlink:href="#DejaVuSans-2218" transform="translate(348.662109 39.0625) scale(0.7)"/>
     </g>
    </g>
    <g id="line2d_22">
     <path d="M 449.14 49.687188 
L 463.14 49.687188 
L 477.14 49.687188 
" style="fill: none; stroke: #ff7f50; stroke-width: 1.5; stroke-linecap: square"/>
    </g>
    <g id="text_18">
     <!-- $\alpha=2.0^{\circ}$ -->
     <g transform="translate(488.34 54.587188) scale(0.14 -0.14)">
      <use xlink:href="#DejaVuSans-Oblique-3b1" transform="translate(0 0.78125)"/>
      <use xlink:href="#DejaVuSans-3d" transform="translate(85.400391 0.78125)"/>
      <use xlink:href="#DejaVuSans-32" transform="translate(188.671875 0.78125)"/>
      <use xlink:href="#DejaVuSans-2e" transform="translate(252.294922 0.78125)"/>
      <use xlink:href="#DejaVuSans-30" transform="translate(284.082031 0.78125)"/>
      <use xlink:href="#DejaVuSans-2218" transform="translate(348.662109 39.0625) scale(0.7)"/>
     </g>
    </g>
    <g id="line2d_23">
     <path d="M 449.14 70.236563 
L 463.14 70.236563 
L 477.14 70.236563 
" style="fill: none; stroke: #ffd700; stroke-width: 1.5; stroke-linecap: square"/>
    </g>
    <g id="text_19">
     <!-- $\alpha=4.0^{\circ}$ -->
     <g transform="translate(488.34 75.136563) scale(0.14 -0.14)">
      <use xlink:href="#DejaVuSans-Oblique-3b1" transform="translate(0 0.78125)"/>
      <use xlink:href="#DejaVuSans-3d" transform="translate(85.400391 0.78125)"/>
      <use xlink:href="#DejaVuSans-34" transform="translate(188.671875 0.78125)"/>
      <use xlink:href="#DejaVuSans-2e" transform="translate(252.294922 0.78125)"/>
      <use xlink:href="#DejaVuSans-30" transform="translate(284.082031 0.78125)"/>
      <use xlink:href="#DejaVuSans-2218" transform="translate(348.662109 39.0625) scale(0.7)"/>
     </g>
    </g>
    <g id="line2d_24">
     <path d="M 449.14 90.785938 
L 463.14 90.785938 
L 477.14 90.785938 
" style="fill: none; stroke: #66cdaa; stroke-width: 1.5; stroke-linecap: square"/>
    </g>
    <g id="text_20">
     <!-- $\alpha=6.0^{\circ}$ -->
     <g transform="translate(488.34 95.685938) scale(0.14 -0.14)">
      <use xlink:href="#DejaVuSans-Oblique-3b1" transform="translate(0 0.78125)"/>
      <use xlink:href="#DejaVuSans-3d" transform="translate(85.400391 0.78125)"/>
      <use xlink:href="#DejaVuSans-36" transform="translate(188.671875 0.78125)"/>
      <use xlink:href="#DejaVuSans-2e" transform="translate(252.294922 0.78125)"/>
      <use xlink:href="#DejaVuSans-30" transform="translate(284.082031 0.78125)"/>
      <use xlink:href="#DejaVuSans-2218" transform="translate(348.662109 39.0625) scale(0.7)"/>
     </g>
    </g>
    <g id="line2d_25">
     <path d="M 449.14 111.335313 
L 463.14 111.335313 
L 477.14 111.335313 
" style="fill: none; stroke: #4682b4; stroke-width: 1.5; stroke-linecap: square"/>
    </g>
    <g id="text_21">
     <!-- $\alpha=8.0^{\circ}$ -->
     <g transform="translate(488.34 116.235313) scale(0.14 -0.14)">
      <use xlink:href="#DejaVuSans-Oblique-3b1" transform="translate(0 0.78125)"/>
      <use xlink:href="#DejaVuSans-3d" transform="translate(85.400391 0.78125)"/>
      <use xlink:href="#DejaVuSans-38" transform="translate(188.671875 0.78125)"/>
      <use xlink:href="#DejaVuSans-2e" transform="translate(252.294922 0.78125)"/>
      <use xlink:href="#DejaVuSans-30" transform="translate(284.082031 0.78125)"/>
      <use xlink:href="#DejaVuSans-2218" transform="translate(348.662109 39.0625) scale(0.7)"/>
     </g>
    </g>
    <g id="line2d_26">
     <path d="M 449.14 131.884688 
L 463.14 131.884688 
L 477.14 131.884688 
" style="fill: none; stroke: #ee82ee; stroke-width: 1.5; stroke-linecap: square"/>
    </g>
    <g id="text_22">
     <!-- $\alpha=10.0^{\circ}$ -->
     <g transform="translate(488.34 136.784688) scale(0.14 -0.14)">
      <use xlink:href="#DejaVuSans-Oblique-3b1" transform="translate(0 0.78125)"/>
      <use xlink:href="#DejaVuSans-3d" transform="translate(85.400391 0.78125)"/>
      <use xlink:href="#DejaVuSans-31" transform="translate(188.671875 0.78125)"/>
      <use xlink:href="#DejaVuSans-30" transform="translate(252.294922 0.78125)"/>
      <use xlink:href="#DejaVuSans-2e" transform="translate(315.917969 0.78125)"/>
      <use xlink:href="#DejaVuSans-30" transform="translate(347.705078 0.78125)"/>
      <use xlink:href="#DejaVuSans-2218" transform="translate(412.285156 39.0625) scale(0.7)"/>
     </g>
    </g>
   </g>
  </g>
  <g id="axes_2">
   <g id="patch_8">
    <path d="M 74.059375 334.427412 
L 565.2 334.427412 
L 565.2 275.473838 
L 74.059375 275.473838 
z
" style="fill: #ffffff"/>
   </g>
   <g id="matplotlib.axis_3">
    <g id="xtick_7">
     <g id="line2d_27">
      <g>
       <use xlink:href="#m6dbfa8f465" x="96.383949" y="334.427412" style="stroke: #000000; stroke-width: 0.8"/>
      </g>
     </g>
     <g id="text_23">
      <!-- 0.0 -->
      <g transform="translate(86.842074 350.545537) scale(0.12 -0.12)">
       <use xlink:href="#DejaVuSans-30"/>
       <use xlink:href="#DejaVuSans-2e" x="63.623047"/>
       <use xlink:href="#DejaVuSans-30" x="95.410156"/>
      </g>
     </g>
    </g>
    <g id="xtick_8">
     <g id="line2d_28">
      <g>
       <use xlink:href="#m6dbfa8f465" x="185.682244" y="334.427412" style="stroke: #000000; stroke-width: 0.8"/>
      </g>
     </g>
     <g id="text_24">
      <!-- 0.2 -->
      <g transform="translate(176.140369 350.545537) scale(0.12 -0.12)">
       <use xlink:href="#DejaVuSans-30"/>
       <use xlink:href="#DejaVuSans-2e" x="63.623047"/>
       <use xlink:href="#DejaVuSans-32" x="95.410156"/>
      </g>
     </g>
    </g>
    <g id="xtick_9">
     <g id="line2d_29">
      <g>
       <use xlink:href="#m6dbfa8f465" x="274.98054" y="334.427412" style="stroke: #000000; stroke-width: 0.8"/>
      </g>
     </g>
     <g id="text_25">
      <!-- 0.4 -->
      <g transform="translate(265.438665 350.545537) scale(0.12 -0.12)">
       <use xlink:href="#DejaVuSans-30"/>
       <use xlink:href="#DejaVuSans-2e" x="63.623047"/>
       <use xlink:href="#DejaVuSans-34" x="95.410156"/>
      </g>
     </g>
    </g>
    <g id="xtick_10">
     <g id="line2d_30">
      <g>
       <use xlink:href="#m6dbfa8f465" x="364.278835" y="334.427412" style="stroke: #000000; stroke-width: 0.8"/>
      </g>
     </g>
     <g id="text_26">
      <!-- 0.6 -->
      <g transform="translate(354.73696 350.545537) scale(0.12 -0.12)">
       <use xlink:href="#DejaVuSans-30"/>
       <use xlink:href="#DejaVuSans-2e" x="63.623047"/>
       <use xlink:href="#DejaVuSans-36" x="95.410156"/>
      </g>
     </g>
    </g>
    <g id="xtick_11">
     <g id="line2d_31">
      <g>
       <use xlink:href="#m6dbfa8f465" x="453.577131" y="334.427412" style="stroke: #000000; stroke-width: 0.8"/>
      </g>
     </g>
     <g id="text_27">
      <!-- 0.8 -->
      <g transform="translate(444.035256 350.545537) scale(0.12 -0.12)">
       <use xlink:href="#DejaVuSans-30"/>
       <use xlink:href="#DejaVuSans-2e" x="63.623047"/>
       <use xlink:href="#DejaVuSans-38" x="95.410156"/>
      </g>
     </g>
    </g>
    <g id="xtick_12">
     <g id="line2d_32">
      <g>
       <use xlink:href="#m6dbfa8f465" x="542.875426" y="334.427412" style="stroke: #000000; stroke-width: 0.8"/>
      </g>
     </g>
     <g id="text_28">
      <!-- 1.0 -->
      <g transform="translate(533.333551 350.545537) scale(0.12 -0.12)">
       <use xlink:href="#DejaVuSans-31"/>
       <use xlink:href="#DejaVuSans-2e" x="63.623047"/>
       <use xlink:href="#DejaVuSans-30" x="95.410156"/>
      </g>
     </g>
    </g>
    <g id="text_29">
     <!-- $x/c$ -->
     <g transform="translate(307.789688 369.198662) scale(0.16 -0.16)">
      <use xlink:href="#DejaVuSans-Oblique-78" transform="translate(0 0.09375)"/>
      <use xlink:href="#DejaVuSans-2f" transform="translate(59.179688 0.09375)"/>
      <use xlink:href="#DejaVuSans-Oblique-63" transform="translate(92.871094 0.09375)"/>
     </g>
    </g>
   </g>
   <g id="matplotlib.axis_4">
    <g id="ytick_9">
     <g id="line2d_33">
      <g>
       <use xlink:href="#m7b70e6fed7" x="74.059375" y="327.275199" style="stroke: #000000; stroke-width: 0.8"/>
      </g>
     </g>
     <g id="text_30">
      <!-- −0.05 -->
      <g transform="translate(30.285 331.834261) scale(0.12 -0.12)">
       <use xlink:href="#DejaVuSans-2212"/>
       <use xlink:href="#DejaVuSans-30" x="83.789062"/>
       <use xlink:href="#DejaVuSans-2e" x="147.412109"/>
       <use xlink:href="#DejaVuSans-30" x="179.199219"/>
       <use xlink:href="#DejaVuSans-35" x="242.822266"/>
      </g>
     </g>
    </g>
    <g id="ytick_10">
     <g id="line2d_34">
      <g>
       <use xlink:href="#m7b70e6fed7" x="74.059375" y="304.950625" style="stroke: #000000; stroke-width: 0.8"/>
      </g>
     </g>
     <g id="text_31">
      <!-- 0.00 -->
      <g transform="translate(40.340625 309.509687) scale(0.12 -0.12)">
       <use xlink:href="#DejaVuSans-30"/>
       <use xlink:href="#DejaVuSans-2e" x="63.623047"/>
       <use xlink:href="#DejaVuSans-30" x="95.410156"/>
       <use xlink:href="#DejaVuSans-30" x="159.033203"/>
      </g>
     </g>
    </g>
    <g id="ytick_11">
     <g id="line2d_35">
      <g>
       <use xlink:href="#m7b70e6fed7" x="74.059375" y="282.626051" style="stroke: #000000; stroke-width: 0.8"/>
      </g>
     </g>
     <g id="text_32">
      <!-- 0.05 -->
      <g transform="translate(40.340625 287.185114) scale(0.12 -0.12)">
       <use xlink:href="#DejaVuSans-30"/>
       <use xlink:href="#DejaVuSans-2e" x="63.623047"/>
       <use xlink:href="#DejaVuSans-30" x="95.410156"/>
       <use xlink:href="#DejaVuSans-35" x="159.033203"/>
      </g>
     </g>
    </g>
    <g id="text_33">
     <!-- $y/c$ -->
     <g transform="translate(22.925 316.790625) rotate(-90) scale(0.16 -0.16)">
      <defs>
       <path id="DejaVuSans-Oblique-79" d="M 1588 -325 
Q 1188 -997 936 -1164 
Q 684 -1331 294 -1331 
L -159 -1331 
L -63 -850 
L 269 -850 
Q 509 -850 678 -719 
Q 847 -588 1056 -206 
L 1234 128 
L 459 3500 
L 1069 3500 
L 1650 819 
L 3256 3500 
L 3859 3500 
L 1588 -325 
z
" transform="scale(0.015625)"/>
      </defs>
      <use xlink:href="#DejaVuSans-Oblique-79" transform="translate(0 0.09375)"/>
      <use xlink:href="#DejaVuSans-2f" transform="translate(59.179688 0.09375)"/>
      <use xlink:href="#DejaVuSans-Oblique-63" transform="translate(92.871094 0.09375)"/>
     </g>
    </g>
   </g>
   <g id="line2d_36">
    <path d="M 542.875426 304.388046 
L 522.085443 301.552378 
L 500.239508 298.738143 
L 471.663607 295.290782 
L 446.447555 292.456454 
L 418.570413 289.54399 
L 388.616639 286.681533 
L 367.802546 284.867438 
L 346.538836 283.178808 
L 325.024198 281.660737 
L 303.459106 280.359214 
L 282.044928 279.320675 
L 260.981246 278.588875 
L 240.465856 278.204446 
L 220.688962 278.201321 
L 201.836306 278.604056 
L 192.81182 278.962589 
L 184.083358 279.427386 
L 175.671459 279.998002 
L 167.595768 280.67399 
L 159.875483 281.454011 
L 152.52802 282.335385 
L 145.570789 283.314987 
L 139.020313 284.390139 
L 132.891325 285.556375 
L 127.198558 286.80923 
L 121.955409 288.144239 
L 117.173932 289.556045 
L 112.865289 291.039737 
L 109.039303 292.590401 
L 105.705351 294.203129 
L 102.871024 295.873453 
L 100.543017 297.596464 
L 98.72669 299.369035 
L 97.42606 301.187148 
L 96.6447 303.048571 
L 96.383949 304.950625 
L 96.6447 306.852679 
L 97.42606 308.714102 
L 98.72669 310.532215 
L 100.543017 312.304786 
L 102.871024 314.027797 
L 105.705351 315.698121 
L 109.039303 317.310849 
L 112.865289 318.861513 
L 117.173932 320.345205 
L 121.955409 321.757011 
L 127.198558 323.09202 
L 132.891325 324.344875 
L 139.020313 325.511111 
L 145.570789 326.586263 
L 152.52802 327.565865 
L 159.875483 328.447239 
L 167.595768 329.22726 
L 175.671459 329.903248 
L 184.083358 330.473864 
L 192.81182 330.938661 
L 201.836306 331.297194 
L 211.13583 331.550801 
L 230.473376 331.747704 
L 250.643182 331.550355 
L 271.456829 330.987329 
L 292.720539 330.097025 
L 314.235177 328.921413 
L 335.800269 327.505588 
L 357.214894 325.896433 
L 378.278129 324.139936 
L 408.785999 321.323467 
L 437.423069 318.413236 
L 463.587916 315.538724 
L 493.688586 311.976168 
L 522.085443 308.348872 
L 542.875426 305.513204 
L 542.875426 305.513204 
" clip-path="url(#p93b3fb2f66)" style="fill: none; stroke: #000000; stroke-width: 1.5; stroke-linecap: square"/>
   </g>
   <g id="patch_9">
    <path d="M 74.059375 334.427412 
L 74.059375 275.473838 
" style="fill: none; stroke: #000000; stroke-width: 0.8; stroke-linejoin: miter; stroke-linecap: square"/>
   </g>
   <g id="patch_10">
    <path d="M 565.2 334.427412 
L 565.2 275.473838 
" style="fill: none; stroke: #000000; stroke-width: 0.8; stroke-linejoin: miter; stroke-linecap: square"/>
   </g>
   <g id="patch_11">
    <path d="M 74.059375 334.427412 
L 565.2 334.427412 
" style="fill: none; stroke: #000000; stroke-width: 0.8; stroke-linejoin: miter; stroke-linecap: square"/>
   </g>
   <g id="patch_12">
    <path d="M 74.059375 275.473838 
L 565.2 275.473838 
" style="fill: none; stroke: #000000; stroke-width: 0.8; stroke-linejoin: miter; stroke-linecap: square"/>
   </g>
  </g>
  <g id="axes_3">
   <g id="patch_13">
    <path d="M 74.059375 599.10125 
L 565.2 599.10125 
L 565.2 391.816485 
L 74.059375 391.816485 
z
" style="fill: #ffffff"/>
   </g>
   <g id="matplotlib.axis_5">
    <g id="xtick_13">
     <g id="line2d_37">
      <g>
       <use xlink:href="#m6dbfa8f465" x="96.383949" y="599.10125" style="stroke: #000000; stroke-width: 0.8"/>
      </g>
     </g>
     <g id="text_34">
      <!-- 0 -->
      <g transform="translate(92.566449 615.219375) scale(0.12 -0.12)">
       <use xlink:href="#DejaVuSans-30"/>
      </g>
     </g>
    </g>
    <g id="xtick_14">
     <g id="line2d_38">
      <g>
       <use xlink:href="#m6dbfa8f465" x="185.682244" y="599.10125" style="stroke: #000000; stroke-width: 0.8"/>
      </g>
     </g>
     <g id="text_35">
      <!-- 2 -->
      <g transform="translate(181.864744 615.219375) scale(0.12 -0.12)">
       <use xlink:href="#DejaVuSans-32"/>
      </g>
     </g>
    </g>
    <g id="xtick_15">
     <g id="line2d_39">
      <g>
       <use xlink:href="#m6dbfa8f465" x="274.98054" y="599.10125" style="stroke: #000000; stroke-width: 0.8"/>
      </g>
     </g>
     <g id="text_36">
      <!-- 4 -->
      <g transform="translate(271.16304 615.219375) scale(0.12 -0.12)">
       <use xlink:href="#DejaVuSans-34"/>
      </g>
     </g>
    </g>
    <g id="xtick_16">
     <g id="line2d_40">
      <g>
       <use xlink:href="#m6dbfa8f465" x="364.278835" y="599.10125" style="stroke: #000000; stroke-width: 0.8"/>
      </g>
     </g>
     <g id="text_37">
      <!-- 6 -->
      <g transform="translate(360.461335 615.219375) scale(0.12 -0.12)">
       <use xlink:href="#DejaVuSans-36"/>
      </g>
     </g>
    </g>
    <g id="xtick_17">
     <g id="line2d_41">
      <g>
       <use xlink:href="#m6dbfa8f465" x="453.577131" y="599.10125" style="stroke: #000000; stroke-width: 0.8"/>
      </g>
     </g>
     <g id="text_38">
      <!-- 8 -->
      <g transform="translate(449.759631 615.219375) scale(0.12 -0.12)">
       <use xlink:href="#DejaVuSans-38"/>
      </g>
     </g>
    </g>
    <g id="xtick_18">
     <g id="line2d_42">
      <g>
       <use xlink:href="#m6dbfa8f465" x="542.875426" y="599.10125" style="stroke: #000000; stroke-width: 0.8"/>
      </g>
     </g>
     <g id="text_39">
      <!-- 10 -->
      <g transform="translate(535.240426 615.219375) scale(0.12 -0.12)">
       <use xlink:href="#DejaVuSans-31"/>
       <use xlink:href="#DejaVuSans-30" x="63.623047"/>
      </g>
     </g>
    </g>
    <g id="text_40">
     <!-- $\alpha\,[^{\circ}]$ -->
     <g transform="translate(302.989688 633.8725) scale(0.16 -0.16)">
      <defs>
       <path id="DejaVuSans-5b" d="M 550 4863 
L 1875 4863 
L 1875 4416 
L 1125 4416 
L 1125 -397 
L 1875 -397 
L 1875 -844 
L 550 -844 
L 550 4863 
z
" transform="scale(0.015625)"/>
       <path id="DejaVuSans-5d" d="M 1947 4863 
L 1947 -844 
L 622 -844 
L 622 -397 
L 1369 -397 
L 1369 4416 
L 622 4416 
L 622 4863 
L 1947 4863 
z
" transform="scale(0.015625)"/>
      </defs>
      <use xlink:href="#DejaVuSans-Oblique-3b1" transform="translate(0 0.015625)"/>
      <use xlink:href="#DejaVuSans-5b" transform="translate(82.153645 0.015625)"/>
      <use xlink:href="#DejaVuSans-2218" transform="translate(122.124348 38.296875) scale(0.7)"/>
      <use xlink:href="#DejaVuSans-5d" transform="translate(168.677083 0.015625)"/>
     </g>
    </g>
   </g>
   <g id="matplotlib.axis_6">
    <g id="ytick_12">
     <g id="line2d_43">
      <g>
       <use xlink:href="#m7b70e6fed7" x="74.059375" y="589.679215" style="stroke: #000000; stroke-width: 0.8"/>
      </g>
     </g>
     <g id="text_41">
      <!-- 0.0 -->
      <g transform="translate(47.975625 594.238278) scale(0.12 -0.12)">
       <use xlink:href="#DejaVuSans-30"/>
       <use xlink:href="#DejaVuSans-2e" x="63.623047"/>
       <use xlink:href="#DejaVuSans-30" x="95.410156"/>
      </g>
     </g>
    </g>
    <g id="ytick_13">
     <g id="line2d_44">
      <g>
       <use xlink:href="#m7b70e6fed7" x="74.059375" y="558.354371" style="stroke: #000000; stroke-width: 0.8"/>
      </g>
     </g>
     <g id="text_42">
      <!-- 0.2 -->
      <g transform="translate(47.975625 562.913433) scale(0.12 -0.12)">
       <use xlink:href="#DejaVuSans-30"/>
       <use xlink:href="#DejaVuSans-2e" x="63.623047"/>
       <use xlink:href="#DejaVuSans-32" x="95.410156"/>
      </g>
     </g>
    </g>
    <g id="ytick_14">
     <g id="line2d_45">
      <g>
       <use xlink:href="#m7b70e6fed7" x="74.059375" y="527.029526" style="stroke: #000000; stroke-width: 0.8"/>
      </g>
     </g>
     <g id="text_43">
      <!-- 0.4 -->
      <g transform="translate(47.975625 531.588589) scale(0.12 -0.12)">
       <use xlink:href="#DejaVuSans-30"/>
       <use xlink:href="#DejaVuSans-2e" x="63.623047"/>
       <use xlink:href="#DejaVuSans-34" x="95.410156"/>
      </g>
     </g>
    </g>
    <g id="ytick_15">
     <g id="line2d_46">
      <g>
       <use xlink:href="#m7b70e6fed7" x="74.059375" y="495.704681" style="stroke: #000000; stroke-width: 0.8"/>
      </g>
     </g>
     <g id="text_44">
      <!-- 0.6 -->
      <g transform="translate(47.975625 500.263744) scale(0.12 -0.12)">
       <use xlink:href="#DejaVuSans-30"/>
       <use xlink:href="#DejaVuSans-2e" x="63.623047"/>
       <use xlink:href="#DejaVuSans-36" x="95.410156"/>
      </g>
     </g>
    </g>
    <g id="ytick_16">
     <g id="line2d_47">
      <g>
       <use xlink:href="#m7b70e6fed7" x="74.059375" y="464.379837" style="stroke: #000000; stroke-width: 0.8"/>
      </g>
     </g>
     <g id="text_45">
      <!-- 0.8 -->
      <g transform="translate(47.975625 468.938899) scale(0.12 -0.12)">
       <use xlink:href="#DejaVuSans-30"/>
       <use xlink:href="#DejaVuSans-2e" x="63.623047"/>
       <use xlink:href="#DejaVuSans-38" x="95.410156"/>
      </g>
     </g>
    </g>
    <g id="ytick_17">
     <g id="line2d_48">
      <g>
       <use xlink:href="#m7b70e6fed7" x="74.059375" y="433.054992" style="stroke: #000000; stroke-width: 0.8"/>
      </g>
     </g>
     <g id="text_46">
      <!-- 1.0 -->
      <g transform="translate(47.975625 437.614055) scale(0.12 -0.12)">
       <use xlink:href="#DejaVuSans-31"/>
       <use xlink:href="#DejaVuSans-2e" x="63.623047"/>
       <use xlink:href="#DejaVuSans-30" x="95.410156"/>
      </g>
     </g>
    </g>
    <g id="ytick_18">
     <g id="line2d_49">
      <g>
       <use xlink:href="#m7b70e6fed7" x="74.059375" y="401.730148" style="stroke: #000000; stroke-width: 0.8"/>
      </g>
     </g>
     <g id="text_47">
      <!-- 1.2 -->
      <g transform="translate(47.975625 406.28921) scale(0.12 -0.12)">
       <use xlink:href="#DejaVuSans-31"/>
       <use xlink:href="#DejaVuSans-2e" x="63.623047"/>
       <use xlink:href="#DejaVuSans-32" x="95.410156"/>
      </g>
     </g>
    </g>
    <g id="text_48">
     <!-- $C_l$ -->
     <g transform="translate(40.648125 502.898868) rotate(-90) scale(0.16 -0.16)">
      <defs>
       <path id="DejaVuSans-Oblique-6c" d="M 1172 4863 
L 1747 4863 
L 800 0 
L 225 0 
L 1172 4863 
z
" transform="scale(0.015625)"/>
      </defs>
      <use xlink:href="#DejaVuSans-Oblique-43" transform="translate(0 0.78125)"/>
      <use xlink:href="#DejaVuSans-Oblique-6c" transform="translate(69.824219 -15.625) scale(0.7)"/>
     </g>
    </g>
   </g>
   <g id="line2d_50">
    <path d="M 96.383949 589.679215 
L 185.682244 551.806745 
L 274.98054 513.980417 
L 364.278835 476.246316 
L 453.577131 438.650415 
L 542.875426 401.23852 
" clip-path="url(#p7d3b0dfa56)" style="fill: none; stroke-dasharray: 5.55,2.4; stroke-dashoffset: 0; stroke: #800080; stroke-width: 1.5"/>
    <defs>
     <path id="m7d7411d356" d="M 0 3 
C 0.795609 3 1.55874 2.683901 2.12132 2.12132 
C 2.683901 1.55874 3 0.795609 3 0 
C 3 -0.795609 2.683901 -1.55874 2.12132 -2.12132 
C 1.55874 -2.683901 0.795609 -3 0 -3 
C -0.795609 -3 -1.55874 -2.683901 -2.12132 -2.12132 
C -2.683901 -1.55874 -3 -0.795609 -3 0 
C -3 0.795609 -2.683901 1.55874 -2.12132 2.12132 
C -1.55874 2.683901 -0.795609 3 0 3 
z
" style="stroke: #808080"/>
    </defs>
    <g clip-path="url(#p7d3b0dfa56)">
     <use xlink:href="#m7d7411d356" x="96.383949" y="589.679215" style="fill: #808080; stroke: #808080"/>
     <use xlink:href="#m7d7411d356" x="185.682244" y="551.806745" style="fill: #808080; stroke: #808080"/>
     <use xlink:href="#m7d7411d356" x="274.98054" y="513.980417" style="fill: #808080; stroke: #808080"/>
     <use xlink:href="#m7d7411d356" x="364.278835" y="476.246316" style="fill: #808080; stroke: #808080"/>
     <use xlink:href="#m7d7411d356" x="453.577131" y="438.650415" style="fill: #808080; stroke: #808080"/>
     <use xlink:href="#m7d7411d356" x="542.875426" y="401.23852" style="fill: #808080; stroke: #808080"/>
    </g>
   </g>
   <g id="patch_14">
    <path d="M 74.059375 599.10125 
L 74.059375 391.816485 
" style="fill: none; stroke: #000000; stroke-width: 0.8; stroke-linejoin: miter; stroke-linecap: square"/>
   </g>
   <g id="patch_15">
    <path d="M 565.2 599.10125 
L 565.2 391.816485 
" style="fill: none; stroke: #000000; stroke-width: 0.8; stroke-linejoin: miter; stroke-linecap: square"/>
   </g>
   <g id="patch_16">
    <path d="M 74.059375 599.10125 
L 565.2 599.10125 
" style="fill: none; stroke: #000000; stroke-width: 0.8; stroke-linejoin: miter; stroke-linecap: square"/>
   </g>
   <g id="patch_17">
    <path d="M 74.059375 391.816485 
L 565.2 391.816485 
" style="fill: none; stroke: #000000; stroke-width: 0.8; stroke-linejoin: miter; stroke-linecap: square"/>
   </g>
  </g>
 </g>
 <defs>
  <clipPath id="pa6908805f5">
   <rect x="74.059375" y="10.8" width="491.140625" height="207.284765"/>
  </clipPath>
  <clipPath id="p93b3fb2f66">
   <rect x="74.059375" y="275.473838" width="491.140625" height="58.953574"/>
  </clipPath>
  <clipPath id="p7d3b0dfa56">
   <rect x="74.059375" y="391.816485" width="491.140625" height="207.284765"/>
  </clipPath>
 </defs>
</svg>
