<?xml version="1.0" encoding="UTF-8"?>
<svg id="Layer_1" data-name="Layer 1" xmlns="http://www.w3.org/2000/svg" viewBox="0 0 72 30">
  <defs>
    <style>
      .cls-1 {
        fill: #0046c8;
      }

      .cls-2 {
        fill: #0046c8;
      }
      @media (prefers-color-scheme: dark) {
        .cls-1 {
          fill: #00c7fd;
        }
        
        .cls-2 {
          fill: white;
        }
      }
    </style>
  </defs>
  <rect class="cls-2" x="4.55" y="2.1" width="4.96" height="4.96"/>
  <path class="cls-1" d="M9.37,27.9V10.06h-4.7v17.84h4.7ZM40.52,28.08v-4.37c-.69,0-1.26-.04-1.7-.11-.48-.08-.86-.24-1.1-.49-.25-.25-.41-.61-.49-1.07-.07-.44-.11-1.02-.11-1.72v-6.24h3.4v-4.02h-3.4V3.11h-4.7v17.24c0,1.45.13,2.69.38,3.68.25.97.67,1.77,1.25,2.37.58.6,1.36,1.03,2.29,1.29.95.26,2.15.39,3.58.39h.59ZM67.45,27.9V1.74h-4.7v26.16h4.7ZM27.89,11.82c-1.3-1.41-3.14-2.12-5.47-2.12-1.12,0-2.16.23-3.08.69-.92.46-1.71,1.1-2.33,1.9l-.26.33v-.3s0-2.26,0-2.26h-4.63v17.84h4.67v-8.84c0-.11,0-.22,0-.32.05-1.67.46-2.91,1.24-3.7.83-.84,1.83-1.27,2.98-1.27,1.36,0,2.39.42,3.08,1.23.67.8,1.01,1.95,1.02,3.42h0s0,.04,0,.04c0,0,0,0,0,0h0s0,9.43,0,9.43h4.74v-10.13c0-2.54-.66-4.55-1.97-5.95ZM60.31,18.95c0-1.28-.23-2.49-.68-3.61-.45-1.11-1.09-2.1-1.89-2.94-.8-.84-1.78-1.51-2.91-1.98-1.12-.47-2.38-.71-3.73-.71-1.28,0-2.5.25-3.62.73-1.13.49-2.12,1.15-2.95,1.98-.83.83-1.5,1.82-1.98,2.95-.49,1.12-.73,2.34-.73,3.62s.23,2.5.7,3.62c.46,1.13,1.11,2.12,1.93,2.94.82.83,1.82,1.5,2.98,1.98,1.16.49,2.45.73,3.82.73,3.98,0,6.46-1.81,7.94-3.5l-3.38-2.58c-.71.85-2.4,1.99-4.52,1.99-1.33,0-2.42-.31-3.24-.91-.83-.61-1.4-1.44-1.7-2.48l-.05-.17h14.01v-1.68ZM46.33,17.31c0-1.31,1.5-3.59,4.73-3.59,3.23,0,4.73,2.28,4.73,3.58h-9.47Z"/>
</svg>