<?xml version="1.0" encoding="utf-8"?>
<!-- Generator: Adobe Illustrator 22.0.1, SVG Export Plug-In . SVG Version: 6.00 Build 0)  -->
<svg version="1.1" id="Layer_1" xmlns="http://www.w3.org/2000/svg" xmlns:xlink="http://www.w3.org/1999/xlink" x="0px" y="0px"
	 viewBox="0 0 141.7 70.9" style="enable-background:new 0 0 141.7 70.9;" xml:space="preserve">
<style type="text/css">
	.st0{fill:#ffffff;}
	.st1{fill:url(#SVGID_1_);}
	.st2{fill:url(#SVGID_2_);}
	.st3{fill:url(#SVGID_3_);}
	.st4{fill:url(#SVGID_4_);}
	.st5{fill:url(#SVGID_5_);}
	.st6{fill:url(#SVGID_6_);}
</style>
<g>
	<g>
		<path class="st0" d="M10,38.3c2.3-0.1,3.7-0.3,4.3-0.7c0.6-0.4,0.9-1.1,0.9-2V18.1c0-0.9-0.2-1.5-0.7-1.8
			c-0.4-0.3-1.3-0.4-2.5-0.4c-0.3,0-0.5,0-0.7,0c-0.2,0-0.6,0-1,0.1v-0.5l3.4-0.6c0.1,0,2.5-0.4,7.2-1.2c0.1,0,0.2,0,0.3,0.1
			c0.1,0.1,0.1,0.1,0.1,0.2v2.5c1.6-0.8,3-1.4,4.2-1.8c2.2-0.7,4.4-1,6.7-1c3.3,0,6.2,0.7,8.6,2.1c2.4,1.4,3.6,3.4,3.6,5.9
			c0,2.4-1.5,4.6-4.3,6.6c-2.9,2-6.5,3-10.9,3c-1.4,0-2.5-0.1-3.5-0.3c-1.6-0.3-3-0.7-4.3-1.4v5.9c0,1.2,0.4,2,1.2,2.3
			c0.8,0.3,2.5,0.5,5.2,0.6v0.6H10V38.3z M24.2,29.3c1.3,0.4,2.7,0.6,4.4,0.6c2.6,0,4.9-0.7,6.7-2c1.9-1.3,2.8-3.1,2.8-5.4
			c0-2.2-1-3.9-2.9-5c-1.9-1.1-4.2-1.7-6.7-1.7c-1.8,0-3.4,0.3-4.9,0.8c-1.5,0.6-2.2,1.1-2.2,1.6v9.1C22,28.3,23,28.9,24.2,29.3z"/>
		<path class="st0" d="M48.2,30.2c2.6-0.1,4.2-0.3,4.9-0.6c0.7-0.3,1-1.2,1-2.6v-8.8c0-0.8-0.1-1.3-0.3-1.6
			c-0.4-0.5-1.1-0.7-2.3-0.7c-0.3,0-0.5,0-0.8,0c-0.3,0-1,0.1-2.2,0.3v-0.5l1.5-0.2c4.2-0.7,7.1-1.2,8.8-1.5
			c0.7-0.1,1.1-0.2,1.3-0.2c0,0.1,0.1,0.2,0.1,0.3v13c0,1.4,0.3,2.2,1,2.6c0.7,0.3,2.2,0.6,4.5,0.7v0.5H48.2V30.2z M53.9,5.9
			c0.7-0.4,1.6-0.6,2.7-0.6c1,0,1.9,0.2,2.7,0.5c0.7,0.4,1.1,0.8,1.1,1.3c0,0.5-0.4,1-1.1,1.3c-0.7,0.4-1.6,0.5-2.7,0.5
			c-1.1,0-2-0.2-2.7-0.5c-0.7-0.4-1.1-0.8-1.1-1.3C52.8,6.8,53.2,6.3,53.9,5.9z"/>
		<path class="st0" d="M93.7,14.8c2.2,0.8,3.3,1.6,3.3,2.5c0,0.4-0.3,0.8-0.8,1.1c-0.6,0.3-1.4,0.5-2.6,0.5c-0.8,0-1.6-0.1-2.2-0.4
			c-0.6-0.3-1.1-0.7-1.4-1.3l-0.4-0.9c-0.3-0.6-0.9-1.1-1.6-1.4c-0.8-0.3-1.8-0.4-3.1-0.4c-2.7,0-5.1,0.6-7,1.8
			c-1.9,1.2-2.8,2.8-2.8,4.8c0,1.8,1,3.5,3.1,5c2.1,1.5,4.9,2.2,8.4,2.2c2.5,0,4.7-0.4,6.7-1.3c1.1-0.5,2.4-1.2,3.8-2.3l1,0.3
			c-1.4,1.5-2.8,2.6-4.3,3.4c-2.9,1.6-6.3,2.4-10.1,2.4c-3.8,0-7.1-0.7-10-2.2c-2.9-1.5-4.3-3.5-4.3-6.1c0-2.5,1.6-4.7,4.7-6.5
			c3.2-1.8,7.2-2.7,12-2.7C88.9,13.7,91.5,14.1,93.7,14.8z"/>
		<path class="st0" d="M106.8,16.2c3.1-1.7,7-2.5,11.8-2.5c4.8,0,8.7,0.8,11.9,2.4c3.1,1.6,4.7,3.7,4.7,6.3c0,2.4-1.5,4.5-4.6,6.3
			c-3,1.8-7,2.7-11.8,2.7c-4.6,0-8.6-0.9-11.8-2.6c-3.2-1.7-4.8-3.9-4.8-6.4C102.2,19.9,103.8,17.8,106.8,16.2z M112.6,15.6
			c-2.4,1.1-3.6,3-3.6,5.8c0,2.2,1,4.2,2.9,6.1c2,1.9,4.7,2.8,8.1,2.8c2.7,0,4.8-0.6,6.3-1.9c1.5-1.3,2.2-2.9,2.2-5
			c0-2.1-0.9-4.1-2.8-6c-1.9-1.9-4.6-2.8-8.1-2.8C115.6,14.7,114,15,112.6,15.6z"/>
	</g>
	<g>
		<path class="st0" d="M133.3,11c0.5-0.5,1.1-0.7,1.8-0.7c0.7,0,1.3,0.2,1.8,0.7c0.5,0.5,0.7,1.1,0.7,1.8c0,0.7-0.2,1.3-0.7,1.8
			c-0.5,0.5-1.1,0.7-1.8,0.7c-0.7,0-1.3-0.2-1.8-0.7c-0.5-0.5-0.7-1.1-0.7-1.8C132.6,12.1,132.8,11.5,133.3,11z M133.5,14.4
			c0.4,0.4,1,0.7,1.6,0.7c0.6,0,1.2-0.2,1.6-0.7c0.4-0.4,0.7-1,0.7-1.6c0-0.6-0.2-1.2-0.7-1.6c-0.4-0.4-1-0.7-1.6-0.7
			c-0.6,0-1.2,0.2-1.6,0.7c-0.4,0.4-0.7,1-0.7,1.6C132.8,13.4,133.1,13.9,133.5,14.4z M133.7,14.1c0.2,0,0.3,0,0.4,0
			c0.1,0,0.1-0.1,0.1-0.2v-2.2c0-0.1,0-0.2-0.1-0.2c-0.1,0-0.2,0-0.4,0v-0.2h1.4c0.4,0,0.7,0.1,0.9,0.2c0.2,0.1,0.3,0.3,0.3,0.6
			c0,0.2-0.1,0.4-0.3,0.5c-0.2,0.1-0.4,0.2-0.7,0.2v0c0.4,0.1,0.6,0.4,0.7,0.7c0.1,0.4,0.2,0.6,0.3,0.6c0.1,0,0.2,0,0.2-0.1
			c0-0.1,0-0.2,0.1-0.4h0.2c0,0.2-0.1,0.4-0.1,0.5c-0.1,0.2-0.3,0.3-0.5,0.3c-0.2,0-0.4-0.1-0.5-0.2c-0.1-0.1-0.1-0.3-0.1-0.6
			c0-0.3-0.1-0.5-0.2-0.6c-0.1-0.1-0.3-0.1-0.7-0.1v1c0,0.1,0,0.2,0.1,0.2c0.1,0,0.2,0,0.4,0v0.2h-1.5V14.1z M135.5,12.6
			c0.2-0.1,0.3-0.3,0.3-0.6c0-0.2-0.1-0.3-0.2-0.4c-0.1-0.1-0.3-0.2-0.5-0.2c-0.1,0-0.2,0-0.3,0.1c-0.1,0-0.1,0.1-0.1,0.2v1
			C135.1,12.6,135.3,12.6,135.5,12.6z"/>
	</g>
</g>
<g>
	<path class="st0" d="M62.6,54h7l0.2,3h-0.5c-0.1-0.6-0.3-1.2-0.4-1.5c-0.2-0.4-0.4-0.6-0.6-0.8c-0.2-0.2-0.5-0.2-0.8-0.2
		c-0.2,0-0.3,0-0.4,0.1c-0.1,0.1-0.1,0.2-0.1,0.3V61c0,0.1,0,0.2,0.1,0.3c0.1,0.1,0.2,0.1,0.3,0.1h0.9v0.5h-4.3v-0.5h0.9
		c0.1,0,0.2,0,0.3-0.1c0.1-0.1,0.1-0.2,0.1-0.3v-6.1c0-0.1,0-0.2-0.1-0.3c-0.1-0.1-0.2-0.1-0.4-0.1c-0.9,0-1.5,0.8-1.9,2.5h-0.5
		L62.6,54z"/>
	<path class="st0" d="M75.7,59.4h-3.5c0,0.7,0.2,1.2,0.4,1.6c0.3,0.3,0.6,0.5,1.1,0.5c0.3,0,0.6-0.1,0.9-0.3
		c0.3-0.2,0.6-0.5,0.8-0.9l0.4,0.2c-0.3,0.5-0.7,0.9-1,1.2c-0.4,0.2-0.9,0.3-1.4,0.3c-0.8,0-1.5-0.3-2-0.8c-0.5-0.5-0.8-1.1-0.8-1.9
		c0-0.8,0.3-1.4,0.8-2c0.5-0.5,1.1-0.8,1.9-0.8c0.5,0,1,0.1,1.3,0.3c0.4,0.2,0.7,0.5,0.9,0.9C75.6,58.3,75.7,58.8,75.7,59.4z
		 M72.2,59h1.7c0.2,0,0.3,0,0.3-0.1c0.1-0.1,0.1-0.2,0.1-0.4c0-0.4-0.1-0.7-0.3-1c-0.2-0.2-0.4-0.3-0.7-0.3c-0.3,0-0.6,0.2-0.8,0.5
		C72.3,57.9,72.2,58.3,72.2,59z"/>
	<path class="st0" d="M81.8,60.1l0.4,0.2c-0.2,0.6-0.6,1-1,1.3c-0.5,0.3-1,0.5-1.6,0.5c-0.9,0-1.5-0.2-2-0.7
		c-0.5-0.5-0.7-1.1-0.7-1.9c0-0.8,0.3-1.5,0.8-2.1c0.6-0.5,1.3-0.8,2.2-0.8c0.7,0,1.2,0.1,1.5,0.4c0.4,0.3,0.5,0.6,0.5,1
		c0,0.3-0.1,0.5-0.2,0.7c-0.2,0.2-0.4,0.2-0.6,0.2c-0.2,0-0.4-0.1-0.5-0.2c-0.1-0.1-0.2-0.3-0.2-0.5c0-0.2,0.1-0.4,0.2-0.6
		c0.1-0.1,0.1-0.2,0.1-0.2c0-0.1-0.1-0.1-0.2-0.2c-0.2-0.1-0.4-0.1-0.6-0.1c-0.5,0-0.8,0.2-1,0.5c-0.3,0.4-0.4,1-0.4,1.8
		c0,0.8,0.1,1.4,0.4,1.7c0.3,0.3,0.6,0.5,1.1,0.5c0.4,0,0.7-0.1,1-0.4C81.3,60.9,81.6,60.6,81.8,60.1z"/>
	<path class="st0" d="M82.9,54l2.4-0.1v3.9c0.4-0.4,0.7-0.7,1-0.9c0.3-0.2,0.6-0.2,1-0.2c0.5,0,0.9,0.2,1.2,0.5
		c0.3,0.4,0.5,0.8,0.5,1.5V61c0,0.2,0,0.3,0.1,0.4c0.1,0.1,0.2,0.1,0.3,0.1h0.3v0.5h-3v-0.5h0.3c0.2,0,0.3,0,0.4-0.1
		c0.1-0.1,0.1-0.2,0.1-0.4v-2.3c0-0.3-0.1-0.6-0.3-0.8c-0.2-0.2-0.4-0.3-0.7-0.3c-0.3,0-0.6,0.1-0.9,0.4c-0.2,0.3-0.4,0.7-0.4,1.2
		V61c0,0.2,0,0.3,0.1,0.4c0.1,0.1,0.2,0.1,0.3,0.1h0.4v0.5h-3.1v-0.5h0.4c0.2,0,0.3,0,0.4-0.1c0.1-0.1,0.1-0.2,0.1-0.4V55
		c0-0.2-0.1-0.3-0.2-0.4c-0.1-0.1-0.3-0.1-0.4-0.1h-0.4V54z"/>
	<path class="st0" d="M97.3,61.4v0.5h-3v-0.5h0.3c0.2,0,0.3,0,0.4-0.1c0.1-0.1,0.1-0.2,0.1-0.4v-2.2c0-0.4-0.1-0.7-0.3-0.9
		c-0.2-0.2-0.4-0.3-0.7-0.3c-0.4,0-0.7,0.1-0.9,0.4c-0.2,0.3-0.4,0.7-0.4,1.2v1.7c0,0.2,0,0.3,0.1,0.4c0.1,0.1,0.2,0.1,0.3,0.1h0.4
		v0.5h-3.1v-0.5h0.4c0.2,0,0.3,0,0.4-0.1c0.1-0.1,0.1-0.2,0.1-0.4v-3c0-0.2-0.1-0.3-0.2-0.4c-0.1-0.1-0.3-0.2-0.5-0.2h-0.2v-0.5
		l2.1-0.1c0.1,0.3,0.1,0.7,0.2,1.1c0.3-0.4,0.6-0.7,0.9-0.9c0.3-0.2,0.7-0.3,1.1-0.3c0.5,0,0.9,0.2,1.2,0.5c0.3,0.3,0.4,0.8,0.4,1.4
		v2.3c0,0.2,0,0.3,0.1,0.4c0.1,0.1,0.2,0.1,0.4,0.1H97.3z"/>
	<path class="st0" d="M100.9,56.6c0.6,0,1.1,0.1,1.6,0.4c0.5,0.2,0.8,0.6,1.1,1c0.2,0.4,0.3,0.9,0.3,1.4c0,0.9-0.3,1.6-0.9,2
		c-0.6,0.5-1.3,0.7-2,0.7c-0.5,0-1-0.1-1.5-0.4c-0.4-0.2-0.8-0.6-1-1c-0.2-0.4-0.4-0.9-0.4-1.4c0-0.8,0.3-1.4,0.8-2
		C99.4,56.9,100.1,56.6,100.9,56.6z M100.9,57.1c-0.4,0-0.7,0.2-0.9,0.5c-0.2,0.3-0.3,0.9-0.3,1.7c0,0.9,0.1,1.5,0.3,1.8
		c0.2,0.3,0.5,0.5,0.9,0.5c0.4,0,0.7-0.2,0.9-0.5c0.2-0.3,0.3-0.9,0.3-1.7c0-0.8-0.1-1.4-0.3-1.8C101.6,57.3,101.3,57.1,100.9,57.1z
		"/>
	<path class="st0" d="M104.7,54l2.4-0.1V61c0,0.1,0,0.2,0.1,0.3c0.1,0.1,0.2,0.1,0.4,0.1h0.3v0.5h-3v-0.5h0.3c0.2,0,0.3,0,0.4-0.1
		c0.1-0.1,0.1-0.2,0.1-0.4V55c0-0.2,0-0.3-0.2-0.4c-0.1-0.1-0.2-0.1-0.4-0.1h-0.4V54z"/>
	<path class="st0" d="M111.5,56.6c0.6,0,1.1,0.1,1.6,0.4c0.5,0.2,0.8,0.6,1.1,1c0.2,0.4,0.3,0.9,0.3,1.4c0,0.9-0.3,1.6-0.9,2
		c-0.6,0.5-1.3,0.7-2,0.7c-0.5,0-1-0.1-1.5-0.4c-0.4-0.2-0.8-0.6-1-1c-0.2-0.4-0.4-0.9-0.4-1.4c0-0.8,0.3-1.4,0.8-2
		C110,56.9,110.7,56.6,111.5,56.6z M111.5,57.1c-0.4,0-0.7,0.2-0.9,0.5c-0.2,0.3-0.3,0.9-0.3,1.7c0,0.9,0.1,1.5,0.3,1.8
		c0.2,0.3,0.5,0.5,0.9,0.5c0.4,0,0.7-0.2,0.9-0.5c0.2-0.3,0.3-0.9,0.3-1.7c0-0.8-0.1-1.4-0.3-1.8C112.2,57.3,111.9,57.1,111.5,57.1z
		"/>
	<path class="st0" d="M119.6,56.9c0.4-0.5,0.9-0.8,1.3-0.8c0.2,0,0.4,0.1,0.5,0.2c0.1,0.1,0.2,0.3,0.2,0.5c0,0.2,0,0.3-0.1,0.4
		c-0.1,0.1-0.2,0.2-0.4,0.2c-0.2,0-0.4-0.1-0.5-0.3c-0.1-0.1-0.1-0.2-0.2-0.2c-0.1,0-0.2,0.1-0.4,0.3c0.4,0.4,0.6,0.8,0.6,1.2
		c0,0.3-0.1,0.6-0.3,0.9c-0.2,0.3-0.5,0.5-0.8,0.6c-0.4,0.2-0.8,0.2-1.4,0.2l-0.6,0c-0.4,0-0.7,0-0.9,0.1c-0.2,0.1-0.2,0.2-0.2,0.3
		c0,0.1,0,0.2,0.1,0.3c0.1,0.1,0.3,0.1,0.6,0.1l0.5,0c0.5,0,0.9,0,1.2,0c0.8,0,1.4,0.1,1.7,0.4c0.3,0.2,0.5,0.6,0.5,1
		c0,0.5-0.2,0.9-0.6,1.2c-0.5,0.4-1.3,0.6-2.4,0.6c-1,0-1.7-0.1-2.1-0.3c-0.4-0.2-0.6-0.5-0.6-0.8c0-0.2,0.1-0.4,0.3-0.5
		c0.2-0.1,0.5-0.3,1.1-0.4c-0.4-0.1-0.6-0.2-0.8-0.4c-0.2-0.2-0.3-0.4-0.3-0.7c0-0.2,0.1-0.5,0.2-0.6c0.1-0.2,0.4-0.3,0.7-0.5
		c-0.3-0.2-0.6-0.4-0.7-0.6c-0.2-0.2-0.3-0.5-0.3-0.8c0-0.3,0.1-0.6,0.3-0.9c0.2-0.3,0.5-0.5,0.8-0.7c0.4-0.2,0.8-0.2,1.4-0.2
		c0.3,0,0.5,0,0.8,0.1C119.1,56.7,119.4,56.8,119.6,56.9z M120.2,62.8c0-0.2-0.1-0.4-0.4-0.5c-0.2-0.1-0.5-0.1-1.1-0.1
		c-1,0-1.6,0.1-1.9,0.2c-0.3,0.1-0.4,0.3-0.4,0.5c0,0.2,0.1,0.4,0.3,0.5c0.2,0.1,0.7,0.2,1.3,0.2c0.8,0,1.4-0.1,1.8-0.3
		C120.1,63.2,120.2,63,120.2,62.8z M118.1,57.1c-0.2,0-0.5,0.1-0.6,0.3c-0.2,0.2-0.3,0.6-0.3,1c0,0.4,0.1,0.7,0.3,1
		c0.2,0.2,0.4,0.3,0.6,0.3c0.3,0,0.5-0.1,0.6-0.3c0.2-0.2,0.3-0.6,0.3-1c0-0.4-0.1-0.7-0.3-1C118.6,57.2,118.4,57.1,118.1,57.1z"/>
	<path class="st0" d="M122,56.9h3v0.5h-0.3c-0.2,0-0.3,0-0.4,0.1c-0.1,0.1-0.1,0.1-0.1,0.2c0,0.1,0,0.2,0.1,0.3l1.3,2.4l1.1-2.2
		c0.1-0.1,0.1-0.2,0.1-0.3c0-0.1-0.1-0.3-0.2-0.3c-0.1-0.1-0.3-0.1-0.5-0.1h-0.2v-0.5h2.2v0.5c-0.2,0-0.4,0.1-0.5,0.1
		c-0.1,0.1-0.2,0.2-0.3,0.4l-2,4.2c-0.3,0.7-0.7,1.2-1.1,1.6c-0.3,0.2-0.6,0.4-1,0.4c-0.4,0-0.7-0.1-0.9-0.3
		c-0.2-0.2-0.3-0.4-0.3-0.7c0-0.2,0.1-0.4,0.2-0.5c0.1-0.1,0.3-0.2,0.5-0.2c0.2,0,0.4,0.1,0.5,0.2c0.1,0.1,0.2,0.3,0.2,0.5
		c0,0.1,0,0.1,0,0.2c0,0.1,0,0.1,0,0.1c0,0.1,0,0.1,0.1,0.1c0.2,0,0.4-0.1,0.6-0.4c0.2-0.3,0.5-0.7,0.8-1.3l-2.1-4.1
		c-0.1-0.2-0.2-0.3-0.2-0.3c-0.1-0.1-0.2-0.1-0.3-0.1H122V56.9z"/>
</g>
<g>
	
		<linearGradient id="SVGID_1_" gradientUnits="userSpaceOnUse" x1="-163.5434" y1="-245.8289" x2="-269.9209" y2="-245.8289" gradientTransform="matrix(-1 0 0 -1 -131.1396 -202.2637)">
		<stop  offset="0" style="stop-color:#ffffff"/>
		<stop  offset="0.3315" style="stop-color:#ffffff"/>
		<stop  offset="0.7921" style="stop-color:#ffffff"/>
		<stop  offset="1" style="stop-color:#ffffff"/>
	</linearGradient>
	<path class="st1" d="M138,35.8c-14.3,10.5-18.4,15.1-28.2,15.3c-14.5,0.2-19-15.5-33.8-15.5c-16.1,0-18.1,16-39.9,15.5h-2.3
		l-1.5,0.5h3.7C58.2,52.1,60.2,36,76.1,36c14.6,0,19.3,15.6,33.8,15.5c10-0.1,14.1-4.8,29-15.7L138,35.8z"/>
	
		<linearGradient id="SVGID_2_" gradientUnits="userSpaceOnUse" x1="-157.4604" y1="-245.8289" x2="-263.8369" y2="-245.8289" gradientTransform="matrix(-1 0 0 -1 -131.1396 -202.2637)">
		<stop  offset="0" style="stop-color:#ffffff"/>
		<stop  offset="0.3315" style="stop-color:#ffffff"/>
		<stop  offset="0.7921" style="stop-color:#ffffff"/>
		<stop  offset="1" style="stop-color:#ffffff"/>
	</linearGradient>
	<path class="st2" d="M131.9,35.8c-14.3,10.5-18.4,15.1-28.2,15.3c-14.5,0.2-19-15.5-33.8-15.5c-16.1,0-18.1,16-39.9,15.5h-2.3
		l-1.5,0.5H30C52.1,52.1,54.1,36,70,36c14.6,0,19.3,15.6,33.8,15.5c10-0.1,14.1-4.8,29-15.7L131.9,35.8z"/>
	
		<linearGradient id="SVGID_3_" gradientUnits="userSpaceOnUse" x1="-151.3774" y1="-245.8289" x2="-257.7529" y2="-245.8289" gradientTransform="matrix(-1 0 0 -1 -131.1396 -202.2637)">
		<stop  offset="0" style="stop-color:#ffffff"/>
		<stop  offset="0.3315" style="stop-color:#ffffff"/>
		<stop  offset="0.7921" style="stop-color:#ffffff"/>
		<stop  offset="1" style="stop-color:#ffffff"/>
	</linearGradient>
	<path class="st3" d="M125.9,35.8c-14.3,10.5-18.4,15.1-28.2,15.3c-14.5,0.2-19-15.5-33.8-15.5c-16.1,0-18.1,16-39.9,15.5h-2.3
		l-1.5,0.5H24C46.1,52.1,48,36,63.9,36c14.6,0,19.3,15.6,33.8,15.5c10-0.1,14.1-4.8,29-15.7L125.9,35.8z"/>
	
		<linearGradient id="SVGID_4_" gradientUnits="userSpaceOnUse" x1="-145.2949" y1="-245.8289" x2="-251.6728" y2="-245.8289" gradientTransform="matrix(-1 0 0 -1 -131.1396 -202.2637)">
		<stop  offset="0" style="stop-color:#ffffff"/>
		<stop  offset="0.3315" style="stop-color:#ffffff"/>
		<stop  offset="0.7921" style="stop-color:#ffffff"/>
		<stop  offset="1" style="stop-color:#ffffff"/>
	</linearGradient>
	<path class="st4" d="M119.8,35.8c-14.3,10.5-18.4,15.1-28.2,15.3c-14.5,0.2-19-15.5-33.8-15.5c-16.1,0-18.1,16-39.9,15.5h-2.3
		l-1.5,0.5h3.7C40,52.1,41.9,36,57.8,36c14.6,0,19.3,15.6,33.8,15.5c10-0.1,14.1-4.8,29-15.7L119.8,35.8z"/>
	
		<linearGradient id="SVGID_5_" gradientUnits="userSpaceOnUse" x1="-139.2119" y1="-245.8289" x2="-245.5888" y2="-245.8289" gradientTransform="matrix(-1 0 0 -1 -131.1396 -202.2637)">
		<stop  offset="0" style="stop-color:#ffffff"/>
		<stop  offset="0.3315" style="stop-color:#ffffff"/>
		<stop  offset="0.7921" style="stop-color:#ffffff"/>
		<stop  offset="1" style="stop-color:#ffffff"/>
	</linearGradient>
	<path class="st5" d="M113.7,35.8C99.4,46.3,95.3,50.9,85.5,51.1c-14.5,0.2-19-15.5-33.8-15.5c-16.1,0-18.1,16-39.9,15.5H9.5
		l-1.5,0.5h3.7C33.9,52.1,35.8,36,51.7,36c14.6,0,19.3,15.6,33.8,15.5c10-0.1,14.1-4.8,29-15.7L113.7,35.8z"/>
	
		<linearGradient id="SVGID_6_" gradientUnits="userSpaceOnUse" x1="-134.5903" y1="-245.8289" x2="-239.5087" y2="-245.8289" gradientTransform="matrix(-1 0 0 -1 -131.1396 -202.2637)">
		<stop  offset="0" style="stop-color:#ffffff"/>
		<stop  offset="0.3315" style="stop-color:#ffffff"/>
		<stop  offset="0.7921" style="stop-color:#ffffff"/>
		<stop  offset="1" style="stop-color:#ffffff"/>
	</linearGradient>
	<path class="st6" d="M107.6,35.8C93.3,46.3,89.3,50.9,79.4,51.1c-14.5,0.2-19-15.5-33.8-15.5c-16.1,0-18.1,16-39.9,15.5H3.5v0.5
		h2.3C27.8,52.1,29.7,36,45.7,36c14.6,0,19.3,15.6,33.8,15.5c10-0.1,14.1-4.8,29-15.7L107.6,35.8z"/>
</g>
</svg>
