<?xml version="1.0" encoding="UTF-8" standalone="no"?>
<svg
   viewBox="0 0 32 32"
   version="1.1"
   id="svg1"
   sodipodi:docname="byte-array.svg"
   inkscape:version="1.3.2 (091e20e, 2023-11-25, custom)"
   xmlns:inkscape="http://www.inkscape.org/namespaces/inkscape"
   xmlns:sodipodi="http://sodipodi.sourceforge.net/DTD/sodipodi-0.dtd"
   xmlns="http://www.w3.org/2000/svg"
   xmlns:svg="http://www.w3.org/2000/svg">
  <defs
     id="defs1">
    <rect
       x="3.5625"
       y="3.59375"
       width="25"
       height="24.875"
       id="rect3" />
    <rect
       x="3.5625"
       y="3.59375"
       width="25"
       height="24.875"
       id="rect3-1" />
    <filter
       style="color-interpolation-filters:sRGB;"
       inkscape:label="Drop Shadow"
       id="filter40"
       x="-0.055555643"
       y="-0.03380287"
       width="1.1777781"
       height="1.1081692">
      <feFlood
         result="flood"
         in="SourceGraphic"
         flood-opacity="0.498039"
         flood-color="rgb(0,0,0)"
         id="feFlood39" />
      <feGaussianBlur
         result="blur"
         in="SourceGraphic"
         stdDeviation="0.000000"
         id="feGaussianBlur39" />
      <feOffset
         result="offset"
         in="blur"
         dx="0.600000"
         dy="0.600000"
         id="feOffset39" />
      <feComposite
         result="comp1"
         operator="in"
         in="flood"
         in2="offset"
         id="feComposite39" />
      <feComposite
         result="comp2"
         operator="over"
         in="SourceGraphic"
         in2="comp1"
         id="feComposite40" />
    </filter>
    <filter
       style="color-interpolation-filters:sRGB;"
       inkscape:label="Drop Shadow"
       id="filter42"
       x="-0.025329504"
       y="-0.029684229"
       width="1.0810544"
       height="1.0949895">
      <feFlood
         result="flood"
         in="SourceGraphic"
         flood-opacity="0.498039"
         flood-color="rgb(0,0,0)"
         id="feFlood40" />
      <feGaussianBlur
         result="blur"
         in="SourceGraphic"
         stdDeviation="0.000000"
         id="feGaussianBlur40" />
      <feOffset
         result="offset"
         in="blur"
         dx="0.600000"
         dy="0.600000"
         id="feOffset40" />
      <feComposite
         result="comp1"
         operator="in"
         in="flood"
         in2="offset"
         id="feComposite41" />
      <feComposite
         result="comp2"
         operator="over"
         in="SourceGraphic"
         in2="comp1"
         id="feComposite42" />
    </filter>
    <filter
       style="color-interpolation-filters:sRGB;"
       inkscape:label="Drop Shadow"
       id="filter3"
       x="-0.032536976"
       y="-0.027511204"
       width="1.1041183"
       height="1.0880359">
      <feFlood
         result="flood"
         in="SourceGraphic"
         flood-opacity="0.498039"
         flood-color="rgb(0,0,0)"
         id="feFlood2" />
      <feGaussianBlur
         result="blur"
         in="SourceGraphic"
         stdDeviation="0.000000"
         id="feGaussianBlur2" />
      <feOffset
         result="offset"
         in="blur"
         dx="0.600000"
         dy="0.600000"
         id="feOffset2" />
      <feComposite
         result="comp1"
         operator="in"
         in="flood"
         in2="offset"
         id="feComposite2" />
      <feComposite
         result="comp2"
         operator="over"
         in="SourceGraphic"
         in2="comp1"
         id="feComposite3" />
    </filter>
    <filter
       style="color-interpolation-filters:sRGB;"
       inkscape:label="Drop Shadow"
       id="filter7"
       x="-0.02541942"
       y="-0.025706941"
       width="1.0813421"
       height="1.0822622">
      <feFlood
         result="flood"
         in="SourceGraphic"
         flood-opacity="0.498039"
         flood-color="rgb(0,0,0)"
         id="feFlood6" />
      <feGaussianBlur
         result="blur"
         in="SourceGraphic"
         stdDeviation="0.000000"
         id="feGaussianBlur6" />
      <feOffset
         result="offset"
         in="blur"
         dx="0.600000"
         dy="0.600000"
         id="feOffset6" />
      <feComposite
         result="comp1"
         operator="in"
         in="flood"
         in2="offset"
         id="feComposite6" />
      <feComposite
         result="comp2"
         operator="over"
         in="SourceGraphic"
         in2="comp1"
         id="feComposite7" />
    </filter>
  </defs>
  <sodipodi:namedview
     id="namedview1"
     pagecolor="#ffffff"
     bordercolor="#000000"
     borderopacity="0.25"
     inkscape:showpageshadow="2"
     inkscape:pageopacity="0.0"
     inkscape:pagecheckerboard="0"
     inkscape:deskcolor="#d1d1d1"
     inkscape:zoom="32"
     inkscape:cx="15.609375"
     inkscape:cy="17.484375"
     inkscape:window-width="2560"
     inkscape:window-height="1369"
     inkscape:window-x="3432"
     inkscape:window-y="-8"
     inkscape:window-maximized="1"
     inkscape:current-layer="svg1" />
  <rect
     style="fill:#b87b41;fill-opacity:1;fill-rule:nonzero;stroke:#7f5536;stroke-opacity:1"
     id="rect1"
     width="24.026417"
     height="23.983383"
     x="3.9734311"
     y="4.0141778"
     ry="3.65625"
     inkscape:label="Background" />
  <path
     style="font-size:20px;line-height:0;font-family:Sono;-inkscape-font-specification:'Sono, Normal';text-align:center;letter-spacing:-2px;text-anchor:middle;fill:#ffffff;stroke:#ffffff;paint-order:markers fill stroke;filter:url(#filter7)"
     d="m 6.9163933,25.405005 q -1.08,0 -1.08,-1.08 V 7.0350053 q 0,-1.08 1.08,-1.08 h 3.1199997 q 0.38,0 0.62,0.17 0.24,0.17 0.24,0.5 0,0.32 -0.24,0.5 -0.24,0.17 -0.62,0.17 H 7.3763933 V 24.055005 h 2.6599997 q 0.38,0 0.62,0.18 0.24,0.18 0.24,0.5 0,0.33 -0.24,0.5 -0.24,0.17 -0.62,0.17 z m 10.5000187,-9.6 q 0.18,0 0.61,0.13 0.44,0.13 0.91,0.46 0.48,0.32 0.82,0.92 0.34,0.59 0.34,1.52 0,1.15 -0.51,1.92 -0.5,0.76 -1.46,1.14 -0.96,0.38 -2.35,0.38 h -3.45 q -1.08,0 -1.08,-1.08 v -10.22 q 0,-1.0799997 1.08,-1.0799997 h 2.94 q 1.19,0 2.19,0.2399997 1.01,0.24 1.61,0.89 0.61,0.65 0.61,1.9 0,0.87 -0.28,1.43 -0.28,0.56 -0.68,0.88 -0.4,0.31 -0.77,0.44 -0.37,0.13 -0.53,0.13 z m -4.48,-4.61 v 4.11 h 2.65 q 0.73,0 1.27,-0.25 0.55,-0.26 0.85,-0.73 0.3,-0.48 0.3,-1.16 0,-0.81 -0.37,-1.23 -0.37,-0.43 -1,-0.58 -0.63,-0.16 -1.4,-0.16 z m 2.36,9.78 q 1.58,0 2.32,-0.56 0.75,-0.57 0.75,-1.72 0,-1.17 -0.79,-1.68 -0.78,-0.52 -1.91,-0.52 h -2.73 v 4.48 z m 6.009982,4.43 q -0.37,0 -0.62,-0.17 -0.24,-0.17 -0.24,-0.5 0,-0.32 0.24,-0.5 0.25,-0.18 0.62,-0.18 h 2.67 V 7.2950053 h -2.67 q -0.37,0 -0.62,-0.17 -0.24,-0.18 -0.24,-0.5 0,-0.33 0.24,-0.5 0.25,-0.17 0.62,-0.17 h 3.13 q 1.07,0 1.07,1.08 V 24.325005 q 0,1.08 -1.07,1.08 z"
     id="text6"
     aria-label="[B]" />
</svg>
