<?xml version="1.0" encoding="UTF-8" standalone="no"?>
<!-- Created with Inkscape (http://www.inkscape.org/) -->

<svg
   width="800"
   height="800"
   viewBox="0 0 211.66666 211.66667"
   version="1.1"
   id="svg5"
   xml:space="preserve"
   inkscape:version="1.2.2 (b0a8486541, 2022-12-01)"
   sodipodi:docname="tei.svg"
   xmlns:inkscape="http://www.inkscape.org/namespaces/inkscape"
   xmlns:sodipodi="http://sodipodi.sourceforge.net/DTD/sodipodi-0.dtd"
   xmlns="http://www.w3.org/2000/svg"
   xmlns:svg="http://www.w3.org/2000/svg"><sodipodi:namedview
     id="namedview7"
     pagecolor="#ffffff"
     bordercolor="#000000"
     borderopacity="0.25"
     inkscape:showpageshadow="2"
     inkscape:pageopacity="0.0"
     inkscape:pagecheckerboard="0"
     inkscape:deskcolor="#d1d1d1"
     inkscape:document-units="px"
     showgrid="false"
     inkscape:zoom="0.75187991"
     inkscape:cx="371.7349"
     inkscape:cy="561.25984"
     inkscape:window-width="1920"
     inkscape:window-height="1049"
     inkscape:window-x="1920"
     inkscape:window-y="0"
     inkscape:window-maximized="1"
     inkscape:current-layer="layer1" /><defs
     id="defs2" /><g
     inkscape:label="Layer 1"
     inkscape:groupmode="layer"
     id="layer1"><g
       id="g248"
       transform="matrix(1.1149158,0,0,1.1149158,122.31525,-37.731506)"><path
         style="fill:#fefefe;stroke-width:0.264583"
         d="m 2.5955687,211.03428 v -4.10105 H 32.625778 62.655987 v -30.03021 -30.0302 h 4.101041 4.101042 v 34.13125 34.13125 H 36.726819 2.5955687 Z M -53.231516,132.71761 v -24.47396 h -9.260417 -9.260416 v -3.96875 -3.96875 h 23.151042 23.151042 v 3.96875 3.96875 h -9.260417 -9.260417 v 24.47396 24.47396 h -4.630208 -4.630209 z m 34.131251,-3.96875 V 100.30615 H -1.6377647 15.824736 v 3.96875 3.96875 H 2.9924437 -9.8398482 v 7.9375 7.9375 H 2.066402 13.972652 v 3.96875 3.96875 H 2.066402 -9.8398482 v 8.59896 8.59896 H 3.653902 17.147652 v 3.96875 3.96875 H -0.97630639 -19.100265 Z m 41.539584,0 v -28.44271 h 4.497917 4.497917 v 28.44271 28.44271 h -4.497917 -4.497917 z m -123.560789,-51.395317 3.7e-4,-34.197396 34.197396,-3.66e-4 34.197397,-3.67e-4 -0.07878,4.2337 -0.07878,4.2337 H -62.76915 -92.654433 v 29.885283 29.885283 l -4.2337,0.0788 -4.233697,0.0788 z"
         id="path264" /><path
         style="fill:#fce8c9;stroke-width:0.264583"
         d="m -100.98981,163.40927 0.001,-51.85833 4.101043,-0.0101 4.101042,-0.0101 -4.034233,0.0829 -4.034232,0.0829 -0.0678,51.78548 -0.0678,51.78547 z m 68.253089,-115.953361 0.01041,-4.16747 51.858334,-10e-4 51.858335,-10e-4 -51.785474,0.06781 -51.785473,0.06781 -0.08328,4.100662 -0.08327,4.100662 0.01042,-4.16747 z"
         id="path262" /><path
         style="fill:#a6a4a4;stroke-width:0.264583"
         d="m 32.42621,206.73538 29.962934,-0.069 0.06898,-29.96293 0.06899,-29.96294 -0.0016,30.03021 -0.0016,30.03021 -30.030209,0.002 -30.0302089,0.002 29.9629329,-0.069 z M 17.254144,153.22282 c 0,-2.25558 0.04058,-3.17831 0.09018,-2.05053 0.0496,1.12779 0.0496,2.97326 0,4.10105 -0.0496,1.12778 -0.09018,0.20505 -0.09018,-2.05052 z m 5.048208,-24.47396 c 1.3e-5,-15.71625 0.03186,-22.10673 0.07078,-14.20107 0.03892,7.90567 0.03891,20.76442 -2.1e-5,28.575 -0.03893,7.81059 -0.07077,1.34232 -0.07076,-14.37393 z m 9.260417,0 c 1.3e-5,-15.71625 0.03186,-22.10673 0.07078,-14.20107 0.03892,7.90567 0.03891,20.76442 -2.1e-5,28.575 -0.03893,7.81059 -0.07077,1.34232 -0.07076,-14.37393 z m -41.2842003,11.90625 c -1.006e-4,-4.80219 0.035658,-6.80405 0.079465,-4.44858 0.043807,2.35547 0.043889,6.28454 1.826e-4,8.73125 -0.043706,2.44672 -0.079547,0.51951 -0.079648,-4.28267 z m -0.056362,-24.54011 0.062058,-8.00364 0.074168,7.86863 0.074168,7.86863 11.83617,0.0717 11.8361723,0.0717 -11.9723957,0.0634 -11.972396,0.0633 z M -71.910441,104.2749 c 0,-2.25557 0.04058,-3.17831 0.09018,-2.05052 0.0496,1.12778 0.0496,2.97325 0,4.10104 -0.0496,1.12779 -0.09018,0.20505 -0.09018,-2.05052 z m 46.566668,0 c 0,-2.25557 0.04058,-3.17831 0.09017,-2.05052 0.0496,1.12778 0.0496,2.97325 0,4.10104 -0.0496,1.12779 -0.09017,0.20505 -0.09017,-2.05052 z"
         id="path260" /><path
         style="fill:#f6a723;stroke-width:0.264583"
         d="m -100.85652,163.40927 v -51.72604 h 4.101045 4.101042 v 47.625 47.625 h 47.625001 47.6250007 v 4.10105 4.10104 H -49.130474 -100.85652 Z M 62.655987,99.247815 V 51.622814 H 15.030986 -32.594015 V 47.521772 43.42073 H 19.132027 70.85807 v 51.726043 51.726047 h -4.101042 -4.101041 z"
         id="path258" /><path
         style="fill:#d59e49;stroke-width:0.264583"
         d="m -68.908079,206.73481 c 13.133256,-0.0379 34.624038,-0.0379 47.757293,0 13.1332555,0.0379 2.387865,0.069 -23.878646,0.069 -26.266511,0 -37.011902,-0.031 -23.878647,-0.069 z M 62.520845,99.247815 c 0,-26.266511 0.03104,-37.011902 0.06898,-23.878647 0.03794,13.133256 0.03794,34.624042 0,47.757292 -0.03794,13.13326 -0.06898,2.38787 -0.06898,-23.878645 z"
         id="path256" /><path
         style="fill:#534f4f;stroke-width:0.264583"
         d="m -53.313809,157.28566 c -0.100259,-0.10026 -0.18229,-11.11465 -0.18229,-24.47643 v -24.29414 l -9.194271,-0.0731 -9.194271,-0.0731 9.326563,-0.0626 9.326562,-0.0626 v 24.47396 24.47396 h 4.630209 4.630208 v -24.47396 -24.47396 l 9.326563,0.0626 9.326562,0.0626 -9.192895,0.0731 -9.192892,0.0731 -0.06753,24.40439 -0.06752,24.40439 -4.646356,0.072 c -2.555494,0.0396 -4.728385,-0.01 -4.828646,-0.11025 z m 43.294883,-0.0279 c 5.0674984,-0.0402 13.282811,-0.0402 18.2562502,5e-5 4.9734418,0.0403 0.8273071,0.0732 -9.21363059,0.0731 -10.04093761,-3e-5 -14.11011561,-0.033 -9.04261961,-0.0732 z m 34.641058,0.001 c 1.273307,-0.0485 3.356901,-0.0485 4.630208,0 1.273307,0.0485 0.23151,0.0882 -2.315104,0.0882 -2.546615,0 -3.588412,-0.0397 -2.315104,-0.0882 z m -27.4981732,-8.20333 c 3.75733209,-0.0414 9.8295197,-0.0414 13.4937502,8e-5 3.664228,0.0415 0.590047,0.0754 -6.8315153,0.0753 -7.4215626,-4e-5 -10.4195697,-0.034 -6.6622349,-0.0754 z m 5.9346307,-40.74464 12.7661465,-0.0726 v -3.96433 -3.96431 l -17.3963549,-0.0709 -17.3963541,-0.0709 17.4624999,0.003 17.4625001,0.003 v 4.10105 4.10104 l -12.8322916,0.004 -12.832292,0.004 12.7661461,-0.0726 z m -63.2155075,-8.20338 c 6.450248,-0.0395 16.927748,-0.0394 23.283333,3e-5 6.355586,0.0395 1.078111,0.0718 -11.727722,0.0717 -12.805834,-1e-5 -18.00586,-0.0323 -11.555611,-0.0718 z m 84.77905,0.001 c 1.273307,-0.0485 3.356901,-0.0485 4.630208,0 1.273307,0.0485 0.23151,0.0882 -2.315104,0.0882 -2.546615,0 -3.588412,-0.0397 -2.315104,-0.0882 z"
         id="path254" /><path
         style="fill:#4c3e31;stroke-width:0.264583"
         d="m -92.524998,159.17594 c -4e-6,-26.19375 0.03104,-36.94858 0.06898,-23.89962 0.03794,13.04896 0.03795,34.48021 7e-6,47.625 -0.03794,13.14479 -0.06898,2.46837 -0.06899,-23.72538 z M -8.8266872,51.688974 c 13.144794,-0.03794 34.5760442,-0.03794 47.6250012,7e-6 13.048959,0.03794 2.29413,0.06899 -23.89962,0.06898 -26.193751,-4e-6 -36.870172,-0.03105 -23.7253812,-0.06899 z"
         id="path252" /><path
         style="fill:#21201f;stroke-width:0.264583"
         d="m -92.492171,129.24677 c -0.103375,-42.582028 -0.136706,-77.473124 -0.07407,-77.535762 0.06264,-0.06264 34.953734,-0.02931 77.535766,0.07407 l 77.421876,0.187956 v 77.347806 77.34781 h -77.347809 -77.347809 z m 48.720888,3.66927 0.06752,-24.40781 h 9.259041 9.259038 v -4.23333 -4.23334 h -23.415625 -23.415626 v 4.23334 4.23333 h 9.260417 9.260417 v 24.29757 c 0,13.36367 0.08203,24.3796 0.18229,24.47986 0.100261,0.10026 2.273152,0.14987 4.828646,0.11025 l 4.646356,-0.072 z m 61.183519,20.30678 v -4.23334 H 3.9184854 -9.5752649 v -8.46666 -8.46667 H 2.1986937 13.972652 v -4.10104 -4.10104 H 2.1986937 -9.5752649 v -7.67038 -7.67038 l 12.7661461,-0.0687 12.7661458,-0.0687 v -4.10104 -4.10104 l -17.5286459,-0.068 -17.5286461,-0.068 v 28.70918 28.70918 H -0.84401472 17.412236 Z m 14.2875,-24.47396 v -28.7073 h -4.7625 -4.7625 v 28.7073 28.70729 h 4.7625 4.7625 z"
         id="path250" /></g></g></svg>
